<?xml version="1.0" encoding="UTF-8"?>
<!DOCTYPE svg PUBLIC "-//W3C//DTD SVG 1.1//EN" "http://www.w3.org/Graphics/SVG/1.1/DTD/svg11.dtd">
<svg version="1.1" xmlns="http://www.w3.org/2000/svg" xmlns:xlink="http://www.w3.org/1999/xlink" x="0" y="0" width="32" height="32" viewBox="0, 0, 32, 32">
  <g id="Layer_1" transform="translate(-107, -97)">
    <g>
      <g>
        <path d="M108.5,98.5 L138.5,98.5 L138.5,128.5 L108.5,128.5 L108.5,98.5 z" fill="#FFFFFF"/>
        <path d="M108.5,98.5 L138.5,98.5 L138.5,128.5 L108.5,128.5 L108.5,98.5 z" fill-opacity="0" stroke="#000000" stroke-width="1"/>
      </g>
      <text transform="matrix(1, 0, 0, 1, 118.98, 106.5)">
        <tspan x="-8.98" y="3" font-family="HelveticaNeue" font-size="10" fill="#000000">FTS</tspan>
      </text>
      <path d="M130.438,103 L136.312,103" fill-opacity="0" stroke="#000000" stroke-width="1"/>
      <path d="M130.438,106.125 L136.312,106.125" fill-opacity="0" stroke="#000000" stroke-width="1"/>
      <path d="M130.438,109.25 L136.312,109.25" fill-opacity="0" stroke="#000000" stroke-width="1"/>
      <path d="M111.25,112.375 L136.313,112.375" fill-opacity="0" stroke="#000000" stroke-width="1"/>
      <path d="M111.25,115.5 L136.313,115.5" fill-opacity="0" stroke="#000000" stroke-width="1"/>
      <path d="M111.25,118.625 L136.312,118.625" fill-opacity="0" stroke="#000000" stroke-width="1"/>
      <path d="M111.25,121.75 L136.312,121.75" fill-opacity="0" stroke="#000000" stroke-width="1"/>
      <path d="M111.25,124.875 L136.312,124.875" fill-opacity="0" stroke="#000000" stroke-width="1"/>
    </g>
  </g>
</svg>
