<?xml version="1.0" encoding="UTF-8"?>
<!DOCTYPE svg PUBLIC "-//W3C//DTD SVG 1.1//EN" "http://www.w3.org/Graphics/SVG/1.1/DTD/svg11.dtd">
<svg version="1.1" xmlns="http://www.w3.org/2000/svg" xmlns:xlink="http://www.w3.org/1999/xlink" x="0" y="0" width="48" height="48" viewBox="0, 0, 48, 48">
  <g id="Layer_1" transform="translate(-125.5, -159.25)">
    <g>
      <path d="M133.632,184.903 L131.5,189.354 L129.368,186.418 z" fill="#FFFFFF"/>
      <path d="M138.5,184.375 C137.948,184.375 137.5,183.983 137.5,183.5 C137.5,183.017 137.948,182.625 138.5,182.625 C139.052,182.625 139.5,183.017 139.5,183.5 C139.5,183.983 139.052,184.375 138.5,184.375 z" fill="#FFFFFF"/>
      <path d="M140.6,179.2 L149.6,179.2 L149.6,189.354 L140.6,189.354 L140.6,179.2 z" fill="#000000"/>
      <path d="M136.1,179.2 L139.5,179.2 L139.5,189.354 L136.1,189.354 L136.1,179.2 z" fill="#000000"/>
      <path d="M132.432,179.2 L134.917,179.2 L134.917,189.354 L132.432,189.354 L132.432,179.2 z" fill="#000000"/>
      <path d="M129.368,179.2 L130.917,179.2 L130.917,189.354 L129.368,189.354 L129.368,179.2 z" fill="#000000"/>
      <g>
        <path d="M149,173.152 L169.134,184.777 L149,196.402 z" fill="#000000"/>
        <path d="M149,173.152 L169.134,184.777 L149,196.402 z" fill-opacity="0" stroke="#000000" stroke-width="1"/>
      </g>
    </g>
  </g>
</svg>
