<?xml version="1.0" encoding="UTF-8"?>
<!DOCTYPE svg PUBLIC "-//W3C//DTD SVG 1.1//EN" "http://www.w3.org/Graphics/SVG/1.1/DTD/svg11.dtd">
<svg version="1.1" xmlns="http://www.w3.org/2000/svg" xmlns:xlink="http://www.w3.org/1999/xlink" x="0" y="0" width="39.923" height="24" viewBox="0, 0, 39.923, 24">
  <defs>
    <clipPath id="Clip_1">
      <path d="M96.298,459.25 L136.721,459.25 L136.721,483.75 L96.298,483.75 z M108.236,461.25 L107.986,461.25 L107.986,461.289 C102.589,461.817 98.463,466.015 98.298,471.496 C98.795,476.79 102.366,481.439 107.986,481.715 L107.986,481.75 L124.986,481.75 L124.986,481.713 C130.398,481.186 134.559,477.013 134.721,471.504 C134.222,466.188 130.625,461.545 124.986,461.282 L124.986,461.25 L124.473,461.25 L124.484,461.25 L124.457,461.25 L108.236,461.25 z"/>
    </clipPath>
    <filter id="Shadow_2">
      <feGaussianBlur in="SourceAlpha" stdDeviation="0.5"/>
      <feOffset dx="0" dy="0" result="offsetblur"/>
      <feFlood flood-color="#B3B3B3"/>
      <feComposite in2="offsetblur" operator="in"/>
    </filter>
    <clipPath id="Clip_3">
      <path d="M113.173,460.25 L135.673,460.25 L135.673,482.75 L113.173,482.75 z M124.423,462.25 C119.315,462.25 115.173,466.391 115.173,471.5 C115.173,476.609 119.315,480.75 124.423,480.75 C129.532,480.75 133.673,476.609 133.673,471.5 C133.673,466.391 129.532,462.25 124.423,462.25 z"/>
    </clipPath>
    <filter id="Shadow_4">
      <feGaussianBlur in="SourceAlpha" stdDeviation="0.5"/>
      <feOffset dx="0" dy="0" result="offsetblur"/>
      <feFlood flood-color="#B3B3B3"/>
      <feComposite in2="offsetblur" operator="in"/>
    </filter>
  </defs>
  <g id="Layer_1" transform="translate(-96.048, -459)">
    <g>
      <g>
        <path d="M108.236,481.5 L108.236,481.484 C102.705,481.331 98.817,476.822 98.548,471.5 C98.641,466.081 102.841,461.788 108.236,461.516 L108.236,461.5 L124.469,461.5 L124.471,461.5 L124.473,461.5 L124.736,461.5 L124.736,461.513 C130.287,461.656 134.201,466.149 134.471,471.5 C134.379,476.956 130.148,481.213 124.736,481.487 L124.736,481.5 L108.236,481.5 z" fill="#D5D5D5"/>
        <path d="M108.236,481.5 L108.236,481.484 C102.705,481.331 98.817,476.822 98.548,471.5 C98.641,466.081 102.841,461.788 108.236,461.516 L108.236,461.5 L124.469,461.5 L124.471,461.5 L124.473,461.5 L124.736,461.5 L124.736,461.513 C130.287,461.656 134.201,466.149 134.471,471.5 C134.379,476.956 130.148,481.213 124.736,481.487 L124.736,481.5 L108.236,481.5 z" fill-opacity="0" stroke="#000000" stroke-width="0.5"/>
        <g>
          <path d="M108.236,461.25 L124.457,461.25 L124.484,461.25 L124.473,461.25 L124.986,461.25 L124.986,461.282 C130.625,461.545 134.222,466.188 134.721,471.504 C134.559,477.013 130.398,481.186 124.986,481.713 L124.986,481.75 L107.986,481.75 L107.986,481.715 C102.366,481.439 98.795,476.79 98.298,471.496 C98.463,466.015 102.589,461.817 107.986,461.289 L107.986,461.25 L108.236,461.25 z" fill="rgba(0,0,0,0.25)" clip-path="url(#Clip_1)" filter="url(#Shadow_2)"/>
          <path d="M108.236,461.5 L124.457,461.5 L124.485,461.5 C124.814,461.499 124.818,461.007 124.489,461 L124.478,461 L124.473,461.25 L124.473,461.5 L124.986,461.5 L124.986,461.25 L124.736,461.25 L124.736,461.282 C124.736,461.415 124.841,461.525 124.974,461.531 C130.184,461.775 133.951,465.975 134.472,471.528 C134.315,476.81 130.321,480.943 124.962,481.464 C124.833,481.477 124.736,481.585 124.736,481.713 L124.736,481.75 L124.986,481.75 L124.986,481.5 L107.986,481.5 L107.986,481.75 L108.236,481.75 L108.236,481.715 C108.236,481.582 108.131,481.472 107.998,481.466 C102.812,481.211 99.067,477.011 98.547,471.472 C98.708,466.204 102.682,462.06 108.01,461.538 C108.138,461.526 108.236,461.418 108.236,461.289 L108.236,461.25 L107.986,461.25 L107.986,461.5 L108.236,461.5 z M108.236,461 L107.986,461 C107.848,461 107.736,461.112 107.736,461.25 L107.736,461.289 L107.986,461.289 L107.961,461.04 C102.385,461.586 98.215,465.935 98.048,471.488 C98.591,477.29 102.521,481.697 107.974,481.965 L107.986,481.715 L107.736,481.715 L107.736,481.75 C107.736,481.888 107.848,482 107.986,482 L124.986,482 C125.124,482 125.236,481.888 125.236,481.75 L125.236,481.713 L124.986,481.713 L125.01,481.962 C130.617,481.416 134.807,477.08 134.971,471.512 C134.427,465.695 130.474,461.288 124.997,461.032 L124.986,461.282 L125.236,461.282 L125.236,461.25 C125.236,461.112 125.124,461 124.986,461 L124.473,461 C124.143,461 124.139,461.494 124.469,461.5 L124.479,461.5 L124.484,461.25 L124.483,461 L124.456,461 L108.236,461 z" fill="rgba(0,0,0,0.25)" clip-path="url(#Clip_1)" filter="url(#Shadow_2)"/>
        </g>
      </g>
      <g>
        <path d="M124.423,480.5 C119.453,480.5 115.423,476.471 115.423,471.5 C115.423,466.529 119.453,462.5 124.423,462.5 C129.394,462.5 133.423,466.529 133.423,471.5 C133.423,476.471 129.394,480.5 124.423,480.5 z" fill="#FFFFFF"/>
        <path d="M124.423,480.5 C119.453,480.5 115.423,476.471 115.423,471.5 C115.423,466.529 119.453,462.5 124.423,462.5 C129.394,462.5 133.423,466.529 133.423,471.5 C133.423,476.471 129.394,480.5 124.423,480.5 z" fill-opacity="0" stroke="#000000" stroke-width="0.5"/>
        <g>
          <path d="M124.423,462.25 C129.532,462.25 133.673,466.391 133.673,471.5 C133.673,476.609 129.532,480.75 124.423,480.75 C119.315,480.75 115.173,476.609 115.173,471.5 C115.173,466.391 119.315,462.25 124.423,462.25 z" fill="rgba(0,0,0,0.25)" clip-path="url(#Clip_3)" filter="url(#Shadow_4)"/>
          <path d="M124.423,462.5 C129.394,462.5 133.423,466.529 133.423,471.5 C133.423,476.471 129.394,480.5 124.423,480.5 C119.453,480.5 115.423,476.471 115.423,471.5 C115.423,466.529 119.453,462.5 124.423,462.5 z M124.423,462 C119.176,462 114.923,466.253 114.923,471.5 C114.923,476.747 119.176,481 124.423,481 C129.67,481 133.923,476.747 133.923,471.5 C133.923,466.253 129.67,462 124.423,462 z" fill="rgba(0,0,0,0.25)" clip-path="url(#Clip_3)" filter="url(#Shadow_4)"/>
        </g>
      </g>
      <g>
        <g>
          <g>
            <path d="M126.974,471.198 L124.923,474.75 L122.873,471.198 z" fill="#000000"/>
            <path d="M126.974,471.198 L124.923,474.75 L122.873,471.198 z" fill-opacity="0" stroke="#000000" stroke-width="1"/>
          </g>
          <g>
            <path d="M124.923,467.25 C126.313,467.25 127.44,468.377 127.44,469.767 C127.44,471.158 126.313,472.285 124.923,472.285 C123.533,472.285 122.406,471.158 122.406,469.767 C122.406,468.377 123.533,467.25 124.923,467.25 z" fill="#000000"/>
            <path d="M124.923,467.25 C126.313,467.25 127.44,468.377 127.44,469.767 C127.44,471.158 126.313,472.285 124.923,472.285 C123.533,472.285 122.406,471.158 122.406,469.767 C122.406,468.377 123.533,467.25 124.923,467.25 z" fill-opacity="0" stroke="#000000" stroke-width="1"/>
          </g>
        </g>
        <g>
          <path d="M124.923,471.302 C124.028,471.302 123.303,470.576 123.303,469.681 C123.303,468.786 124.028,468.06 124.923,468.06 C125.818,468.06 126.544,468.786 126.544,469.681 C126.544,470.576 125.818,471.302 124.923,471.302 z" fill="#FFFFFF"/>
          <path d="M124.923,471.302 C124.028,471.302 123.303,470.576 123.303,469.681 C123.303,468.786 124.028,468.06 124.923,468.06 C125.818,468.06 126.544,468.786 126.544,469.681 C126.544,470.576 125.818,471.302 124.923,471.302 z" fill-opacity="0" stroke="#000000" stroke-width="1"/>
        </g>
      </g>
      <g>
        <g>
          <path d="M108.676,467.806 L111.225,469.98 L111.225,475.194 L105.518,475.194 L105.518,467.806 L108.676,467.806 z" fill="#FFFFFF"/>
          <path d="M108.676,467.806 L111.225,469.98 L111.225,475.194 L105.518,475.194 L105.518,467.806 L108.676,467.806 z" fill-opacity="0" stroke="#AAAAAA" stroke-width="0.25"/>
        </g>
        <g>
          <path d="M108.796,469.931 L108.796,467.963 L111.094,469.931 L108.796,469.931 z" fill="#FFFFFF"/>
          <path d="M108.796,469.931 L108.796,467.963 L111.094,469.931 L108.796,469.931 z" fill-opacity="0" stroke="#AAAAAA" stroke-width="0.25"/>
        </g>
        <path d="M106.875,471.327 L109.875,471.327" fill-opacity="0" stroke="#AAAAAA" stroke-width="0.25"/>
        <path d="M106.875,471.92 L109.875,471.92" fill-opacity="0" stroke="#AAAAAA" stroke-width="0.25"/>
        <path d="M106.875,472.514 L109.875,472.514" fill-opacity="0" stroke="#AAAAAA" stroke-width="0.25"/>
        <path d="M106.875,473.108 L109.875,473.108" fill-opacity="0" stroke="#AAAAAA" stroke-width="0.25"/>
        <path d="M106.875,473.702 L108.562,473.702" fill-opacity="0" stroke="#AAAAAA" stroke-width="0.25"/>
      </g>
    </g>
  </g>
</svg>
