<?xml version="1.0" encoding="UTF-8"?>
<!DOCTYPE svg PUBLIC "-//W3C//DTD SVG 1.1//EN" "http://www.w3.org/Graphics/SVG/1.1/DTD/svg11.dtd">
<svg version="1.1" xmlns="http://www.w3.org/2000/svg" xmlns:xlink="http://www.w3.org/1999/xlink" x="0" y="0" width="24" height="24" viewBox="0, 0, 48, 48">
  <g id="Layer_1" transform="translate(-55, -65)">
    <g>
      <path d="M79.25,80.875 C77.524,80.875 76.125,79.504 76.125,77.812 C76.125,76.121 77.524,74.75 79.25,74.75 C80.976,74.75 82.375,76.121 82.375,77.812 C82.375,79.504 80.976,80.875 79.25,80.875 z" fill="#000000"/>
      <path d="M79.25,80.875 C77.524,80.875 76.125,79.504 76.125,77.812 C76.125,76.121 77.524,74.75 79.25,74.75 C80.976,74.75 82.375,76.121 82.375,77.812 C82.375,79.504 80.976,80.875 79.25,80.875 z" fill-opacity="0" stroke="#000000" stroke-width="1"/>
    </g>
    <g>
      <path d="M79.281,84.375 C78.435,84.375 77.75,83.703 77.75,82.875 C77.75,82.047 78.435,81.375 79.281,81.375 C80.126,81.375 80.811,82.047 80.811,82.875 C80.811,83.703 80.126,84.375 79.281,84.375 z" fill="#000000"/>
      <path d="M79.281,84.375 C78.435,84.375 77.75,83.703 77.75,82.875 C77.75,82.047 78.435,81.375 79.281,81.375 C80.126,81.375 80.811,82.047 80.811,82.875 C80.811,83.703 80.126,84.375 79.281,84.375 z" fill-opacity="0" stroke="#000000" stroke-width="1"/>
    </g>
    <g>
      <path d="M79.468,106.625 C74.791,106.625 71,101.728 71,95.688 C71,89.647 74.791,84.75 79.468,84.75 C84.145,84.75 87.936,89.647 87.936,95.688 C87.936,101.728 84.145,106.625 79.468,106.625 z" fill="#000000"/>
      <path d="M79.468,106.625 C74.791,106.625 71,101.728 71,95.688 C71,89.647 74.791,84.75 79.468,84.75 C84.145,84.75 87.936,89.647 87.936,95.688 C87.936,101.728 84.145,106.625 79.468,106.625 z" fill-opacity="0" stroke="#000000" stroke-width="1"/>
    </g>
    <g>
      <path d="M68.797,83.25 L89.797,83.25" fill-opacity="0" stroke="#000000" stroke-width="1"/>
      <g>
        <path d="M69.234,75.875 L79.484,83.5" fill-opacity="0" stroke="#000000" stroke-width="1"/>
        <path d="M89.359,75.875 L79.109,83.5" fill-opacity="0" stroke="#000000" stroke-width="1"/>
      </g>
      <g>
        <g>
          <path d="M79.312,83.344 L70.812,86.594" fill-opacity="0" stroke="#000000" stroke-width="1"/>
          <path d="M71.094,86.344 L64.594,97.344" fill-opacity="0" stroke="#000000" stroke-width="1"/>
        </g>
        <g>
          <path d="M79.281,83.344 L87.781,86.594" fill-opacity="0" stroke="#000000" stroke-width="1"/>
          <path d="M87.5,86.344 L94,97.344" fill-opacity="0" stroke="#000000" stroke-width="1"/>
        </g>
      </g>
    </g>
  </g>
</svg>
