<?xml version="1.0" encoding="UTF-8"?>
<!DOCTYPE svg PUBLIC "-//W3C//DTD SVG 1.1//EN" "http://www.w3.org/Graphics/SVG/1.1/DTD/svg11.dtd">
<svg version="1.1" xmlns="http://www.w3.org/2000/svg" xmlns:xlink="http://www.w3.org/1999/xlink" x="0" y="0" width="24" height="24" viewBox="0, 0, 48, 48">
  <g id="Layer_1" transform="translate(-145, -65)">
    <g>
      <path d="M165.688,98.875 C156.954,98.875 149.875,95.069 149.875,90.375 C149.875,85.681 156.954,81.875 165.688,81.875 C174.421,81.875 181.5,85.681 181.5,90.375 C181.5,95.069 174.421,98.875 165.688,98.875 z" fill="#000000"/>
      <path d="M165.688,98.875 C156.954,98.875 149.875,95.069 149.875,90.375 C149.875,85.681 156.954,81.875 165.688,81.875 C174.421,81.875 181.5,85.681 181.5,90.375 C181.5,95.069 174.421,98.875 165.688,98.875 z" fill-opacity="0" stroke="#000000" stroke-width="1"/>
    </g>
    <g>
      <path d="M180.079,89.619 L187.502,84.131 L186.417,89.619 z" fill="#000000"/>
      <path d="M180.079,89.619 L187.502,84.131 L186.417,89.619 z" fill-opacity="0" stroke="#000000" stroke-width="1"/>
    </g>
    <g>
      <path d="M180.079,90.131 L187.502,95.619 L186.417,90.131 z" fill="#000000"/>
      <path d="M180.079,90.131 L187.502,95.619 L186.417,90.131 z" fill-opacity="0" stroke="#000000" stroke-width="1"/>
    </g>
    <path d="M153.132,90.653 L151,95.104 L148.868,92.168 z" fill="#FFFFFF"/>
    <path d="M158,90.125 C157.448,90.125 157,89.733 157,89.25 C157,88.767 157.448,88.375 158,88.375 C158.552,88.375 159,88.767 159,89.25 C159,89.733 158.552,90.125 158,90.125 z" fill="#FFFFFF"/>
  </g>
</svg>
