<?xml version="1.0" encoding="UTF-8"?>
<!DOCTYPE svg PUBLIC "-//W3C//DTD SVG 1.1//EN" "http://www.w3.org/Graphics/SVG/1.1/DTD/svg11.dtd">
<svg version="1.1" xmlns="http://www.w3.org/2000/svg" xmlns:xlink="http://www.w3.org/1999/xlink" x="0" y="0" width="24" height="24" viewBox="0, 0, 48, 48">
  <g id="Layer_1" transform="translate(-325, -59.25)">
    <g>
      <g>
        <path d="M337.405,80.363 C337.405,80.363 341.815,80.466 341.815,80.466 C341.815,80.466 344.994,79.953 344.994,79.953 C344.994,79.953 347.25,80.158 347.25,80.158 C347.25,80.158 348.276,80.773 348.276,80.773 C348.276,80.773 350.122,79.03 350.122,79.03 C350.122,79.03 352.378,78.414 352.378,78.414 C352.378,78.414 355.25,78.722 355.25,78.722 C355.25,78.722 358.942,80.363 358.942,80.363 C358.942,80.363 361.711,83.953 361.711,83.953 C361.711,83.953 363.25,87.029 363.25,87.029 C363.25,87.029 363.352,91.952 363.352,91.952 C363.352,91.952 361.916,94.516 361.916,94.516 C361.916,94.516 358.634,97.285 358.634,97.285 C358.634,97.285 354.122,99.542 354.122,99.542 C354.122,99.542 353.199,98.926 353.199,98.926 C353.199,98.926 353.917,97.183 353.917,97.183 C353.917,97.183 352.071,96.773 352.071,96.773 C352.071,96.773 352.276,94.516 352.276,94.516 C352.276,94.516 353.917,94.516 353.917,94.516 C353.917,94.516 359.147,94.003 359.147,94.003 C359.147,94.003 360.07,89.593 360.07,89.593 C360.07,89.593 358.429,86.722 358.429,86.722 C358.429,86.722 356.583,83.85 356.583,83.85 C356.583,83.85 352.686,83.132 352.686,83.132 C352.686,83.132 350.43,85.183 350.43,85.183 C350.43,85.183 348.789,85.901 348.789,85.901 C348.789,85.901 345.917,85.388 345.917,85.388 C345.917,85.388 342.43,84.363 342.43,84.363 C342.43,84.363 339.353,83.747 339.353,83.747 C339.353,83.747 336.482,83.235 336.482,83.235 C336.482,83.235 335.866,81.799 335.866,81.799 C335.866,81.799 335.969,80.363 335.969,80.363 C335.969,80.363 337.405,80.466 337.405,80.363 z" fill="#000000"/>
        <path d="M337.405,80.363 C337.405,80.363 341.815,80.466 341.815,80.466 C341.815,80.466 344.994,79.953 344.994,79.953 C344.994,79.953 347.25,80.158 347.25,80.158 C347.25,80.158 348.276,80.773 348.276,80.773 C348.276,80.773 350.122,79.03 350.122,79.03 C350.122,79.03 352.378,78.414 352.378,78.414 C352.378,78.414 355.25,78.722 355.25,78.722 C355.25,78.722 358.942,80.363 358.942,80.363 C358.942,80.363 361.711,83.953 361.711,83.953 C361.711,83.953 363.25,87.029 363.25,87.029 C363.25,87.029 363.352,91.952 363.352,91.952 C363.352,91.952 361.916,94.516 361.916,94.516 C361.916,94.516 358.634,97.285 358.634,97.285 C358.634,97.285 354.122,99.542 354.122,99.542 C354.122,99.542 353.199,98.926 353.199,98.926 C353.199,98.926 353.917,97.183 353.917,97.183 C353.917,97.183 352.071,96.773 352.071,96.773 C352.071,96.773 352.276,94.516 352.276,94.516 C352.276,94.516 353.917,94.516 353.917,94.516 C353.917,94.516 359.147,94.003 359.147,94.003 C359.147,94.003 360.07,89.593 360.07,89.593 C360.07,89.593 358.429,86.722 358.429,86.722 C358.429,86.722 356.583,83.85 356.583,83.85 C356.583,83.85 352.686,83.132 352.686,83.132 C352.686,83.132 350.43,85.183 350.43,85.183 C350.43,85.183 348.789,85.901 348.789,85.901 C348.789,85.901 345.917,85.388 345.917,85.388 C345.917,85.388 342.43,84.363 342.43,84.363 C342.43,84.363 339.353,83.747 339.353,83.747 C339.353,83.747 336.482,83.235 336.482,83.235 C336.482,83.235 335.866,81.799 335.866,81.799 C335.866,81.799 335.969,80.363 335.969,80.363 C335.969,80.363 337.405,80.466 337.405,80.363 z" fill-opacity="0" stroke="#000000" stroke-width="1"/>
      </g>
      <path d="M338.84,83.747 C338.84,83.747 336.994,84.671 336.994,84.671 C336.994,84.671 335.866,85.696 335.866,85.696 C335.866,85.696 335.764,86.722 335.764,86.722" fill-opacity="0" stroke="#000000" stroke-width="1"/>
      <path d="M339.969,83.645 C339.969,83.645 338.84,85.183 338.84,85.183 C338.84,85.183 338.122,86.209 338.122,86.209 C338.122,86.209 338.02,87.44 338.02,87.44" fill-opacity="0" stroke="#000000" stroke-width="1"/>
      <path d="M344.584,85.081 C344.584,85.081 344.071,86.004 344.071,86.004 C343.763,86.414 342.02,86.414 342.02,86.414 C342.02,86.414 340.481,86.209 340.481,86.209 C340.481,86.209 339.763,86.927 339.763,86.927 C339.763,86.927 338.943,88.773 338.943,88.773 C338.943,88.773 338.43,93.286 338.43,93.286 C338.43,93.286 340.481,95.132 340.481,95.132" fill-opacity="0" stroke="#000000" stroke-width="1"/>
      <path d="M346.327,85.491 C346.327,85.491 345.814,86.517 345.814,86.517 C345.814,86.517 344.686,87.337 344.686,87.337 C344.686,87.337 343.353,87.85 343.353,87.85 C343.353,87.85 341.097,87.85 341.097,87.85 C341.097,87.85 340.276,89.388 340.276,89.388 C340.276,89.388 340.276,92.362 340.276,92.362 C340.276,92.362 341.815,94.209 341.815,94.209 C341.815,94.209 343.558,95.439 343.558,95.439" fill-opacity="0" stroke="#000000" stroke-width="1"/>
      <path d="M347.763,85.491 C347.763,85.491 346.84,87.645 346.84,87.645 C346.84,87.645 345.814,88.465 345.814,88.465 C345.814,88.465 343.968,89.388 343.968,89.388 C343.968,89.388 342.327,89.491 342.327,89.491 C342.327,89.491 342.02,90.824 342.02,90.824 C342.02,90.824 342.943,92.568 342.943,92.568 C342.943,92.568 344.891,94.106 344.891,94.106 C344.891,94.106 346.84,95.747 346.84,95.747" fill-opacity="0" stroke="#000000" stroke-width="1"/>
      <path d="M348.891,85.799 C348.891,85.799 348.789,87.337 348.789,87.337 C348.789,87.337 347.763,88.773 347.763,88.773 C347.763,88.773 346.84,90.106 346.84,90.106 C346.84,90.106 347.045,91.029 347.045,91.029 C347.045,91.029 348.891,91.85 348.891,91.85 C348.891,91.85 350.635,91.234 350.635,91.234" fill-opacity="0" stroke="#000000" stroke-width="1"/>
      <path d="M354.122,83.235 C354.122,83.235 352.789,85.081 352.789,85.081 C352.789,85.081 352.789,86.311 352.789,86.311" fill-opacity="0" stroke="#000000" stroke-width="1"/>
      <path d="M354.942,83.337 C354.942,83.337 354.429,84.671 354.429,84.671 C354.429,84.671 354.122,86.209 354.122,86.209" fill-opacity="0" stroke="#000000" stroke-width="1"/>
      <path d="M357.506,85.388 C357.506,85.388 356.07,86.824 356.07,86.824 C356.07,86.824 355.25,87.747 355.25,87.747" fill-opacity="0" stroke="#000000" stroke-width="1"/>
      <path d="M358.122,86.311 C358.122,86.311 357.199,87.44 357.199,87.44 C357.199,87.44 355.968,88.568 355.968,88.568" fill-opacity="0" stroke="#000000" stroke-width="1"/>
      <path d="M359.25,87.747 C359.25,87.747 357.301,89.491 357.301,89.491" fill-opacity="0" stroke="#000000" stroke-width="1"/>
      <path d="M359.557,88.67 C359.557,88.67 358.019,90.414 358.019,90.414" fill-opacity="0" stroke="#000000" stroke-width="1"/>
      <path d="M337.302,83.542 C335.944,83.448 333.453,84.049 332.687,82.517 C331.938,81.018 332.842,79.434 333.2,78.004 C334.562,72.555 341.386,70.701 346.225,69.492 C347.637,69.139 349.298,69.732 350.737,69.492 C351.937,69.292 353.598,68.874 354.84,69.184 C356.298,69.549 357.367,70.243 358.737,70.928 C362.618,72.868 363.436,72.838 365.506,76.979" fill-opacity="0" stroke="#000000" stroke-width="1" stroke-linecap="round" stroke-linejoin="round"/>
      <path d="M336.071,83.337 C335.041,82.785 333.982,81.133 334.328,79.748 C335.473,75.165 339.937,73.628 344.174,72.569 C345.713,72.184 347.141,71.402 348.584,70.825 C353.68,68.786 360.142,68.333 364.173,72.363 C365.516,73.707 366.92,74.944 367.455,77.081" fill-opacity="0" stroke="#000000" stroke-width="1" stroke-linecap="round" stroke-linejoin="round"/>
      <g>
        <path d="M337.405,80.363 C337.405,80.363 341.815,80.466 341.815,80.466 C341.815,80.466 344.994,79.953 344.994,79.953 C344.994,79.953 347.25,80.158 347.25,80.158 C347.25,80.158 348.276,80.773 348.276,80.773 C348.276,80.773 350.122,79.03 350.122,79.03 C350.122,79.03 352.378,78.414 352.378,78.414 C352.378,78.414 355.25,78.722 355.25,78.722 C355.25,78.722 358.942,80.363 358.942,80.363 C358.942,80.363 361.711,83.953 361.711,83.953 C361.711,83.953 363.25,87.029 363.25,87.029 C363.25,87.029 363.352,91.952 363.352,91.952 C363.352,91.952 361.916,94.516 361.916,94.516 C361.916,94.516 358.634,97.285 358.634,97.285 C358.634,97.285 354.122,99.542 354.122,99.542 C354.122,99.542 353.199,98.926 353.199,98.926 C353.199,98.926 353.917,97.183 353.917,97.183 C353.917,97.183 352.071,96.773 352.071,96.773 C352.071,96.773 352.276,94.516 352.276,94.516 C352.276,94.516 353.917,94.516 353.917,94.516 C353.917,94.516 359.147,94.003 359.147,94.003 C359.147,94.003 360.07,89.593 360.07,89.593 C360.07,89.593 358.429,86.722 358.429,86.722 C358.429,86.722 356.583,83.85 356.583,83.85 C356.583,83.85 352.686,83.132 352.686,83.132 C352.686,83.132 350.43,85.183 350.43,85.183 C350.43,85.183 348.789,85.901 348.789,85.901 C348.789,85.901 345.917,85.388 345.917,85.388 C345.917,85.388 342.43,84.363 342.43,84.363 C342.43,84.363 339.353,83.747 339.353,83.747 C339.353,83.747 336.482,83.235 336.482,83.235 C336.482,83.235 335.866,81.799 335.866,81.799 C335.866,81.799 335.969,80.363 335.969,80.363 C335.969,80.363 337.405,80.466 337.405,80.363 z" fill="#000000"/>
        <path d="M337.405,80.363 C337.405,80.363 341.815,80.466 341.815,80.466 C341.815,80.466 344.994,79.953 344.994,79.953 C344.994,79.953 347.25,80.158 347.25,80.158 C347.25,80.158 348.276,80.773 348.276,80.773 C348.276,80.773 350.122,79.03 350.122,79.03 C350.122,79.03 352.378,78.414 352.378,78.414 C352.378,78.414 355.25,78.722 355.25,78.722 C355.25,78.722 358.942,80.363 358.942,80.363 C358.942,80.363 361.711,83.953 361.711,83.953 C361.711,83.953 363.25,87.029 363.25,87.029 C363.25,87.029 363.352,91.952 363.352,91.952 C363.352,91.952 361.916,94.516 361.916,94.516 C361.916,94.516 358.634,97.285 358.634,97.285 C358.634,97.285 354.122,99.542 354.122,99.542 C354.122,99.542 353.199,98.926 353.199,98.926 C353.199,98.926 353.917,97.183 353.917,97.183 C353.917,97.183 352.071,96.773 352.071,96.773 C352.071,96.773 352.276,94.516 352.276,94.516 C352.276,94.516 353.917,94.516 353.917,94.516 C353.917,94.516 359.147,94.003 359.147,94.003 C359.147,94.003 360.07,89.593 360.07,89.593 C360.07,89.593 358.429,86.722 358.429,86.722 C358.429,86.722 356.583,83.85 356.583,83.85 C356.583,83.85 352.686,83.132 352.686,83.132 C352.686,83.132 350.43,85.183 350.43,85.183 C350.43,85.183 348.789,85.901 348.789,85.901 C348.789,85.901 345.917,85.388 345.917,85.388 C345.917,85.388 342.43,84.363 342.43,84.363 C342.43,84.363 339.353,83.747 339.353,83.747 C339.353,83.747 336.482,83.235 336.482,83.235 C336.482,83.235 335.866,81.799 335.866,81.799 C335.866,81.799 335.969,80.363 335.969,80.363 C335.969,80.363 337.405,80.466 337.405,80.363 z" fill-opacity="0" stroke="#000000" stroke-width="1"/>
      </g>
      <path d="M338.84,83.747 C338.84,83.747 336.994,84.671 336.994,84.671 C336.994,84.671 335.866,85.696 335.866,85.696 C335.866,85.696 335.764,86.722 335.764,86.722" fill-opacity="0" stroke="#000000" stroke-width="1"/>
      <path d="M339.969,83.645 C339.969,83.645 338.84,85.183 338.84,85.183 C338.84,85.183 338.122,86.209 338.122,86.209 C338.122,86.209 338.02,87.44 338.02,87.44" fill-opacity="0" stroke="#000000" stroke-width="1"/>
      <path d="M344.584,85.081 C344.584,85.081 344.071,86.004 344.071,86.004 C343.763,86.414 342.02,86.414 342.02,86.414 C342.02,86.414 340.481,86.209 340.481,86.209 C340.481,86.209 339.763,86.927 339.763,86.927 C339.763,86.927 338.943,88.773 338.943,88.773 C338.943,88.773 338.43,93.286 338.43,93.286 C338.43,93.286 340.481,95.132 340.481,95.132" fill-opacity="0" stroke="#000000" stroke-width="1"/>
      <path d="M346.327,85.491 C346.327,85.491 345.814,86.517 345.814,86.517 C345.814,86.517 344.686,87.337 344.686,87.337 C344.686,87.337 343.353,87.85 343.353,87.85 C343.353,87.85 341.097,87.85 341.097,87.85 C341.097,87.85 340.276,89.388 340.276,89.388 C340.276,89.388 340.276,92.362 340.276,92.362 C340.276,92.362 341.815,94.209 341.815,94.209 C341.815,94.209 343.558,95.439 343.558,95.439" fill-opacity="0" stroke="#000000" stroke-width="1"/>
      <path d="M347.763,85.491 C347.763,85.491 346.84,87.645 346.84,87.645 C346.84,87.645 345.814,88.465 345.814,88.465 C345.814,88.465 343.968,89.388 343.968,89.388 C343.968,89.388 342.327,89.491 342.327,89.491 C342.327,89.491 342.02,90.824 342.02,90.824 C342.02,90.824 342.943,92.568 342.943,92.568 C342.943,92.568 344.891,94.106 344.891,94.106 C344.891,94.106 346.84,95.747 346.84,95.747" fill-opacity="0" stroke="#000000" stroke-width="1"/>
      <path d="M348.891,85.799 C348.891,85.799 348.789,87.337 348.789,87.337 C348.789,87.337 347.763,88.773 347.763,88.773 C347.763,88.773 346.84,90.106 346.84,90.106 C346.84,90.106 347.045,91.029 347.045,91.029 C347.045,91.029 348.891,91.85 348.891,91.85 C348.891,91.85 350.635,91.234 350.635,91.234" fill-opacity="0" stroke="#000000" stroke-width="1"/>
      <path d="M354.122,83.235 C354.122,83.235 352.789,85.081 352.789,85.081 C352.789,85.081 352.789,86.311 352.789,86.311" fill-opacity="0" stroke="#000000" stroke-width="1"/>
      <path d="M354.942,83.337 C354.942,83.337 354.429,84.671 354.429,84.671 C354.429,84.671 354.122,86.209 354.122,86.209" fill-opacity="0" stroke="#000000" stroke-width="1"/>
      <path d="M357.506,85.388 C357.506,85.388 356.07,86.824 356.07,86.824 C356.07,86.824 355.25,87.747 355.25,87.747" fill-opacity="0" stroke="#000000" stroke-width="1"/>
      <path d="M358.122,86.311 C358.122,86.311 357.199,87.44 357.199,87.44 C357.199,87.44 355.968,88.568 355.968,88.568" fill-opacity="0" stroke="#000000" stroke-width="1"/>
      <path d="M359.25,87.747 C359.25,87.747 357.301,89.491 357.301,89.491" fill-opacity="0" stroke="#000000" stroke-width="1"/>
      <path d="M359.557,88.67 C359.557,88.67 358.019,90.414 358.019,90.414" fill-opacity="0" stroke="#000000" stroke-width="1"/>
      <path d="M337.302,83.542 C335.944,83.448 333.453,84.049 332.687,82.517 C331.938,81.018 332.842,79.434 333.2,78.004 C334.562,72.555 341.386,70.701 346.225,69.492 C347.637,69.139 349.298,69.732 350.737,69.492 C351.937,69.292 353.598,68.874 354.84,69.184 C356.298,69.549 357.367,70.243 358.737,70.928 C362.618,72.868 363.436,72.838 365.506,76.979" fill-opacity="0" stroke="#000000" stroke-width="1" stroke-linecap="round" stroke-linejoin="round"/>
      <path d="M336.071,83.337 C335.041,82.785 333.982,81.133 334.328,79.748 C335.473,75.165 339.937,73.628 344.174,72.569 C345.713,72.184 347.141,71.402 348.584,70.825 C353.68,68.786 360.142,68.333 364.173,72.363 C365.516,73.707 366.92,74.944 367.455,77.081" fill-opacity="0" stroke="#000000" stroke-width="1" stroke-linecap="round" stroke-linejoin="round"/>
    </g>
  </g>
</svg>
