<?xml version="1.0" encoding="UTF-8"?>
<!DOCTYPE svg PUBLIC "-//W3C//DTD SVG 1.1//EN" "http://www.w3.org/Graphics/SVG/1.1/DTD/svg11.dtd">
<svg version="1.1" xmlns="http://www.w3.org/2000/svg" xmlns:xlink="http://www.w3.org/1999/xlink" x="0" y="0" width="32" height="32" viewBox="0, 0, 32, 32">
  <g id="Layer_1" transform="translate(-107, -132.438)">
    <g>
      <g>
        <path d="M108.5,133.938 L138.5,133.938 L138.5,163.938 L108.5,163.938 L108.5,133.938 z" fill="#FFFFFF"/>
        <path d="M108.5,133.938 L138.5,133.938 L138.5,163.938 L108.5,163.938 L108.5,133.938 z" fill-opacity="0" stroke="#000000" stroke-width="1"/>
      </g>
      <text transform="matrix(1, 0, 0, 1, 118.98, 141.938)">
        <tspan x="-8.98" y="3" font-family="HelveticaNeue" font-size="10" fill="#000000">FTS</tspan>
      </text>
      <path d="M130.438,138.438 L136.312,138.438" fill-opacity="0" stroke="#D5D5D5" stroke-width="1"/>
      <path d="M130.438,141.562 L136.312,141.562" fill-opacity="0" stroke="#D5D5D5" stroke-width="1"/>
      <path d="M130.438,144.688 L136.312,144.688" fill-opacity="0" stroke="#D5D5D5" stroke-width="1"/>
      <path d="M111.25,147.812 L136.313,147.812" fill-opacity="0" stroke="#D5D5D5" stroke-width="1"/>
      <path d="M111.25,150.938 L136.313,150.938" fill-opacity="0" stroke="#D5D5D5" stroke-width="1"/>
      <path d="M111.25,154.062 L136.312,154.062" fill-opacity="0" stroke="#D5D5D5" stroke-width="1"/>
      <path d="M111.25,157.188 L136.312,157.188" fill-opacity="0" stroke="#000000" stroke-width="1"/>
      <path d="M111.25,160.312 L136.312,160.312" fill-opacity="0" stroke="#000000" stroke-width="1"/>
    </g>
  </g>
</svg>
