<?xml version="1.0" encoding="UTF-8"?>
<!DOCTYPE svg PUBLIC "-//W3C//DTD SVG 1.1//EN" "http://www.w3.org/Graphics/SVG/1.1/DTD/svg11.dtd">
<svg version="1.1" xmlns="http://www.w3.org/2000/svg" xmlns:xlink="http://www.w3.org/1999/xlink" x="0" y="0" width="39.923" height="24" viewBox="0, 0, 39.923, 24">
  <defs>
    <clipPath id="Clip_1">
      <path d="M156.486,458.25 L196.909,458.25 L196.909,482.75 L156.486,482.75 z M168.423,460.25 L168.173,460.25 L168.173,460.289 C162.776,460.817 158.651,465.016 158.486,470.496 C158.983,475.79 162.554,480.439 168.173,480.715 L168.173,480.75 L185.173,480.75 L185.173,480.713 C190.586,480.186 194.746,476.013 194.909,470.504 C194.409,465.188 190.812,460.545 185.173,460.281 L185.173,460.25 L184.661,460.25 L184.671,460.25 L184.644,460.25 L168.423,460.25 z"/>
    </clipPath>
    <filter id="Shadow_2">
      <feGaussianBlur in="SourceAlpha" stdDeviation="0.5"/>
      <feOffset dx="0" dy="0" result="offsetblur"/>
      <feFlood flood-color="#B3B3B3"/>
      <feComposite in2="offsetblur" operator="in"/>
    </filter>
    <clipPath id="Clip_3">
      <path d="M173.361,459.25 L195.861,459.25 L195.861,481.75 L173.361,481.75 z M184.611,461.25 C179.502,461.25 175.361,465.391 175.361,470.5 C175.361,475.609 179.502,479.75 184.611,479.75 C189.719,479.75 193.861,475.609 193.861,470.5 C193.861,465.391 189.719,461.25 184.611,461.25 z"/>
    </clipPath>
    <filter id="Shadow_4">
      <feGaussianBlur in="SourceAlpha" stdDeviation="0.5"/>
      <feOffset dx="0" dy="0" result="offsetblur"/>
      <feFlood flood-color="#B3B3B3"/>
      <feComposite in2="offsetblur" operator="in"/>
    </filter>
  </defs>
  <g id="Layer_1" transform="translate(-156.236, -458)">
    <g>
      <g>
        <path d="M168.423,480.5 L168.423,480.484 C162.892,480.331 159.004,475.822 158.736,470.5 C158.828,465.081 163.029,460.788 168.423,460.516 L168.423,460.5 L184.657,460.5 L184.659,460.5 L184.661,460.5 L184.923,460.5 L184.923,460.513 C190.474,460.656 194.389,465.149 194.659,470.5 C194.567,475.956 190.336,480.213 184.923,480.487 L184.923,480.5 L168.423,480.5 z" fill="#D5D5D5"/>
        <path d="M168.423,480.5 L168.423,480.484 C162.892,480.331 159.004,475.822 158.736,470.5 C158.828,465.081 163.029,460.788 168.423,460.516 L168.423,460.5 L184.657,460.5 L184.659,460.5 L184.661,460.5 L184.923,460.5 L184.923,460.513 C190.474,460.656 194.389,465.149 194.659,470.5 C194.567,475.956 190.336,480.213 184.923,480.487 L184.923,480.5 L168.423,480.5 z" fill-opacity="0" stroke="#000000" stroke-width="0.5"/>
        <g>
          <path d="M168.423,460.25 L184.644,460.25 L184.671,460.25 L184.661,460.25 L185.173,460.25 L185.173,460.281 C190.812,460.545 194.409,465.188 194.909,470.504 C194.746,476.013 190.586,480.186 185.173,480.713 L185.173,480.75 L168.173,480.75 L168.173,480.715 C162.554,480.439 158.983,475.79 158.486,470.496 C158.651,465.016 162.776,460.817 168.173,460.289 L168.173,460.25 L168.423,460.25 z" fill="rgba(0,0,0,0.25)" clip-path="url(#Clip_1)" filter="url(#Shadow_2)"/>
          <path d="M168.423,460.5 L184.644,460.5 L184.672,460.5 C185.002,460.499 185.006,460.007 184.676,460 L184.666,460 L184.661,460.25 L184.661,460.5 L185.173,460.5 L185.173,460.25 L184.923,460.25 L184.923,460.281 C184.923,460.415 185.028,460.525 185.162,460.531 C190.371,460.775 194.138,464.975 194.66,470.528 C194.502,475.81 190.509,479.942 185.149,480.464 C185.021,480.477 184.923,480.584 184.923,480.713 L184.923,480.75 L185.173,480.75 L185.173,480.5 L168.173,480.5 L168.173,480.75 L168.423,480.75 L168.423,480.715 C168.423,480.582 168.319,480.472 168.185,480.466 C163,480.21 159.254,476.01 158.735,470.472 C158.895,465.204 162.87,461.059 168.198,460.538 C168.326,460.526 168.423,460.418 168.423,460.289 L168.423,460.25 L168.173,460.25 L168.173,460.5 L168.423,460.5 z M168.423,460 L168.173,460 C168.035,460 167.923,460.112 167.923,460.25 L167.923,460.289 L168.173,460.289 L168.149,460.04 C162.573,460.585 158.403,464.935 158.236,470.488 C158.778,476.29 162.708,480.697 168.161,480.965 L168.173,480.715 L167.923,480.715 L167.923,480.75 C167.923,480.888 168.035,481 168.173,481 L185.173,481 C185.311,481 185.423,480.888 185.423,480.75 L185.423,480.713 L185.173,480.713 L185.197,480.962 C190.804,480.416 194.994,476.08 195.159,470.512 C194.614,464.695 190.661,460.288 185.185,460.032 L185.173,460.281 L185.423,460.281 L185.423,460.25 C185.423,460.112 185.311,460 185.173,460 L184.661,460 C184.331,460 184.326,460.494 184.656,460.5 L184.667,460.5 L184.671,460.25 L184.67,460 L184.643,460 L168.423,460 z" fill="rgba(0,0,0,0.25)" clip-path="url(#Clip_1)" filter="url(#Shadow_2)"/>
        </g>
      </g>
      <g>
        <path d="M184.611,479.5 C179.64,479.5 175.611,475.471 175.611,470.5 C175.611,465.529 179.64,461.5 184.611,461.5 C189.581,461.5 193.611,465.529 193.611,470.5 C193.611,475.471 189.581,479.5 184.611,479.5 z" fill="#FFFFFF"/>
        <path d="M184.611,479.5 C179.64,479.5 175.611,475.471 175.611,470.5 C175.611,465.529 179.64,461.5 184.611,461.5 C189.581,461.5 193.611,465.529 193.611,470.5 C193.611,475.471 189.581,479.5 184.611,479.5 z" fill-opacity="0" stroke="#000000" stroke-width="0.5"/>
        <g>
          <path d="M184.611,461.25 C189.719,461.25 193.861,465.391 193.861,470.5 C193.861,475.609 189.719,479.75 184.611,479.75 C179.502,479.75 175.361,475.609 175.361,470.5 C175.361,465.391 179.502,461.25 184.611,461.25 z" fill="rgba(0,0,0,0.25)" clip-path="url(#Clip_3)" filter="url(#Shadow_4)"/>
          <path d="M184.611,461.5 C189.581,461.5 193.611,465.529 193.611,470.5 C193.611,475.471 189.581,479.5 184.611,479.5 C179.64,479.5 175.611,475.471 175.611,470.5 C175.611,465.529 179.64,461.5 184.611,461.5 z M184.611,461 C179.364,461 175.111,465.253 175.111,470.5 C175.111,475.747 179.364,480 184.611,480 C189.857,480 194.111,475.747 194.111,470.5 C194.111,465.253 189.857,461 184.611,461 z" fill="rgba(0,0,0,0.25)" clip-path="url(#Clip_3)" filter="url(#Shadow_4)"/>
        </g>
      </g>
      <g>
        <g>
          <g>
            <path d="M186.661,470.698 L184.611,474.25 L182.56,470.698 z" fill="#000000"/>
            <path d="M186.661,470.698 L184.611,474.25 L182.56,470.698 z" fill-opacity="0" stroke="#000000" stroke-width="1"/>
          </g>
          <g>
            <path d="M184.611,466.75 C186.001,466.75 187.128,467.877 187.128,469.267 C187.128,470.657 186.001,471.784 184.611,471.784 C183.22,471.784 182.093,470.657 182.093,469.267 C182.093,467.877 183.22,466.75 184.611,466.75 z" fill="#000000"/>
            <path d="M184.611,466.75 C186.001,466.75 187.128,467.877 187.128,469.267 C187.128,470.657 186.001,471.784 184.611,471.784 C183.22,471.784 182.093,470.657 182.093,469.267 C182.093,467.877 183.22,466.75 184.611,466.75 z" fill-opacity="0" stroke="#000000" stroke-width="1"/>
          </g>
        </g>
        <g>
          <path d="M184.611,470.802 C183.716,470.802 182.99,470.076 182.99,469.181 C182.99,468.286 183.716,467.56 184.611,467.56 C185.506,467.56 186.231,468.286 186.231,469.181 C186.231,470.076 185.506,470.802 184.611,470.802 z" fill="#FFFFFF"/>
          <path d="M184.611,470.802 C183.716,470.802 182.99,470.076 182.99,469.181 C182.99,468.286 183.716,467.56 184.611,467.56 C185.506,467.56 186.231,468.286 186.231,469.181 C186.231,470.076 185.506,470.802 184.611,470.802 z" fill-opacity="0" stroke="#000000" stroke-width="1"/>
        </g>
      </g>
      <g>
        <g>
          <path d="M164.633,466.675 L172.633,466.675 L172.633,474.325 L164.633,474.325 L164.633,466.675 z" fill="#FFFFFF"/>
          <path d="M164.633,466.675 L172.633,466.675 L172.633,474.325 L164.633,474.325 L164.633,466.675 z" fill-opacity="0" stroke="#AAAAAA" stroke-width="1"/>
        </g>
        <path d="M166.559,469.424 C166.214,469.424 165.934,468.996 165.934,468.468 C165.934,467.94 166.214,467.512 166.559,467.512 C166.904,467.512 167.184,467.94 167.184,468.468 C167.184,468.996 166.904,469.424 166.559,469.424 z" fill-opacity="0" stroke="#AAAAAA" stroke-width="1"/>
        <path d="M164.633,472.472 L165.719,470.41 L166.969,471.904" fill-opacity="0" stroke="#AAAAAA" stroke-width="1"/>
        <path d="M166.071,474.325 L167.907,469.424 L171.227,474.325" fill-opacity="0" stroke="#AAAAAA" stroke-width="1"/>
        <path d="M169.918,472.293 L171.403,469.663 L172.633,471.367" fill-opacity="0" stroke="#AAAAAA" stroke-width="1"/>
      </g>
    </g>
  </g>
</svg>
