<?xml version="1.0" standalone="no"?>
<!DOCTYPE svg PUBLIC "-//W3C//DTD SVG 20010904//EN"
 "http://www.w3.org/TR/2001/REC-SVG-20010904/DTD/svg10.dtd">
<svg version="1.0" xmlns="http://www.w3.org/2000/svg"
 width="408.000000pt" height="408.000000pt" viewBox="0 0 408.000000 408.000000"
 preserveAspectRatio="xMidYMid meet">
<metadata>
Created by potrace 1.14, written by Peter Selinger 2001-2017
</metadata>
<g transform="translate(0.000000,408.000000) scale(0.100000,-0.100000)"
fill="#000000" stroke="none">
<path d="M0 2035 l0 -2025 1291 0 c1111 0 1290 2 1280 14 -8 9 -8 16 -2 20 5
4 12 -3 16 -14 5 -15 15 -20 45 -20 37 0 38 1 35 35 -2 19 0 37 5 40 10 6 40
-39 40 -59 0 -13 36 -15 265 -15 300 0 287 -5 209 81 -23 26 -44 59 -46 73 -6
30 8 34 17 5 7 -22 30 -27 41 -8 4 6 0 16 -9 23 -10 7 -17 17 -17 24 0 6 -4
11 -10 11 -5 0 -12 11 -16 24 -3 13 -14 26 -25 29 -10 3 -19 12 -19 21 0 9 -4
16 -10 16 -5 0 -10 -7 -10 -15 0 -12 -4 -13 -19 -6 -14 8 -22 7 -31 -4 -11
-13 -16 -12 -41 6 -29 20 -29 20 -29 0 0 -36 -10 -52 -25 -38 -7 7 -11 15 -9
18 2 4 -5 18 -17 30 -16 19 -19 20 -15 6 3 -11 9 -30 12 -44 6 -23 5 -24 -15
-11 -11 7 -21 16 -21 20 0 4 -6 5 -14 2 -7 -3 -27 7 -45 21 -17 15 -31 21 -31
15 0 -7 -6 -10 -14 -7 -10 4 -12 0 -9 -14 6 -21 -7 -25 -25 -7 -9 9 -12 8 -12
-6 0 -14 -5 -16 -29 -11 -17 3 -32 2 -36 -4 -3 -6 -17 -11 -31 -11 -37 0 -76
-43 -68 -76 6 -21 3 -25 -12 -23 -11 2 -30 -4 -43 -13 -17 -12 -28 -14 -37 -7
-8 7 -14 6 -19 -2 -6 -8 -10 -7 -16 2 -7 11 -9 9 -9 -6 0 -14 -3 -16 -11 -8
-8 8 -6 18 6 37 21 32 10 34 -17 4 l-19 -23 5 32 c4 26 1 33 -14 38 -11 4 -20
13 -20 20 0 8 -8 19 -17 24 -10 6 -13 11 -8 11 19 0 9 109 -12 133 -19 21 -21
63 -2 52 15 -10 10 90 -7 123 -8 18 -16 32 -17 32 -1 0 -2 -29 -2 -65 0 -48
-4 -69 -17 -82 -17 -16 -18 -15 -18 21 0 30 -4 39 -20 43 -11 3 -23 16 -26 29
-3 13 -11 24 -16 24 -16 0 -5 -126 14 -147 8 -10 21 -43 28 -73 16 -67 36
-100 61 -100 12 0 16 -5 13 -15 -4 -9 -1 -15 7 -15 12 0 -7 -15 -49 -36 -16
-8 -52 24 -52 46 0 10 -7 23 -15 30 -8 7 -15 20 -15 29 0 9 -7 29 -15 45 -8
15 -15 34 -15 41 0 7 -9 24 -21 39 -11 14 -17 30 -14 36 3 5 3 10 -2 10 -9 0
-33 70 -33 95 0 8 7 15 15 15 12 0 11 6 -5 35 -24 43 -25 52 -5 35 23 -19 28
-7 27 57 0 32 4 61 10 64 16 10 -22 47 -43 42 -13 -4 -19 0 -19 11 0 19 -11
21 -29 4 -10 -11 -15 -9 -26 6 -8 10 -12 22 -10 27 3 4 1 11 -5 14 -15 9 -37
-11 -45 -42 -3 -14 -20 -46 -36 -70 -36 -52 -35 -77 4 -81 22 -3 27 -7 22 -22
-5 -17 -3 -18 23 -8 16 6 38 8 48 4 17 -7 18 -8 2 -20 -12 -9 -14 -16 -6 -30
9 -15 7 -17 -11 -11 -12 4 -21 2 -21 -4 0 -6 5 -11 11 -11 8 0 8 -5 -1 -15 -7
-8 -9 -23 -5 -32 12 -29 15 -113 5 -113 -6 0 -10 -9 -10 -20 0 -12 -5 -17 -14
-14 -9 3 -16 -5 -20 -23 -4 -15 -19 -45 -33 -65 -14 -20 -22 -41 -19 -47 4 -5
2 -12 -4 -16 -5 -3 -10 3 -10 13 0 11 -7 23 -16 26 -8 3 -13 2 -10 -3 7 -11
-24 -91 -36 -91 -13 0 -10 18 5 23 7 3 4 6 -7 6 -12 1 -16 6 -12 16 3 9 0 18
-8 21 -9 4 -12 20 -9 59 2 31 -1 56 -7 60 -8 5 -8 11 1 21 6 7 8 25 5 38 -4
16 0 30 9 40 18 17 20 36 4 36 -15 0 -6 59 15 100 8 16 17 43 21 60 4 16 12
33 18 37 32 21 52 98 22 87 -23 -9 -19 32 5 56 11 11 29 37 40 57 11 21 23 38
28 38 6 -1 31 60 32 78 0 4 -9 2 -20 -5 -29 -18 -31 -8 -11 52 33 94 54 180
48 186 -9 9 -62 -112 -77 -176 -7 -30 -17 -72 -22 -93 -5 -21 -13 -35 -18 -32
-4 3 -6 -3 -4 -13 3 -9 -2 -33 -10 -52 -9 -21 -15 -28 -16 -17 0 41 -36 -3
-69 -86 -6 -16 -20 -31 -31 -34 -10 -3 -20 -15 -22 -26 -4 -25 -38 -37 -38
-13 0 9 6 16 13 16 16 0 39 67 26 76 -5 3 -9 -2 -9 -10 0 -9 -6 -16 -14 -16
-7 0 -25 -9 -39 -20 -32 -25 -35 -25 -30 4 4 18 -1 25 -19 31 -20 6 -20 8 -5
12 10 3 22 16 28 29 5 14 13 22 19 19 5 -3 10 -1 10 4 0 6 -4 11 -10 11 -5 0
-10 5 -10 11 0 6 6 9 14 6 17 -7 37 34 30 60 -3 11 2 25 10 32 9 8 16 19 16
26 0 7 7 18 16 26 8 7 13 21 11 31 -3 10 -1 16 3 13 5 -3 16 -2 26 2 15 6 15
7 -5 15 -19 6 -22 13 -17 33 5 18 2 27 -9 31 -10 4 -15 20 -15 53 0 26 -5 52
-11 58 -8 8 -8 13 0 17 21 14 30 -5 25 -52 -5 -44 -4 -46 10 -28 9 11 16 24
16 29 0 14 62 100 89 123 30 26 41 23 41 -11 0 -28 15 -41 24 -20 5 15 27 21
25 8 -5 -33 4 -34 27 -5 25 31 74 45 74 21 0 -7 11 -9 30 -6 17 4 30 2 30 -3
0 -5 6 -7 13 -4 9 3 18 -7 24 -28 8 -25 11 -28 12 -11 2 33 17 36 31 5 l13
-27 7 25 c7 23 8 24 15 6 8 -19 9 -19 16 0 6 16 12 9 33 -36 l27 -55 -5 43
c-3 30 -1 40 7 35 7 -4 15 -8 20 -8 9 0 47 -61 47 -75 0 -17 63 -151 68 -145
3 2 -7 33 -21 67 -15 35 -31 81 -36 103 -5 22 -12 49 -16 60 -5 11 6 2 23 -20
17 -22 41 -49 52 -60 11 -12 20 -31 20 -43 0 -13 7 -25 15 -28 8 -4 15 -10 15
-14 0 -8 88 -100 95 -100 10 0 5 26 -10 54 -17 33 -19 39 -6 31 5 -3 12 -1 15
4 3 5 -3 11 -14 14 -11 3 -20 11 -20 19 0 10 2 10 10 -2 15 -24 24 -2 11 26
-10 23 -9 26 4 21 20 -8 19 3 -2 33 -16 22 -16 23 0 17 42 -16 66 32 27 53
-11 6 -19 7 -18 3 2 -4 -1 -10 -6 -13 -5 -3 -9 12 -10 32 l-1 37 33 -31 c38
-38 41 -32 9 20 -25 39 -39 72 -32 72 2 0 11 -12 19 -27 24 -47 134 -190 150
-196 15 -6 15 -4 1 21 -21 36 -61 92 -88 121 l-22 23 25 -6 c14 -4 20 -4 14 1
-6 4 -14 17 -18 28 -5 14 -9 16 -15 7 -6 -10 -15 -5 -35 18 -34 42 -33 64 2
25 15 -16 33 -30 40 -31 6 -1 18 -2 25 -2 16 -2 40 -49 32 -63 -4 -5 1 -9 9
-9 9 0 16 -6 16 -13 0 -7 21 -32 46 -55 25 -22 43 -46 39 -51 -3 -6 1 -11 10
-11 11 0 15 -5 11 -15 -3 -8 0 -15 7 -15 7 0 18 -9 25 -21 7 -12 16 -19 18
-16 7 6 -15 44 -38 69 -10 10 -18 24 -18 31 0 7 -9 29 -20 50 -11 20 -18 37
-16 37 3 0 21 -16 42 -35 20 -19 39 -33 42 -30 3 2 -10 18 -27 34 -19 18 -30
35 -25 42 4 7 3 9 -4 5 -6 -3 -14 -1 -17 5 -4 5 -14 8 -23 4 -9 -3 -13 -3 -10
1 4 3 -5 22 -19 40 -18 24 -21 33 -9 28 9 -3 16 -10 16 -15 0 -5 4 -9 10 -9
14 0 0 33 -23 51 -19 15 -19 18 -5 33 15 14 17 13 27 -14 6 -19 17 -30 29 -30
11 0 43 -21 71 -46 57 -52 71 -37 15 17 -20 18 -40 42 -46 52 -8 16 -7 17 11
8 11 -6 22 -11 26 -11 8 0 -2 50 -14 64 -6 7 -8 16 -4 19 11 12 23 8 23 -8 0
-8 6 -15 14 -15 22 0 28 -31 9 -46 -16 -11 -16 -14 -2 -26 8 -7 27 -29 42 -49
14 -20 36 -39 49 -42 23 -6 16 2 -54 71 -19 18 -24 42 -9 42 5 0 12 -6 14 -12
3 -7 6 -3 6 9 1 12 7 24 14 27 9 3 8 8 -3 18 -23 21 -42 58 -29 58 6 0 17 -7
25 -15 9 -8 22 -15 30 -15 21 0 17 21 -6 27 -11 3 -20 9 -20 14 0 4 -12 20
-27 34 -15 14 -25 25 -21 25 12 0 62 -23 78 -36 8 -6 31 -15 50 -19 23 -4 6 7
-52 36 -49 23 -88 47 -88 52 0 5 9 7 20 3 66 -20 63 -20 51 1 -5 11 -8 23 -4
26 3 4 -6 12 -21 18 -14 7 -26 19 -26 26 0 10 -7 12 -22 8 -18 -5 -20 -4 -8 4
13 9 13 11 -2 11 -10 0 -18 4 -18 9 0 5 28 3 63 -4 103 -22 122 -22 119 -3 -2
12 3 15 17 11 22 -6 39 16 22 27 -15 9 123 4 164 -5 l30 -8 -24 22 c-21 19
-65 27 -109 22 -10 -2 -10 2 0 18 9 15 19 18 40 14 17 -3 28 -1 28 5 0 6 -10
13 -22 15 -13 3 -5 5 17 5 65 -1 67 0 55 22 -6 11 -21 20 -35 20 -24 0 -42 16
-30 28 3 3 10 1 14 -6 6 -10 11 -10 21 3 7 8 28 15 46 15 39 0 43 11 12 33
-19 13 -20 16 -5 16 9 1 17 -3 17 -8 0 -5 9 -7 20 -4 13 4 20 14 20 30 0 21
-3 23 -14 14 -11 -9 -20 -9 -35 -2 -25 14 -41 14 -21 1 14 -9 -10 -14 -72 -13
-10 0 -18 -6 -18 -14 0 -7 -4 -13 -10 -13 -5 0 -10 6 -10 14 0 7 -21 20 -47
28 -42 14 -48 19 -49 46 -2 46 10 60 38 43 16 -10 23 -10 26 -2 5 16 32 13 32
-4 0 -8 -8 -15 -17 -15 -13 0 -15 -2 -5 -8 7 -5 10 -15 7 -24 -7 -18 27 -25
70 -14 11 2 23 5 28 5 4 1 7 5 7 11 0 12 -50 10 -67 -2 -6 -5 -14 -5 -17 1 -4
5 9 17 29 27 42 19 53 34 28 34 -32 0 8 20 42 20 17 1 44 7 60 15 28 12 28 13
7 14 -23 1 -64 31 -43 31 6 0 11 4 11 8 0 12 -91 9 -110 -3 -19 -12 -90 -14
-90 -3 0 25 115 98 154 98 11 0 21 5 111 55 34 18 41 25 23 21 -18 -4 -28 -2
-28 4 0 7 -9 9 -22 5 -18 -5 -20 -4 -8 4 8 6 24 8 36 5 14 -4 23 0 27 10 9 23
64 47 110 48 23 1 34 3 25 6 -21 4 -23 18 -6 28 6 4 48 8 92 8 74 1 81 3 81
21 0 15 -7 20 -35 21 -19 1 -43 2 -52 3 -25 2 -11 31 16 31 11 0 28 5 36 11
11 8 2 9 -35 5 -27 -4 -54 -11 -59 -16 -6 -6 -19 -10 -31 -10 -12 0 -26 -5
-32 -11 -15 -15 -88 -24 -79 -11 3 6 20 13 36 17 17 4 30 11 30 16 0 6 9 7 22
4 16 -6 20 -4 15 8 -7 19 9 33 48 42 29 7 29 7 10 -8 -20 -16 -20 -16 3 -17
12 0 22 6 22 14 0 10 7 12 22 8 21 -5 21 -6 2 -13 -19 -7 -19 -8 1 -8 35 -1
47 13 26 31 -26 22 -61 32 -61 18 0 -6 -6 -10 -13 -7 -6 2 -27 -1 -44 -9 -18
-7 -35 -9 -38 -4 -3 5 4 10 15 12 20 3 19 5 -9 35 -19 21 -35 31 -45 27 -12
-5 -16 0 -16 18 0 13 -6 30 -12 36 -10 10 -10 15 2 22 10 7 11 10 3 10 -7 0
-13 9 -13 19 0 11 -4 22 -9 25 -5 4 -8 12 -7 19 3 17 36 69 54 84 21 17 20 73
-1 85 -10 5 -17 15 -17 21 0 7 -10 13 -21 14 -29 3 -31 7 -18 37 7 15 18 25
26 22 7 -3 13 1 13 10 0 8 7 17 15 20 8 4 15 12 15 19 0 7 6 15 13 18 16 6 21
67 6 67 -5 0 -9 -4 -9 -9 0 -14 -66 -82 -73 -75 -3 4 -14 4 -23 0 -13 -5 -14
-9 -4 -20 9 -12 7 -17 -10 -26 -19 -10 -20 -9 -16 15 4 20 0 28 -16 34 -20 7
-19 8 5 24 14 9 28 26 32 37 3 11 12 20 20 20 12 0 29 34 26 53 -1 4 11 24 25
43 15 19 24 37 20 41 -8 9 -68 -49 -116 -112 -21 -27 -57 -70 -79 -94 -43 -46
-45 -67 -5 -57 29 8 31 -5 4 -29 -11 -10 -20 -26 -20 -37 0 -20 -8 -22 -28
-10 -7 5 -10 16 -6 25 4 11 0 19 -10 23 -24 9 -20 29 14 66 29 31 39 58 22 58
-5 0 -15 -11 -22 -25 -7 -14 -19 -25 -27 -25 -7 0 -13 -4 -13 -10 0 -5 -8 -10
-18 -10 -10 0 -45 -13 -77 -30 -32 -16 -67 -30 -77 -30 -10 0 -51 -16 -91 -35
-39 -19 -79 -35 -88 -35 -8 0 -30 -16 -49 -35 -19 -19 -37 -35 -41 -35 -4 0
-10 14 -14 30 -5 23 -12 30 -31 30 -26 0 -31 -9 -13 -27 14 -14 3 -33 -18 -33
-10 0 -14 6 -10 20 3 13 -1 24 -13 30 -9 5 -23 23 -30 40 -7 16 -18 30 -26 30
-8 0 -4 10 11 26 29 31 30 37 10 58 -12 12 -13 17 -2 28 6 7 13 24 14 38 1 23
9 62 13 68 2 1 3 7 4 13 0 7 10 15 20 19 17 6 18 7 3 13 -11 4 -14 12 -10 23
4 11 3 15 -5 10 -16 -10 -25 13 -12 29 12 14 7 19 -13 16 -5 -1 -6 3 -2 9 3 6
11 8 16 5 5 -4 9 -1 9 4 0 6 -5 11 -11 11 -5 0 -8 4 -5 9 3 5 -1 12 -10 15
-25 10 -34 7 -34 -9 0 -17 -9 -19 -28 -6 -11 7 -11 9 2 14 19 8 10 37 -11 37
-10 0 -13 -6 -9 -16 3 -8 2 -12 -4 -9 -13 8 -13 32 0 37 6 2 11 18 13 36 1 17
6 32 10 32 5 0 5 5 2 11 -4 6 -13 8 -21 5 -15 -6 -16 4 -15 94 l0 45 -11 -37
c-5 -21 -16 -38 -24 -38 -8 0 -14 -5 -14 -11 0 -6 7 -9 15 -5 9 3 15 0 15 -9
0 -9 -6 -12 -15 -9 -9 4 -15 0 -15 -10 0 -9 6 -16 13 -17 6 0 2 -4 -9 -9 -16
-6 -20 -15 -17 -33 3 -14 0 -28 -6 -31 -7 -4 -11 1 -11 14 0 24 -28 24 -47 0
-11 -13 -12 -11 -13 9 0 13 -3 21 -7 18 -3 -4 -17 10 -29 31 -24 38 -30 57
-16 48 4 -2 14 -1 22 4 12 7 9 11 -10 18 -29 11 -40 7 -40 -14 0 -8 -7 -14
-15 -14 -8 0 -15 -5 -15 -10 0 -6 -5 -9 -12 -8 -7 2 -15 -14 -19 -37 -3 -21
-12 -41 -18 -43 -6 -2 -11 -23 -11 -47 0 -24 -5 -47 -11 -50 -7 -5 -5 -13 5
-24 17 -18 30 -137 16 -146 -4 -3 -6 -14 -3 -26 3 -11 -2 -37 -12 -58 -17 -38
-17 -38 -46 -24 -16 8 -29 21 -29 30 0 11 -6 14 -23 9 -17 -4 -30 1 -46 18
-25 27 -22 41 9 49 21 5 28 -7 10 -18 -13 -8 -3 -25 14 -25 17 0 18 50 1 67
-10 9 -15 9 -17 2 -3 -8 -10 -8 -26 2 -23 14 -32 69 -11 69 6 0 9 6 6 14 -3 8
1 20 8 26 16 13 10 34 -6 25 -5 -4 -9 4 -8 17 0 13 3 17 6 11 7 -20 23 -15 16
5 -6 15 -5 15 10 3 24 -19 21 -5 -4 18 -22 20 -19 41 6 41 9 0 12 -6 8 -16 -4
-12 -2 -15 8 -12 8 3 13 12 11 20 -1 8 7 24 18 36 27 28 25 42 -5 42 -18 0
-25 5 -25 19 0 11 -4 23 -10 26 -5 3 -10 -1 -10 -9 0 -10 -9 -16 -21 -16 -17
0 -19 3 -10 14 9 11 8 15 -6 20 -15 6 -15 8 -3 16 13 8 12 10 -2 10 -29 0 -39
32 -40 125 0 84 0 83 25 91 12 3 30 13 40 22 11 9 17 11 17 4 0 -7 5 -12 10
-12 6 0 10 6 10 14 0 14 31 17 41 3 3 -4 25 -4 49 2 38 8 45 7 66 -14 l23 -23
27 21 c18 14 29 17 31 10 5 -15 33 -5 33 11 0 6 9 17 21 24 17 11 25 11 45 -3
13 -8 24 -20 24 -25 0 -6 9 -10 20 -10 22 0 37 -29 47 -88 5 -26 8 -30 19 -21
8 6 14 16 14 22 0 11 70 77 83 77 4 0 7 -6 7 -13 0 -16 66 -15 98 2 17 9 23 8
30 -6 9 -16 11 -16 27 0 20 20 31 22 38 5 7 -17 46 30 47 55 0 34 18 7 24 -37
8 -51 23 -60 133 -82 18 -3 30 -10 28 -15 -3 -4 8 -6 24 -4 23 3 28 0 24 -12
-4 -11 0 -14 18 -11 18 2 25 11 29 33 4 21 8 26 14 17 6 -11 11 -10 26 3 16
15 18 14 24 -9 5 -21 11 -24 51 -23 26 1 53 9 65 20 22 18 35 23 26 8 -3 -5 0
-14 7 -19 10 -8 20 -4 41 18 15 17 31 30 36 30 4 0 10 9 13 20 3 11 10 20 17
20 6 0 9 -8 6 -18 -4 -13 0 -18 14 -19 11 -1 20 2 20 8 0 5 4 9 9 9 5 0 7 -9
4 -20 -8 -29 29 -26 75 5 30 21 38 23 40 10 5 -20 14 -19 41 6 12 12 25 18 29
14 3 -3 1 -9 -5 -13 -16 -10 -20 -44 -5 -49 6 -3 12 0 12 6 0 6 7 11 15 11 22
0 18 -20 -15 -69 -17 -24 -30 -50 -30 -56 0 -18 30 -27 46 -14 8 6 14 8 14 4
0 -4 7 -2 16 6 12 10 17 10 23 1 6 -10 15 -9 41 2 31 12 36 12 47 -3 12 -14
12 -14 6 3 -5 15 -3 18 10 13 11 -4 17 1 19 16 4 29 23 23 23 -8 0 -13 9 -30
19 -38 11 -8 16 -19 12 -25 -5 -8 0 -12 13 -12 12 0 21 4 21 10 0 5 3 9 8 8 4
-1 19 2 35 6 l27 8 0 169 0 169 -2040 0 -2040 0 0 -2025z m1710 1811 c0 -18
-6 -22 -35 -22 -20 0 -34 4 -32 11 2 5 14 9 26 7 19 -3 21 0 15 25 -7 25 -6
27 9 14 10 -7 17 -23 17 -35z m43 24 c-3 -11 -7 -20 -9 -20 -2 0 -4 9 -4 20 0
11 4 20 9 20 5 0 7 -9 4 -20z m-21 -35 c3 -14 1 -25 -3 -25 -5 0 -9 11 -9 25
0 14 2 25 4 25 2 0 6 -11 8 -25z m-2 -65 c0 -5 -4 -10 -10 -10 -5 0 -10 5 -10
10 0 6 5 10 10 10 6 0 10 -4 10 -10z m-83 -62 c-3 -7 -5 -2 -5 12 0 14 2 19 5
13 2 -7 2 -19 0 -25z m43 -154 c0 -8 -5 -12 -10 -9 -6 4 -8 11 -5 16 9 14 15
11 15 -7z m218 -197 c22 -45 42 -95 46 -112 4 -16 10 -39 13 -50 3 -11 2 -17
-2 -13 -5 4 -14 3 -22 -3 -8 -7 -13 -8 -13 -1 0 15 -44 23 -55 9 -14 -18 -55
-20 -55 -3 0 8 -5 16 -12 18 -8 3 -5 14 10 35 12 17 22 39 22 50 0 34 -12 63
-26 63 -8 0 -14 5 -14 11 0 5 5 7 10 4 17 -11 32 5 19 21 -9 11 -8 14 5 14 11
0 16 9 16 26 0 39 16 20 58 -69z m520 -128 c2 -11 -6 -19 -24 -23 -31 -8 -49
10 -32 32 15 17 52 11 56 -9z m-135 -60 c-4 -13 -9 -17 -15 -11 -11 11 -3 32
12 32 4 0 6 -9 3 -21z m777 -104 c-14 -17 -30 -20 -30 -5 0 6 7 10 15 10 8 0
15 5 15 12 0 6 3 8 6 5 4 -4 1 -13 -6 -22z m156 -30 c-11 -8 -31 -15 -45 -15
l-26 1 25 14 c14 8 34 14 45 14 20 0 20 0 1 -14z m-90 -151 c-5 -19 -3 -22 11
-18 16 5 16 4 -1 -10 -10 -8 -22 -14 -25 -11 -4 2 -26 -14 -50 -35 -24 -22
-47 -37 -52 -35 -13 8 -2 60 12 57 10 -3 10 0 -1 12 -8 10 -9 16 -2 16 6 0 9
6 6 14 -4 9 3 14 20 14 14 0 36 6 48 15 29 19 41 12 34 -19z m-2246 -69 c-9
-11 -9 -19 -2 -28 13 -16 4 -57 -12 -57 -7 0 -26 11 -44 23 l-32 24 26 34 c27
37 67 54 72 32 2 -8 -2 -20 -8 -28z m2509 -46 c-7 -4 -9 -15 -5 -24 5 -15 4
-16 -9 -5 -8 7 -21 10 -29 7 -10 -4 -12 0 -8 15 2 11 11 22 18 25 7 2 10 12 8
21 -4 11 2 9 16 -7 15 -17 18 -26 9 -32z m-62 6 c0 -8 -4 -15 -8 -15 -11 0
-20 16 -12 24 11 11 20 7 20 -9z m-455 -17 c-7 -7 -12 -8 -12 -2 0 6 3 14 7
17 3 4 9 5 12 2 2 -3 -1 -11 -7 -17z m101 -23 c-3 -9 -16 -18 -29 -21 -23 -6
-26 -10 -28 -43 -1 -8 -7 -16 -14 -19 -7 -2 -12 0 -11 5 1 4 -1 16 -6 27 -8
19 14 41 42 41 7 0 12 4 12 9 -1 11 23 26 33 20 4 -3 5 -11 1 -19z m313 -20
c-3 -10 -11 -13 -18 -9 -7 4 -10 3 -5 -1 4 -5 1 -16 -7 -24 -8 -9 -17 -28 -20
-43 -7 -39 -12 -46 -45 -53 -16 -3 -35 -13 -42 -21 -6 -8 -16 -14 -21 -14 -6
0 -22 -8 -36 -19 -15 -10 -39 -21 -54 -25 -22 -5 -26 -3 -22 9 4 8 11 15 16
15 6 0 8 6 5 14 -5 14 5 15 38 5 14 -5 55 23 55 37 0 7 8 10 20 7 11 -3 20 0
20 6 0 6 8 11 18 12 9 0 4 5 -13 10 -22 6 -31 5 -38 -6 -14 -25 -57 -69 -57
-58 0 6 9 22 21 37 11 14 17 26 13 26 -4 0 1 9 10 19 10 11 25 17 36 14 14 -4
22 2 29 18 4 13 6 30 4 37 -6 15 -2 15 31 2 20 -7 24 -6 19 6 -3 10 0 12 10 8
8 -3 18 0 22 6 10 16 19 4 11 -15z m-3261 -36 c11 -17 -1 -21 -15 -4 -8 9 -8
15 -2 15 6 0 14 -5 17 -11z m195 -19 c0 -5 -4 -10 -10 -10 -5 0 -10 5 -10 10
0 6 5 10 10 10 6 0 10 -4 10 -10z m2751 -13 c-10 -9 -11 -8 -5 6 3 10 9 15 12
12 3 -3 0 -11 -7 -18z m104 -7 c-10 -11 -21 -18 -23 -15 -3 3 3 12 14 20 27
20 30 18 9 -5z m-2775 -10 c8 -5 11 -12 8 -15 -4 -4 -17 0 -30 9 -24 17 -5 23
22 6z m660 -4 c0 -3 -4 -8 -10 -11 -5 -3 -10 -1 -10 4 0 6 5 11 10 11 6 0 10
-2 10 -4z m-10 -50 c0 -29 -20 -66 -36 -66 -16 0 -16 3 8 52 14 30 28 37 28
14z m2310 -2 c0 -8 5 -12 11 -9 6 4 16 -1 23 -11 13 -16 15 -16 44 4 47 34 47
26 1 -17 l-42 -39 31 -7 c42 -9 49 -23 17 -31 -19 -5 -24 -11 -20 -25 4 -11 2
-19 -4 -19 -5 0 -13 -9 -16 -20 -3 -11 -13 -20 -21 -20 -8 0 -14 -9 -14 -19 0
-16 -11 -22 -57 -31 -82 -17 -127 -31 -134 -43 -4 -5 -13 -7 -20 -5 -9 3 0 13
24 28 20 12 37 26 37 30 0 4 10 6 23 3 19 -5 18 -1 -11 26 l-33 31 23 9 c13 5
25 5 28 1 3 -4 15 8 27 26 l22 33 -32 -3 c-18 -2 -38 1 -45 7 -10 8 -4 19 30
49 24 21 48 38 54 38 7 0 14 7 18 15 7 20 36 19 36 -1z m-3053 -16 c-3 -8 -6
-5 -6 6 -1 11 2 17 5 13 3 -3 4 -12 1 -19z m186 -13 c47 -9 58 -25 18 -25 -17
0 -31 -5 -31 -11 0 -5 -4 -7 -10 -4 -6 3 -7 -1 -4 -10 4 -9 13 -14 20 -11 9 3
23 -8 36 -28 14 -21 34 -37 51 -40 15 -3 40 -17 55 -31 26 -24 22 -34 -8 -15
-9 5 -19 5 -27 -2 -7 -6 -21 -8 -32 -5 -10 2 -25 1 -32 -4 -10 -6 -6 -9 13 -9
15 0 30 -5 34 -12 4 -6 3 -8 -4 -4 -22 13 -18 -20 5 -37 13 -10 23 -25 23 -33
0 -8 5 -14 11 -14 13 0 39 -25 39 -39 0 -7 -8 -7 -25 1 -22 10 -28 8 -47 -12
l-22 -23 32 6 c18 4 32 5 32 3 0 -18 -15 -36 -31 -36 -10 0 -19 -6 -19 -12 0
-16 -58 -18 -68 -3 -4 6 -20 16 -35 23 -23 10 -27 16 -21 34 5 16 3 20 -8 15
-8 -3 -15 0 -15 6 0 7 -2 19 -4 27 -3 10 3 14 18 12 34 -5 36 16 3 33 -16 8
-30 20 -30 25 0 12 47 13 54 2 9 -14 76 -1 76 15 0 10 -6 13 -15 9 -16 -6 -55
13 -55 26 0 5 7 8 16 8 8 0 12 5 9 10 -3 6 -23 10 -44 10 -29 0 -40 5 -44 19
-3 15 0 17 16 13 16 -4 19 -2 14 12 -4 10 -7 22 -7 28 0 7 -5 7 -13 -1 -11 -8
-18 -7 -31 7 -18 21 -12 32 16 32 30 0 20 17 -14 24 l-31 6 24 23 c21 21 27
22 49 11 14 -7 42 -15 63 -19z m-146 -1 c-3 -3 -12 -4 -19 -1 -8 3 -5 6 6 6
11 1 17 -2 13 -5z m3308 -3 c-3 -5 -19 -12 -35 -16 -17 -4 -43 -13 -59 -21
-16 -8 -36 -11 -46 -8 -13 5 -8 10 22 21 21 7 56 18 78 22 22 5 41 9 43 10 2
1 1 -3 -3 -8z m-449 -106 c-11 -8 -27 -15 -35 -15 -13 1 -12 4 3 15 11 8 27
15 35 15 13 -1 12 -4 -3 -15z m-2206 -99 c0 -3 -4 -8 -10 -11 -5 -3 -10 -1
-10 4 0 6 5 11 10 11 6 0 10 -2 10 -4z m110 -16 c0 -5 -9 -10 -20 -10 -24 0
-25 -12 -3 -71 16 -45 15 -48 -4 -88 -12 -23 -24 -42 -27 -42 -18 1 -36 -13
-36 -29 0 -25 -74 -116 -110 -135 -38 -20 -38 -19 -32 10 2 14 10 25 16 25 6
0 20 14 29 30 10 17 22 30 26 30 5 0 9 12 9 27 0 19 10 36 38 57 21 17 41 31
46 31 18 0 9 21 -13 32 -15 8 -27 9 -35 2 -14 -12 -47 -7 -68 10 -8 7 -20 10
-25 7 -16 -10 -21 10 -8 28 10 14 18 15 39 7 20 -8 28 -7 32 5 3 8 12 14 21
14 8 0 15 8 15 17 0 9 6 24 14 32 16 18 96 27 96 11z m-710 -20 c0 -5 -7 -7
-15 -4 -8 4 -15 8 -15 10 0 2 7 4 15 4 8 0 15 -4 15 -10z m345 -90 c3 -5 -1
-10 -10 -10 -9 0 -13 5 -10 10 3 6 8 10 10 10 2 0 7 -4 10 -10z m2435 -4 c0
-11 -19 -15 -25 -6 -3 5 1 10 9 10 9 0 16 -2 16 -4z m-2271 -30 c9 -10 8 -16
-4 -26 -13 -11 -15 -8 -15 14 0 30 3 32 19 12z m2421 4 c0 -5 -2 -10 -4 -10
-3 0 -8 5 -11 10 -3 6 -1 10 4 10 6 0 11 -4 11 -10z m-2720 -50 c0 -5 -5 -10
-11 -10 -5 0 -7 5 -4 10 3 6 8 10 11 10 2 0 4 -4 4 -10z m105 -30 c-9 -15 -22
-12 -29 6 -9 24 3 36 20 19 9 -8 12 -19 9 -25z m55 -40 c0 -5 -4 -10 -10 -10
-5 0 -10 5 -10 10 0 6 5 10 10 10 6 0 10 -4 10 -10z m2415 -50 c7 -12 -2 -12
-30 0 -19 8 -19 9 2 9 12 1 25 -3 28 -9z m-2665 -45 c0 -8 -4 -15 -10 -15 -5
0 -10 7 -10 15 0 8 5 15 10 15 6 0 10 -7 10 -15z m565 -55 c3 -6 -1 -7 -9 -4
-18 7 -21 14 -7 14 6 0 13 -4 16 -10z m2006 -10 c10 0 19 -7 19 -15 0 -8 5
-14 12 -12 7 1 12 -4 13 -11 0 -7 7 -17 15 -22 13 -8 12 -10 -2 -10 -10 0 -18
4 -18 8 0 4 -20 13 -45 20 -35 9 -45 16 -45 33 0 15 4 19 16 15 9 -3 24 -6 35
-6z m128 -32 c10 -28 -17 -40 -31 -14 -5 9 -16 16 -23 16 -8 0 -15 5 -15 10 0
6 14 10 30 10 23 0 33 -6 39 -22z m-1889 2 c-20 -13 -33 -13 -25 0 3 6 14 10
23 10 15 0 15 -2 2 -10z m-100 -60 c0 -6 -11 -16 -25 -22 -19 -9 -22 -14 -14
-25 11 -12 6 -17 -13 -14 -5 0 -8 -8 -8 -19 0 -11 -7 -23 -15 -26 -20 -8 -19
-34 1 -34 11 0 14 -6 9 -20 -5 -14 -2 -20 9 -20 21 0 20 -13 -3 -34 -15 -14
-20 -14 -29 -3 -7 8 -8 18 -4 22 4 5 1 5 -5 1 -7 -4 -13 -3 -13 2 0 5 -11 15
-25 22 -16 9 -24 19 -20 29 3 8 0 18 -7 23 -10 6 -9 8 4 8 9 0 29 5 43 12 21
9 25 17 20 35 -4 18 -1 23 15 23 11 0 20 4 20 9 0 5 9 11 21 14 12 3 18 10 14
16 -3 6 1 11 9 11 9 0 16 -5 16 -10z m203 -15 c-19 -26 -53 -34 -53 -12 0 14
34 35 58 36 9 1 8 -6 -5 -24z m-90 -14 c9 0 17 -5 17 -11 0 -5 -13 -7 -32 -3
-22 4 -29 3 -24 -5 11 -18 -2 -14 -23 7 -19 19 -19 19 12 17 18 -2 40 -4 50
-5z m-90 -23 c7 -24 -3 -41 -10 -20 -3 6 -11 12 -19 12 -12 0 -13 3 -2 15 18
20 25 18 31 -7z m1884 16 c-3 -3 -12 -4 -19 -1 -8 3 -5 6 6 6 11 1 17 -2 13
-5z m-171 -78 c10 -8 16 -18 11 -22 -8 -8 -57 15 -57 28 0 13 24 9 46 -6z
m-1766 -6 c-19 -13 -30 -13 -30 0 0 6 10 10 23 10 18 0 19 -2 7 -10z m320 -19
c-11 -22 -30 -28 -30 -11 0 6 5 10 11 10 5 0 8 4 5 9 -4 5 0 11 6 14 19 6 21
1 8 -22z m1440 -33 c0 -12 -6 -9 -26 13 -19 22 -19 22 4 8 12 -8 22 -17 22
-21z m-40 -3 c14 -19 14 -19 -2 -6 -10 7 -18 18 -18 24 0 6 1 8 3 6 1 -2 9
-13 17 -24z m-1460 5 c0 -5 -2 -10 -4 -10 -3 0 -8 5 -11 10 -3 6 -1 10 4 10 6
0 11 -4 11 -10z m40 -6 c0 -4 -8 -13 -17 -20 -17 -13 -17 -13 2 -14 l20 -1
-20 -16 c-18 -14 -18 -15 -2 -9 10 3 23 6 28 6 6 0 8 4 4 9 -6 11 33 36 42 27
6 -6 -46 -56 -58 -56 -4 0 -21 -12 -38 -26 -17 -14 -31 -21 -31 -15 0 6 4 11
9 11 6 0 8 10 6 21 -3 12 -1 27 3 33 4 6 7 13 7 16 0 17 45 50 45 34z m1400
-34 c0 -5 -4 -10 -10 -10 -5 0 -10 5 -10 10 0 6 5 10 10 10 6 0 10 -4 10 -10z
m108 -30 c6 0 14 -5 18 -11 4 -7 0 -9 -12 -5 -11 3 -34 7 -52 8 -18 1 -38 8
-44 15 -8 10 -7 12 6 7 11 -4 16 -1 16 11 0 14 3 14 29 -4 16 -12 34 -21 39
-21z m-1774 8 c-3 -5 -9 -6 -13 -4 -4 3 -7 -5 -6 -17 1 -12 9 -23 18 -25 10
-2 15 -7 12 -12 -3 -5 -1 -11 4 -15 14 -8 2 -35 -15 -35 -7 0 -17 -6 -21 -13
-11 -18 -63 -49 -63 -38 0 5 7 12 15 15 9 3 23 22 31 41 9 22 19 33 26 29 6
-4 0 8 -15 28 -35 45 -34 59 2 56 16 -1 27 -6 25 -10z m-474 -8 c0 -5 -4 -10
-10 -10 -5 0 -10 5 -10 10 0 6 5 10 10 10 6 0 10 -4 10 -10z m2120 -16 c0 -2
-9 0 -20 6 -11 6 -20 13 -20 16 0 2 9 0 20 -6 11 -6 20 -13 20 -16z m-1324 -9
c-4 -14 -2 -25 4 -25 5 0 10 6 10 13 0 8 3 7 10 -3 11 -18 -2 -36 -43 -56 -31
-17 -48 -11 -29 8 16 16 15 28 -3 28 -19 0 -19 7 -1 25 7 8 17 11 21 7 3 -4
11 1 16 11 14 25 22 21 15 -8z m-186 6 c0 -5 -11 -8 -25 -8 -13 0 -22 3 -19 8
3 5 14 9 25 9 10 0 19 -4 19 -9z m-72 -20 c3 -10 0 -10 -19 -1 -34 18 -36 21
-9 17 13 -2 26 -9 28 -16z m1513 -18 c13 -16 12 -17 -3 -4 -10 7 -18 15 -18
17 0 8 8 3 21 -13z m-1387 -28 c-4 -8 -8 -15 -10 -15 -2 0 -4 7 -4 15 0 8 4
15 10 15 5 0 7 -7 4 -15z m61 -27 c-3 -31 -2 -30 -25 -10 l-21 17 23 7 c13 3
24 6 24 7 1 1 0 -9 -1 -21z m-205 -42 c0 -13 -6 -29 -14 -35 -12 -10 -13 -9
-9 7 7 29 -13 36 -31 10 -10 -14 -12 -24 -6 -28 6 -4 8 -13 5 -21 -3 -9 1 -28
9 -44 9 -17 11 -32 6 -35 -14 -9 8 -80 25 -80 8 0 20 8 27 18 14 19 48 37 48
24 0 -9 -96 -72 -109 -72 -5 0 -11 5 -13 12 -3 8 -16 6 -46 -9 -23 -11 -42
-18 -42 -14 1 15 17 30 43 36 32 8 35 21 7 30 -11 3 -20 11 -20 16 0 5 -10 10
-22 10 -15 1 -18 3 -7 6 14 3 15 10 7 43 -10 38 -9 41 29 79 37 36 87 70 106
71 4 0 7 -11 7 -24z m-167 7 c-7 -2 -13 -11 -13 -19 0 -8 -7 -14 -15 -14 -8 0
-15 -5 -15 -11 0 -5 -4 -8 -10 -4 -13 8 30 55 49 54 11 0 12 -2 4 -6z m437
-21 c0 -13 -12 -22 -22 -16 -10 6 -1 24 13 24 5 0 9 -4 9 -8z m-181 -28 c-6
-7 -15 -12 -19 -9 -4 3 -10 -1 -13 -9 -3 -7 -16 -16 -29 -19 -20 -5 -20 -4 7
16 16 12 34 22 40 22 5 1 9 7 7 14 -1 7 2 10 8 6 8 -5 8 -11 -1 -21z m159 -2
c2 -7 -4 -15 -13 -18 -20 -8 -27 -1 -19 20 7 18 25 17 32 -2z m1032 -8 c0 -8
-4 -12 -10 -9 -5 3 -10 13 -10 21 0 8 5 12 10 9 6 -3 10 -13 10 -21z m-826
-19 c-4 -8 -14 -15 -23 -15 -14 1 -13 3 3 15 25 19 27 19 20 0z m32 -30 c1 -7
-4 -16 -12 -19 -11 -4 -12 -10 -4 -25 8 -17 5 -23 -20 -38 -16 -9 -30 -21 -30
-25 0 -4 -8 -8 -17 -9 -15 0 -15 -2 2 -9 11 -5 14 -9 8 -9 -7 -1 -13 -6 -13
-11 0 -13 -43 -80 -52 -80 -16 0 -18 41 -4 62 9 12 16 29 16 38 0 8 10 20 23
25 12 6 22 19 22 31 0 25 22 54 41 54 7 0 16 9 19 21 7 21 17 19 21 -6z m113
-2 c-13 -16 -27 -32 -31 -37 -5 -6 -8 0 -8 13 0 14 7 25 20 28 11 3 20 9 20
14 0 5 5 9 12 9 6 0 1 -12 -13 -27z m-294 -22 c-3 -6 -11 -11 -17 -11 -6 0 -6
6 2 15 14 17 26 13 15 -4z m-96 -76 c-30 -30 -59 -60 -65 -67 -6 -7 -23 -23
-38 -35 -31 -27 -33 -39 -6 -46 22 -6 28 8 8 16 -7 3 6 6 29 6 52 1 73 -7 66
-25 -3 -8 0 -14 7 -14 6 0 14 9 17 20 3 11 9 20 14 20 5 0 14 11 20 24 8 16
17 22 30 19 20 -6 27 -23 9 -23 -5 0 -10 -13 -10 -30 0 -35 -15 -40 -24 -8 -4
19 -8 20 -18 10 -11 -11 -8 -17 12 -32 14 -11 31 -18 38 -15 6 2 12 -3 12 -13
0 -10 4 -22 9 -27 15 -17 1 -74 -20 -80 -11 -4 -17 -11 -14 -16 4 -5 1 -9 -4
-9 -6 0 -11 9 -11 20 0 11 6 20 13 20 11 0 -16 19 -53 36 -8 4 -27 15 -41 26
-22 14 -28 15 -32 4 -3 -7 0 -19 6 -25 8 -8 6 -11 -10 -11 -11 0 -27 -7 -34
-16 -11 -14 -11 -18 2 -28 12 -8 15 -23 12 -59 -4 -45 -3 -47 21 -47 16 0 26
-6 26 -15 0 -8 -4 -15 -8 -15 -5 0 -13 -20 -19 -45 -9 -39 -8 -47 6 -55 9 -5
11 -10 5 -10 -7 0 -15 -11 -18 -25 -4 -14 -13 -25 -21 -25 -8 0 -15 -4 -15
-10 0 -5 -4 -10 -9 -10 -5 0 -7 9 -4 20 5 18 2 19 -25 14 l-29 -6 3 49 c2 30
0 43 -5 34 -11 -18 -34 -4 -27 16 5 12 1 14 -14 10 -29 -7 -24 3 20 48 22 22
40 45 40 50 0 6 -5 3 -10 -5 -8 -13 -10 -13 -10 1 0 9 -11 22 -25 29 -14 7
-25 17 -25 22 0 4 -9 8 -20 8 -11 0 -20 5 -20 11 0 5 4 8 8 5 4 -2 14 -1 22 4
10 6 11 12 2 22 -8 11 -6 17 9 26 11 7 17 17 14 22 -3 5 -1 11 5 15 5 3 10 1
10 -4 0 -15 27 -14 33 2 4 8 6 7 6 -3 1 -10 13 -16 35 -17 29 -2 35 1 40 23 8
29 1 44 -20 44 -33 0 -49 32 -45 90 1 19 4 21 10 11 7 -11 12 -10 22 8 8 11
18 21 22 21 15 0 34 25 29 39 -3 8 0 11 6 7 5 -3 12 1 16 9 3 8 1 15 -4 15 -6
0 -10 5 -10 12 0 6 9 3 21 -8 13 -12 23 -14 27 -8 6 10 42 33 51 34 2 0 -21
-25 -50 -55z m1131 -14 c-1 -13 -4 -12 -15 3 -8 11 -15 27 -15 35 1 13 4 12
15 -3 8 -11 15 -27 15 -35z m-1550 19 c0 -5 -4 -10 -9 -10 -6 0 -9 -9 -8 -21
1 -18 2 -19 14 -3 7 10 19 14 29 10 10 -4 21 -1 26 6 7 10 9 10 6 -2 -4 -13
-53 -48 -70 -49 -4 -1 -15 10 -24 24 -13 20 -14 28 -4 40 14 17 40 20 40 5z
m1510 -18 c0 -5 9 -18 21 -31 17 -18 18 -25 9 -36 -10 -12 -10 -19 1 -32 13
-16 12 -17 -3 -4 -10 7 -20 28 -24 47 -3 19 -10 34 -15 34 -5 0 -9 7 -9 15 0
8 5 15 10 15 6 0 10 -4 10 -8z m-996 -27 c-4 -8 -11 -15 -16 -15 -6 0 -5 6 2
15 7 8 14 15 16 15 2 0 1 -7 -2 -15z m-598 -21 c-3 -9 -6 -20 -6 -25 0 -6 -8
-5 -20 1 -25 13 -26 27 -2 33 31 8 34 7 28 -9z m228 -3 c3 -5 -3 -11 -13 -14
-14 -3 -18 -1 -14 9 6 16 19 18 27 5z m-273 -21 c1 -5 2 -16 3 -22 3 -18 -15
-58 -26 -58 -12 0 -56 -50 -63 -72 -4 -10 -12 -18 -19 -18 -6 0 -27 -13 -46
-30 -48 -40 -64 -38 -37 5 12 19 28 34 35 35 14 0 17 20 2 20 -18 0 -113 -100
-98 -104 7 -2 20 -6 28 -9 10 -2 5 -9 -17 -20 -39 -21 -44 -21 -37 -3 10 25
-16 28 -53 6 -19 -11 -37 -19 -40 -17 -2 2 30 35 72 72 53 48 74 73 70 85 -5
17 16 43 39 46 19 3 116 74 116 85 0 12 70 11 71 -1z m-261 -20 c0 -5 -5 -10
-11 -10 -5 0 -7 5 -4 10 3 6 8 10 11 10 2 0 4 -4 4 -10z m480 6 c0 -3 -4 -8
-10 -11 -5 -3 -10 -1 -10 4 0 6 5 11 10 11 6 0 10 -2 10 -4z m310 0 c0 -3 -4
-8 -10 -11 -5 -3 -10 -1 -10 4 0 6 5 11 10 11 6 0 10 -2 10 -4z m-830 -26 c0
-5 -5 -10 -11 -10 -5 0 -7 5 -4 10 3 6 8 10 11 10 2 0 4 -4 4 -10z m979 -43
c12 -15 12 -17 -3 -11 -9 3 -16 13 -16 22 0 8 1 13 3 11 1 -2 9 -12 16 -22z
m175 -12 c-4 -8 -11 -15 -16 -15 -6 0 -8 -11 -6 -25 4 -20 3 -23 -8 -14 -18
15 -18 28 3 51 20 22 35 24 27 3z m-902 -57 c-7 -7 -12 -8 -12 -2 0 14 12 26
19 19 2 -3 -1 -11 -7 -17z m-72 -88 c0 -5 -4 -10 -10 -10 -5 0 -10 -6 -10 -14
0 -16 -18 -31 -27 -23 -6 7 29 56 40 57 4 0 7 -4 7 -10z m366 -26 c-7 -19 12
-47 25 -38 5 3 9 14 9 25 0 22 1 22 33 10 20 -8 24 -16 24 -50 l0 -40 -28 14
c-39 20 -46 19 -18 -4 13 -11 21 -23 17 -27 -4 -4 -14 -1 -22 5 -13 11 -22 6
-55 -28 -22 -23 -47 -41 -56 -41 -8 0 -20 -10 -26 -22 -5 -13 -22 -29 -36 -35
-22 -11 -28 -10 -40 5 -12 16 -14 16 -24 0 -5 -10 -22 -18 -37 -18 -15 0 -35
-8 -44 -17 -10 -10 -26 -27 -37 -37 -11 -10 -18 -23 -15 -27 3 -5 -2 -9 -11
-9 -22 0 -165 -147 -165 -169 0 -13 -73 -56 -89 -53 -8 2 -10 -1 -5 -10 4 -7
3 -9 -1 -5 -15 13 -14 38 1 44 8 3 14 11 14 19 0 8 5 14 12 14 6 0 32 22 57
48 25 27 51 49 56 50 6 1 10 8 10 15 0 6 4 15 9 18 5 4 6 15 2 24 -6 16 -8 17
-24 1 -10 -9 -27 -16 -38 -15 -16 0 -15 2 5 10 20 8 22 14 17 40 -4 22 -2 29
6 27 7 -3 19 1 26 9 17 16 52 17 52 1 0 -6 -10 -22 -22 -35 -28 -30 -19 -37
20 -17 54 26 80 84 31 69 -29 -10 -23 14 12 47 24 23 30 36 27 59 -4 28 6 41
14 18 2 -6 16 1 31 15 16 14 39 26 53 26 16 0 27 7 33 22 8 21 8 21 13 -5 4
-19 0 -30 -11 -37 -9 -4 -12 -12 -8 -17 5 -4 17 3 28 17 36 47 41 51 56 46 11
-4 13 -2 9 9 -3 8 -2 14 2 14 4 -1 9 -1 12 1 3 1 16 3 30 6 14 2 31 13 39 24
16 24 36 27 27 4z m-201 -24 c-3 -5 -11 -10 -16 -10 -6 0 -7 5 -4 10 3 6 11
10 16 10 6 0 7 -4 4 -10z m-425 -4 c0 -3 -4 -8 -10 -11 -5 -3 -10 -1 -10 4 0
6 5 11 10 11 6 0 10 -2 10 -4z m-76 -50 c-21 -15 -30 -14 -19 3 3 6 14 11 23
11 13 0 13 -2 -4 -14z m226 -11 c0 -10 -10 -15 -27 -15 -26 0 -26 1 -7 15 25
19 34 19 34 0z m1420 -21 c0 -7 -4 -16 -10 -19 -5 -3 -10 -15 -10 -26 0 -10
-6 -18 -12 -16 -7 1 -12 -6 -10 -15 2 -13 -4 -18 -19 -18 -18 0 -19 2 -9 15
10 12 10 15 -2 15 -10 0 -15 10 -15 30 0 16 4 27 9 24 4 -3 8 1 8 10 0 8 5 16
12 18 21 7 58 -4 58 -18z m-1680 6 c0 -6 -18 -29 -40 -51 -22 -22 -40 -37 -40
-34 0 4 -7 1 -17 -6 -15 -13 -15 -12 -4 9 6 12 15 22 20 22 5 0 19 16 32 35
23 33 49 47 49 25z m1250 -9 c0 -5 -7 -11 -15 -15 -8 -3 -15 -13 -16 -23 0
-16 -1 -16 -9 2 -12 27 -12 37 -1 30 5 -3 12 -1 16 5 8 12 25 13 25 1z m-1054
-16 c-11 -8 -22 -12 -25 -9 -6 6 19 24 34 24 6 -1 1 -7 -9 -15z m604 -4 c0
-12 -20 -25 -27 -18 -7 7 6 27 18 27 5 0 9 -4 9 -9z m-750 -18 c-1 -5 -11 -16
-23 -25 -12 -9 -37 -29 -55 -44 -18 -14 -36 -23 -40 -19 -4 3 2 13 13 21 11 8
35 28 53 44 32 29 52 38 52 23z m93 -14 c-6 -20 -29 -36 -39 -26 -4 4 34 47
42 47 1 0 0 -9 -3 -21z m610 -20 c-9 -9 -12 -7 -10 9 1 14 5 18 11 12 7 -7 6
-14 -1 -21z m-443 11 c0 -5 -5 -10 -11 -10 -5 0 -7 5 -4 10 3 6 8 10 11 10 2
0 4 -4 4 -10z m361 -65 c-23 -25 -41 -49 -41 -55 0 -5 -5 -10 -11 -10 -6 0
-24 -9 -40 -21 -16 -11 -29 -18 -29 -15 0 6 50 61 117 129 52 52 55 27 4 -28z
m127 43 c-14 -25 -30 -39 -36 -33 -5 5 31 54 41 55 4 0 2 -10 -5 -22z m-721
-29 c-6 -10 -15 -19 -19 -19 -4 0 -21 -13 -36 -30 -31 -32 -47 -37 -57 -19
-10 15 71 84 100 85 21 2 22 0 12 -17z m933 0 c-7 -11 -14 -18 -17 -15 -3 3 0
12 7 21 18 21 23 19 10 -6z m130 16 c0 -3 -7 -17 -16 -30 -9 -13 -13 -29 -9
-35 4 -6 -4 -10 -19 -10 -18 0 -26 -5 -26 -17 0 -9 -9 -36 -21 -59 -15 -31
-25 -41 -36 -37 -9 4 -21 -1 -29 -12 -12 -16 -14 -16 -14 -3 0 9 -3 18 -7 21
-5 2 -2 2 5 0 17 -4 44 22 41 39 -4 34 2 50 16 44 10 -3 15 1 15 12 0 9 9 23
20 30 11 7 20 22 20 35 0 18 2 19 10 7 9 -13 12 -13 21 3 9 16 29 24 29 12z
m169 -27 c-7 -13 -14 -18 -16 -11 -3 7 2 19 9 27 18 20 22 12 7 -16z m-589 8
c0 -2 -8 -10 -17 -17 -16 -13 -17 -12 -4 4 13 16 21 21 21 13z m-58 -68 c-7
-7 -12 -8 -12 -2 0 14 12 26 19 19 2 -3 -1 -11 -7 -17z m52 -3 c-4 -8 -11 -15
-16 -15 -6 0 -5 6 2 15 7 8 14 15 16 15 2 0 1 -7 -2 -15z m470 -20 c-9 -14
-20 -25 -26 -25 -11 0 23 49 35 50 4 0 0 -11 -9 -25z m-1084 10 c0 -13 -54
-64 -63 -58 -5 3 -13 -1 -18 -8 -5 -8 -9 -9 -9 -3 0 7 12 20 28 29 15 10 31
24 35 32 8 12 27 18 27 8z m59 -48 c-6 -10 -18 -21 -27 -24 -9 -3 -31 -21 -49
-39 -37 -39 -43 -41 -43 -15 0 11 17 32 38 48 20 15 40 33 44 38 4 6 16 11 27
11 16 0 18 -4 10 -19z m699 -30 c-26 -41 -43 -48 -32 -14 8 26 48 70 52 58 1
-5 -8 -25 -20 -44z m-661 -5 c-10 -10 -17 -24 -17 -30 0 -7 -9 -12 -19 -12
-11 0 -21 -6 -24 -12 -2 -7 -7 -10 -11 -7 -8 7 61 79 76 79 6 0 4 -8 -5 -18z
m1163 -18 c0 -25 -4 -27 -33 -16 -16 7 -16 9 -1 30 18 27 34 20 34 -14z m507
-6 c-3 -8 -6 -5 -6 6 -1 11 2 17 5 13 3 -3 4 -12 1 -19z m-757 -8 c4 0 10 -11
12 -25 4 -20 2 -23 -7 -15 -18 15 -31 -6 -15 -25 7 -9 8 -15 0 -20 -5 -3 -10
-1 -10 6 0 7 -3 9 -6 6 -4 -4 -1 -14 7 -24 8 -9 9 -14 2 -10 -6 4 -13 1 -16
-5 -2 -7 -8 -10 -12 -6 -4 4 -2 28 5 52 7 25 10 53 6 62 -5 12 -2 15 10 10 8
-3 19 -6 24 -6z m-150 -9 c0 -5 -4 -21 -10 -35 -9 -26 -9 -26 15 -10 14 9 25
14 25 11 0 -11 -45 -82 -62 -99 -10 -10 -18 -24 -18 -31 0 -7 -9 -21 -21 -30
-20 -18 -21 -18 -14 2 10 34 -15 25 -26 -9 -6 -16 -15 -30 -21 -30 -5 0 -6 5
-2 11 4 7 7 24 8 38 1 16 7 26 16 26 22 0 43 23 36 40 -3 8 -1 17 4 20 6 4 10
-1 10 -10 0 -9 5 -15 12 -13 17 6 34 36 25 45 -5 4 -12 1 -17 -7 -8 -13 -10
-12 -10 2 0 9 -3 23 -6 31 -3 10 2 18 15 22 12 3 21 13 21 21 0 8 5 14 10 14
6 0 10 -4 10 -9z m-580 -21 c0 -5 -5 -10 -11 -10 -5 0 -7 5 -4 10 3 6 8 10 11
10 2 0 4 -4 4 -10z m930 -12 c0 -7 -5 -20 -10 -28 -6 -10 -4 -20 7 -32 13 -15
13 -19 0 -38 l-15 -22 -4 23 c-2 13 -13 28 -25 34 -28 12 -29 21 -3 28 12 3
20 14 20 26 0 12 6 21 15 21 8 0 15 -6 15 -12z m610 -55 c0 -18 -4 -33 -9 -33
-11 0 -29 70 -23 89 8 24 32 -18 32 -56z m-1810 42 c0 -8 -4 -15 -9 -15 -13 0
-22 16 -14 24 11 11 23 6 23 -9z m340 1 c0 -3 -4 -8 -10 -11 -5 -3 -10 -1 -10
4 0 6 5 11 10 11 6 0 10 -2 10 -4z m731 -27 c10 -6 9 -10 -6 -15 -11 -5 -26
-14 -34 -21 -7 -8 -16 -11 -20 -8 -3 4 2 13 13 20 10 8 16 21 13 29 -7 18 4
30 14 15 3 -6 13 -15 20 -20z m-861 17 c0 -3 -4 -8 -10 -11 -5 -3 -10 -1 -10
4 0 6 5 11 10 11 6 0 10 -2 10 -4z m100 -14 c0 -5 -13 -21 -30 -37 -16 -16
-30 -34 -30 -40 0 -7 -9 -20 -20 -30 -20 -18 -21 -18 -14 1 4 10 23 40 43 67
33 44 51 58 51 39z m967 -14 c-3 -8 -6 -5 -6 6 -1 11 2 17 5 13 3 -3 4 -12 1
-19z m-836 -11 c-10 -9 -11 -8 -5 6 3 10 9 15 12 12 3 -3 0 -11 -7 -18z m139
15 c0 -16 -52 -62 -62 -56 -7 5 1 18 22 36 37 30 40 32 40 20z m-400 -26 c0
-7 -7 -19 -15 -26 -16 -13 -20 -3 -9 24 8 20 24 21 24 2z m228 -16 c-11 -18
-28 -27 -28 -16 0 6 30 36 36 36 2 0 -1 -9 -8 -20z m222 11 c0 -6 -4 -13 -10
-16 -5 -3 -10 1 -10 9 0 9 5 16 10 16 6 0 10 -4 10 -9z m-290 -16 c0 -8 -7
-15 -16 -15 -14 0 -14 3 -4 15 7 8 14 15 16 15 2 0 4 -7 4 -15z m691 -22 c-12
-20 -14 -14 -5 12 4 9 9 14 11 11 3 -2 0 -13 -6 -23z m-466 -38 c-38 -46 -60
-55 -33 -13 8 13 16 27 16 32 1 9 44 35 51 30 2 -2 -14 -24 -34 -49z m361 -23
c-12 -11 -17 7 -9 34 l8 29 3 -28 c2 -16 1 -31 -2 -35z m-104 16 c-7 -7 -12
-8 -12 -2 0 14 12 26 19 19 2 -3 -1 -11 -7 -17z m-481 -11 c-10 -9 -11 -8 -5
6 3 10 9 15 12 12 3 -3 0 -11 -7 -18z m109 -11 c0 -3 -4 -8 -10 -11 -5 -3 -10
-1 -10 4 0 6 5 11 10 11 6 0 10 -2 10 -4z m355 -14 c0 -18 -20 -15 -23 4 -3
10 1 15 10 12 7 -3 13 -10 13 -16z m-319 -52 c-14 -17 -26 -26 -26 -19 0 15
41 61 48 54 2 -2 -7 -18 -22 -35z m421 34 c-3 -3 -12 -4 -19 -1 -8 3 -5 6 6 6
11 1 17 -2 13 -5z m1733 -65 c0 -6 -4 -7 -10 -4 -5 3 -10 11 -10 16 0 6 5 7
10 4 6 -3 10 -11 10 -16z m-450 1 c0 -5 -4 -10 -10 -10 -5 0 -10 5 -10 10 0 6
5 10 10 10 6 0 10 -4 10 -10z m-1820 -10 c0 -5 -5 -10 -11 -10 -5 0 -7 5 -4
10 3 6 8 10 11 10 2 0 4 -4 4 -10z m1740 -20 c0 -5 -4 -10 -9 -10 -6 0 -13 5
-16 10 -3 6 1 10 9 10 9 0 16 -4 16 -10z m560 -21 c0 -6 -4 -7 -10 -4 -5 3
-10 11 -10 16 0 6 5 7 10 4 6 -3 10 -11 10 -16z"/>
<path d="M3063 2855 c-21 -23 -16 -40 6 -21 10 9 28 18 39 19 11 0 18 5 16 9
-8 13 -48 8 -61 -7z"/>
<path d="M861 2816 c-7 -8 -8 -17 -3 -20 6 -3 12 3 15 14 6 24 4 25 -12 6z"/>
<path d="M3208 2638 c9 -9 15 -9 24 0 9 9 7 12 -12 12 -19 0 -21 -3 -12 -12z"/>
<path d="M3204 2375 c-18 -14 -18 -14 4 -8 12 3 22 9 22 14 0 12 -3 11 -26 -6z"/>
<path d="M1120 1226 c0 -9 5 -16 10 -16 6 0 10 4 10 9 0 6 -4 13 -10 16 -5 3
-10 -1 -10 -9z"/>
<path d="M636 1014 c-5 -14 -4 -15 9 -4 17 14 19 20 6 20 -5 0 -12 -7 -15 -16z"/>
<path d="M840 750 c0 -5 7 -10 15 -10 8 0 15 5 15 10 0 6 -7 10 -15 10 -8 0
-15 -4 -15 -10z"/>
<path d="M1030 729 c0 -5 5 -7 10 -4 6 3 10 8 10 11 0 2 -4 4 -10 4 -5 0 -10
-5 -10 -11z"/>
<path d="M2075 3850 c3 -5 8 -10 11 -10 2 0 4 5 4 10 0 6 -5 10 -11 10 -5 0
-7 -4 -4 -10z"/>
<path d="M2550 3659 c0 -11 4 -18 10 -14 5 3 7 12 3 20 -7 21 -13 19 -13 -6z"/>
<path d="M2451 3624 c0 -11 3 -14 6 -6 3 7 2 16 -1 19 -3 4 -6 -2 -5 -13z"/>
<path d="M2166 3554 c-9 -8 -16 -11 -16 -5 0 6 -4 11 -10 11 -5 0 -10 -7 -10
-15 0 -8 9 -15 20 -15 11 0 20 5 20 10 0 6 7 10 15 10 8 0 15 5 15 10 0 15
-16 12 -34 -6z"/>
<path d="M2170 3316 c0 -14 5 -26 10 -26 6 0 10 9 10 19 0 11 -4 23 -10 26 -6
4 -10 -5 -10 -19z"/>
<path d="M2120 3324 c0 -7 27 -34 34 -34 4 0 1 9 -6 20 -12 19 -28 27 -28 14z"/>
<path d="M4043 3285 c-6 -7 -15 -29 -18 -49 -4 -20 -17 -43 -28 -51 -11 -8
-17 -18 -13 -22 8 -9 38 8 36 20 -1 5 8 16 19 26 16 14 18 20 8 30 -9 9 -9 14
2 20 7 5 11 15 9 24 -2 12 -5 13 -15 2z"/>
<path d="M3617 3230 c-9 -11 -13 -20 -8 -20 11 0 35 29 29 35 -2 2 -12 -4 -21
-15z"/>
<path d="M2938 3143 c7 -3 16 -2 19 1 4 3 -2 6 -13 5 -11 0 -14 -3 -6 -6z"/>
<path d="M3491 3126 l-22 -23 22 -6 c27 -7 49 8 49 34 0 26 -22 24 -49 -5z"/>
<path d="M3991 3103 c-31 -30 -32 -33 -13 -33 12 0 29 11 38 25 26 40 12 45
-25 8z"/>
<path d="M3676 3079 c-15 -12 -26 -30 -26 -44 0 -13 -7 -31 -16 -39 -8 -9 -14
-24 -11 -34 3 -15 5 -15 12 3 5 11 12 23 17 26 5 3 10 15 11 27 1 12 6 21 12
21 25 -3 34 2 29 15 -3 8 -1 17 5 21 13 7 15 25 2 25 -4 0 -20 -9 -35 -21z"/>
<path d="M3567 3031 c-21 -20 -39 -46 -40 -59 -1 -12 -5 -22 -9 -22 -12 0 -38
-57 -38 -85 0 -15 7 -34 16 -42 12 -13 15 -13 14 -2 -5 30 1 49 13 49 23 0 84
84 68 94 -5 3 -14 -1 -21 -9 -7 -8 -16 -12 -21 -9 -10 6 17 64 31 64 4 0 15
14 24 30 19 39 10 37 -37 -9z"/>
<path d="M3555 2870 c3 -5 8 -10 11 -10 2 0 4 5 4 10 0 6 -5 10 -11 10 -5 0
-7 -4 -4 -10z"/>
<path d="M3520 2850 c0 -5 5 -10 10 -10 6 0 10 5 10 10 0 6 -4 10 -10 10 -5 0
-10 -4 -10 -10z"/>
<path d="M3565 2821 c-11 -5 -22 -7 -25 -6 -3 2 -10 -8 -17 -21 -6 -13 -7 -24
-3 -24 23 0 60 21 70 40 11 21 7 23 -25 11z"/>
<path d="M3530 2710 c0 -5 6 -10 14 -10 8 0 18 5 21 10 3 6 -3 10 -14 10 -12
0 -21 -4 -21 -10z"/>
<path d="M3958 2639 c-21 -11 -38 -21 -38 -23 0 -7 104 24 114 34 18 18 -37
10 -76 -11z"/>
<path d="M3688 2593 c7 -3 16 -2 19 1 4 3 -2 6 -13 5 -11 0 -14 -3 -6 -6z"/>
<path d="M3860 2589 c0 -5 5 -7 10 -4 6 3 10 8 10 11 0 2 -4 4 -10 4 -5 0 -10
-5 -10 -11z"/>
<path d="M3701 2461 c-12 -12 -23 -21 -26 -21 -3 0 -15 -9 -27 -19 -11 -11
-34 -27 -52 -36 l-31 -16 40 6 c22 3 49 5 59 6 24 0 52 15 88 45 15 12 33 24
40 27 19 7 7 14 -34 22 -29 6 -40 3 -57 -14z"/>
<path d="M3597 2340 c-21 -4 -43 -12 -50 -19 -6 -6 -19 -11 -29 -11 -11 0 -15
-5 -12 -14 6 -15 -7 -21 -73 -31 -24 -4 -43 -11 -43 -17 0 -6 13 -8 33 -4 51
9 63 -7 21 -28 -41 -19 -37 -31 9 -31 26 0 33 -5 35 -22 2 -13 8 -23 14 -23 6
0 8 11 6 25 -3 14 -1 25 4 25 5 0 6 5 3 10 -3 6 4 10 17 10 24 0 83 19 106 33
18 12 15 27 -7 27 -31 0 -33 15 -6 44 14 15 25 29 25 32 0 5 0 5 -53 -6z m-17
-70 c0 -5 -7 -10 -15 -10 -7 0 -18 -8 -24 -17 -5 -10 -12 -15 -15 -12 -9 8 24
49 40 49 8 0 14 -4 14 -10z m-60 -14 c0 -3 -4 -8 -10 -11 -5 -3 -10 -1 -10 4
0 6 5 11 10 11 6 0 10 -2 10 -4z"/>
<path d="M3650 2300 c0 -5 5 -10 10 -10 6 0 10 5 10 10 0 6 -4 10 -10 10 -5 0
-10 -4 -10 -10z"/>
<path d="M3710 2240 c0 -13 20 -13 40 0 12 8 9 10 -12 10 -16 0 -28 -4 -28
-10z"/>
<path d="M3568 2183 c7 -3 16 -2 19 1 4 3 -2 6 -13 5 -11 0 -14 -3 -6 -6z"/>
<path d="M3558 2138 c9 -9 15 -9 24 0 9 9 7 12 -12 12 -19 0 -21 -3 -12 -12z"/>
<path d="M3617 2129 c4 -14 9 -17 16 -10 6 6 22 11 35 11 13 0 20 4 17 10 -3
6 -21 10 -40 10 -29 0 -32 -3 -28 -21z"/>
<path d="M3515 2090 c-4 -6 2 -9 14 -7 29 4 39 17 13 17 -11 0 -24 -5 -27 -10z"/>
<path d="M3596 2092 c-6 -10 40 -10 50 1 4 4 -4 7 -19 7 -14 0 -28 -4 -31 -8z"/>
<path d="M3275 2070 c-3 -5 3 -10 15 -10 12 0 18 5 15 10 -3 6 -10 10 -15 10
-5 0 -12 -4 -15 -10z"/>
<path d="M3450 2031 c0 -5 -7 -8 -16 -7 -9 0 -19 -5 -21 -11 -7 -19 19 -15 47
7 20 16 22 20 8 20 -10 0 -18 -4 -18 -9z"/>
<path d="M3360 1980 c0 -5 4 -10 9 -10 6 0 13 5 16 10 3 6 -1 10 -9 10 -9 0
-16 -4 -16 -10z"/>
<path d="M3386 1871 c-10 -15 36 -20 51 -5 13 12 11 14 -16 14 -16 0 -32 -4
-35 -9z"/>
<path d="M3800 1800 c0 -13 11 -13 30 0 12 8 11 10 -7 10 -13 0 -23 -4 -23
-10z"/>
<path d="M3860 1796 c0 -9 5 -16 10 -16 6 0 10 4 10 9 0 6 -4 13 -10 16 -5 3
-10 -1 -10 -9z"/>
<path d="M3365 1790 c3 -5 8 -10 11 -10 2 0 4 5 4 10 0 6 -5 10 -11 10 -5 0
-7 -4 -4 -10z"/>
<path d="M3320 1780 c0 -6 7 -13 15 -17 24 -9 27 1 5 15 -13 8 -20 8 -20 2z"/>
<path d="M3680 1771 c0 -14 64 -33 84 -25 9 4 15 12 13 18 -4 14 -97 21 -97 7z"/>
<path d="M3106 1752 c-6 -10 26 -22 59 -22 16 1 17 2 5 9 -28 16 -58 22 -64
13z"/>
<path d="M3608 1673 c7 -3 16 -2 19 1 4 3 -2 6 -13 5 -11 0 -14 -3 -6 -6z"/>
<path d="M2987 1609 c7 -7 15 -10 18 -7 3 3 -2 9 -12 12 -14 6 -15 5 -6 -5z"/>
<path d="M3085 1500 c3 -5 14 -10 23 -10 15 0 15 2 2 10 -20 13 -33 13 -25 0z"/>
<path d="M2980 1490 c0 -5 7 -10 16 -10 8 0 12 5 9 10 -3 6 -10 10 -16 10 -5
0 -9 -4 -9 -10z"/>
<path d="M3395 1320 c3 -5 11 -10 16 -10 6 0 7 5 4 10 -3 6 -11 10 -16 10 -6
0 -7 -4 -4 -10z"/>
<path d="M2051 1254 c0 -11 3 -14 6 -6 3 7 2 16 -1 19 -3 4 -6 -2 -5 -13z"/>
<path d="M2130 1239 c0 -5 5 -7 10 -4 6 3 10 8 10 11 0 2 -4 4 -10 4 -5 0 -10
-5 -10 -11z"/>
<path d="M1791 1204 c0 -11 3 -14 6 -6 3 7 2 16 -1 19 -3 4 -6 -2 -5 -13z"/>
<path d="M3374 1175 c10 -8 23 -12 29 -8 11 7 -12 23 -33 23 -12 -1 -11 -4 4
-15z"/>
<path d="M2760 1150 c0 -5 5 -10 11 -10 5 0 7 5 4 10 -3 6 -8 10 -11 10 -2 0
-4 -4 -4 -10z"/>
<path d="M3130 1141 c0 -5 5 -13 10 -16 6 -3 10 -2 10 4 0 5 -4 13 -10 16 -5
3 -10 2 -10 -4z"/>
<path d="M2601 1120 c0 -14 28 -72 29 -59 0 4 -7 22 -15 40 -8 19 -14 27 -14
19z"/>
<path d="M1780 1111 c0 -5 5 -13 10 -16 6 -3 10 -2 10 4 0 5 -4 13 -10 16 -5
3 -10 2 -10 -4z"/>
<path d="M2570 1081 c0 -6 5 -13 10 -16 6 -3 10 1 10 9 0 9 -4 16 -10 16 -5 0
-10 -4 -10 -9z"/>
<path d="M2940 1029 c0 -37 23 -77 75 -129 38 -37 47 -42 55 -30 17 26 12 50
-10 50 -13 0 -20 7 -20 20 0 11 -7 23 -15 26 -8 4 -15 13 -15 21 0 8 -5 11
-11 7 -6 -3 -8 -16 -5 -28 5 -20 5 -20 -9 -2 -8 11 -15 27 -15 36 0 9 -7 25
-15 36 -14 18 -14 18 -15 -7z"/>
<path d="M2216 1015 c4 -16 14 -46 22 -65 12 -27 17 -31 20 -17 2 10 -3 26
-12 36 -9 10 -16 24 -16 32 0 8 -5 21 -10 29 -8 11 -9 7 -4 -15z"/>
<path d="M1981 1004 c0 -11 3 -14 6 -6 3 7 2 16 -1 19 -3 4 -6 -2 -5 -13z"/>
<path d="M2760 924 c0 -4 9 -22 21 -40 12 -21 18 -41 14 -54 -5 -15 0 -23 19
-32 15 -6 29 -9 32 -5 7 7 -32 96 -53 119 -16 18 -33 24 -33 12z"/>
<path d="M2226 800 c3 -19 10 -39 15 -44 14 -15 11 8 -6 45 l-16 34 7 -35z"/>
<path d="M3072 743 c19 -43 35 -65 42 -55 5 8 -39 82 -49 82 -3 0 1 -12 7 -27z"/>
<path d="M3316 731 c-4 -7 -5 -15 -2 -18 9 -9 19 4 14 18 -4 11 -6 11 -12 0z"/>
<path d="M2170 650 c0 -5 5 -10 10 -10 6 0 10 5 10 10 0 6 -4 10 -10 10 -5 0
-10 -4 -10 -10z"/>
<path d="M2180 590 c0 -5 5 -10 10 -10 6 0 10 5 10 10 0 6 -4 10 -10 10 -5 0
-10 -4 -10 -10z"/>
<path d="M3203 495 c-10 -10 -9 -16 1 -24 15 -13 26 -5 26 21 0 21 -10 23 -27
3z"/>
<path d="M3246 468 c8 -28 12 -33 20 -25 9 8 -6 47 -17 47 -6 0 -7 -10 -3 -22z"/>
<path d="M3386 453 c2 -35 1 -36 -11 -19 -8 10 -12 22 -10 26 6 10 -26 23 -34
15 -3 -3 0 -10 7 -14 19 -12 3 -43 -18 -36 -12 4 -22 -1 -29 -12 -6 -10 -11
-13 -11 -7 0 7 -7 14 -15 17 -11 5 -13 -3 -11 -36 2 -23 6 -49 9 -57 3 -8 8
-28 12 -43 4 -22 3 -27 -7 -21 -7 4 -3 -3 10 -15 12 -12 22 -26 22 -32 0 -6 4
-8 10 -4 5 3 14 -12 21 -34 7 -22 16 -38 20 -35 5 3 9 -2 9 -10 0 -9 4 -16 8
-16 11 0 3 -58 -9 -66 -15 -9 -10 -44 6 -44 9 0 15 9 15 24 0 13 6 29 14 35
12 10 15 7 18 -21 l3 -33 193 -3 c130 -2 192 1 192 8 0 19 -64 160 -73 160 -4
0 -6 -4 -3 -8 2 -4 -4 -19 -14 -32 l-18 -24 -7 36 c-4 20 -4 51 0 68 6 29 5
30 -12 20 -11 -7 -19 -23 -19 -38 1 -14 -5 -27 -11 -29 -18 -6 -16 37 5 116
16 59 42 94 42 56 0 -18 29 -65 40 -65 4 0 0 30 -8 66 -13 53 -18 63 -28 50
-6 -9 -13 -14 -15 -11 -5 4 -36 -56 -57 -107 -12 -30 -32 -38 -32 -13 0 9 -6
12 -15 9 -8 -4 -15 -1 -15 5 0 6 11 11 23 11 30 0 36 6 30 29 -3 13 -11 17
-29 13 -13 -2 -24 -8 -24 -13 0 -5 -5 -9 -11 -9 -6 0 -9 8 -7 18 2 11 -6 21
-25 29 -21 10 -27 17 -22 32 4 14 -3 22 -30 35 -19 9 -42 28 -51 42 -23 34
-32 30 -28 -13z m222 -239 c2 -11 -6 -28 -16 -37 -17 -16 -21 -16 -32 -2 -10
13 -9 15 9 15 11 0 21 5 21 11 0 5 -4 8 -9 5 -5 -3 -11 3 -14 15 -4 16 -1 20
16 17 13 -2 23 -11 25 -24z m-134 -69 c-3 -6 4 -20 16 -30 11 -10 20 -21 20
-25 0 -12 -54 1 -72 18 -21 18 -23 35 -6 61 10 16 13 17 29 3 9 -8 15 -20 13
-27z m80 0 c3 -8 4 -15 2 -15 -3 0 -12 -3 -22 -7 -12 -4 -15 -3 -10 5 4 7 2
12 -6 12 -9 0 -9 3 2 10 21 13 27 12 34 -5z m60 -4 c4 -5 -3 -7 -14 -4 -23 6
-26 13 -6 13 8 0 17 -4 20 -9z m81 -80 c3 -5 1 -12 -5 -16 -5 -3 -10 1 -10 9
0 18 6 21 15 7z"/>
<path d="M4064 394 c-7 -3 -10 -14 -7 -24 4 -14 0 -20 -11 -20 -9 0 -16 -4
-16 -10 0 -5 4 -10 9 -10 5 0 11 -10 13 -22 2 -12 9 -23 16 -26 9 -3 12 13 12
57 0 34 -1 61 -2 60 -2 0 -8 -3 -14 -5z"/>
<path d="M3725 370 c3 -5 8 -10 11 -10 2 0 4 5 4 10 0 6 -5 10 -11 10 -5 0 -7
-4 -4 -10z"/>
<path d="M3565 360 c-3 -5 -1 -10 4 -10 6 0 11 5 11 10 0 6 -2 10 -4 10 -3 0
-8 -4 -11 -10z"/>
<path d="M3763 298 c-13 -18 -11 -32 10 -52 9 -10 21 -25 27 -35 11 -21 9 -62
-2 -55 -15 10 -19 -44 -5 -68 8 -12 17 -35 21 -50 l6 -28 130 0 c123 0 130 1
130 20 0 13 -5 18 -15 14 -8 -4 -15 -2 -15 4 0 5 7 15 15 22 9 7 15 29 15 51
0 30 -3 37 -15 33 -10 -4 -15 0 -15 11 0 11 5 15 15 11 12 -4 15 4 15 39 0 35
-5 47 -26 64 -32 25 -41 26 -60 6 -12 -11 -12 -19 -4 -35 6 -11 7 -20 3 -21
-26 -4 -58 5 -75 21 -22 20 -58 33 -58 20 0 -4 -7 -11 -16 -14 -11 -4 -26 4
-44 24 -21 23 -29 27 -37 18z m277 -202 c0 -2 -9 -6 -20 -9 -11 -3 -18 -1 -14
4 5 9 34 13 34 5z m-30 -66 c0 -5 -14 -10 -31 -10 -17 0 -28 4 -24 10 3 6 17
10 31 10 13 0 24 -4 24 -10z"/>
<path d="M3196 292 c25 -16 82 -202 62 -202 -4 0 -11 13 -14 29 -4 17 -14 31
-24 34 -24 6 -29 1 -23 -24 4 -16 8 -17 14 -8 5 9 10 -1 15 -29 4 -23 10 -42
15 -42 5 0 9 -9 9 -20 0 -15 7 -20 28 -20 l28 0 -7 68 c-10 96 -69 222 -103
222 -8 0 -7 -3 0 -8z"/>
<path d="M3150 261 c0 -19 26 -48 36 -39 7 8 -14 58 -26 58 -5 0 -10 -8 -10
-19z"/>
<path d="M2365 250 c-3 -5 -1 -10 4 -10 6 0 11 5 11 10 0 6 -2 10 -4 10 -3 0
-8 -4 -11 -10z"/>
<path d="M3316 85 c3 -16 11 -34 17 -40 6 -7 7 0 3 20 -4 17 -12 35 -17 40 -7
7 -8 0 -3 -20z"/>
</g>
</svg>
