<?xml version="1.0" encoding="UTF-8"?>
<!DOCTYPE svg PUBLIC "-//W3C//DTD SVG 1.1//EN" "http://www.w3.org/Graphics/SVG/1.1/DTD/svg11.dtd">
<svg version="1.1" xmlns="http://www.w3.org/2000/svg" xmlns:xlink="http://www.w3.org/1999/xlink" x="0" y="0" width="39.923" height="24" viewBox="0, 0, 39.923, 24">
  <defs>
    <clipPath id="Clip_1">
      <path d="M155.437,486.75 L195.861,486.75 L195.861,511.25 L155.437,511.25 z M167.375,488.75 L167.125,488.75 L167.125,488.789 C161.728,489.317 157.602,493.516 157.437,498.996 C157.934,504.29 161.505,508.939 167.125,509.215 L167.125,509.25 L184.125,509.25 L184.125,509.213 C189.537,508.686 193.698,504.513 193.861,499.004 C193.361,493.688 189.764,489.045 184.125,488.781 L184.125,488.75 L183.613,488.75 L183.623,488.75 L183.596,488.75 L167.375,488.75 z"/>
    </clipPath>
    <filter id="Shadow_2">
      <feGaussianBlur in="SourceAlpha" stdDeviation="0.5"/>
      <feOffset dx="0" dy="0" result="offsetblur"/>
      <feFlood flood-color="#B3B3B3"/>
      <feComposite in2="offsetblur" operator="in"/>
    </filter>
    <clipPath id="Clip_3">
      <path d="M156.486,487.75 L178.986,487.75 L178.986,510.25 L156.486,510.25 z M167.736,489.75 C162.627,489.75 158.486,493.891 158.486,499 C158.486,504.109 162.627,508.25 167.736,508.25 C172.844,508.25 176.986,504.109 176.986,499 C176.986,493.891 172.844,489.75 167.736,489.75 z"/>
    </clipPath>
    <filter id="Shadow_4">
      <feGaussianBlur in="SourceAlpha" stdDeviation="0.5"/>
      <feOffset dx="0" dy="0" result="offsetblur"/>
      <feFlood flood-color="#B3B3B3"/>
      <feComposite in2="offsetblur" operator="in"/>
    </filter>
  </defs>
  <g id="Layer_1" transform="translate(-155.187, -486.5)">
    <g>
      <g>
        <path d="M167.375,509 L167.375,508.984 C161.844,508.831 157.956,504.322 157.687,499 C157.78,493.581 161.98,489.288 167.375,489.016 L167.375,489 L183.609,489 L183.611,489 L183.613,489 L183.875,489 L183.875,489.013 C189.426,489.156 193.341,493.649 193.611,499 C193.518,504.456 189.287,508.713 183.875,508.987 L183.875,509 L167.375,509 z" fill="#D5D5D5"/>
        <path d="M167.375,509 L167.375,508.984 C161.844,508.831 157.956,504.322 157.687,499 C157.78,493.581 161.98,489.288 167.375,489.016 L167.375,489 L183.609,489 L183.611,489 L183.613,489 L183.875,489 L183.875,489.013 C189.426,489.156 193.341,493.649 193.611,499 C193.518,504.456 189.287,508.713 183.875,508.987 L183.875,509 L167.375,509 z" fill-opacity="0" stroke="#000000" stroke-width="0.5"/>
        <g>
          <path d="M167.375,488.75 L183.596,488.75 L183.623,488.75 L183.613,488.75 L184.125,488.75 L184.125,488.781 C189.764,489.045 193.361,493.688 193.861,499.004 C193.698,504.513 189.537,508.686 184.125,509.213 L184.125,509.25 L167.125,509.25 L167.125,509.215 C161.505,508.939 157.934,504.29 157.437,498.996 C157.602,493.516 161.728,489.317 167.125,488.789 L167.125,488.75 L167.375,488.75 z" fill="rgba(0,0,0,0.25)" clip-path="url(#Clip_1)" filter="url(#Shadow_2)"/>
          <path d="M167.375,489 L183.596,489 L183.624,489 C183.954,488.999 183.957,488.506 183.628,488.5 L183.617,488.5 L183.613,488.75 L183.613,489 L184.125,489 L184.125,488.75 L183.875,488.75 L183.875,488.781 C183.875,488.915 183.98,489.025 184.113,489.031 C189.323,489.275 193.09,493.475 193.612,499.028 C193.454,504.31 189.46,508.442 184.101,508.964 C183.973,508.977 183.875,509.084 183.875,509.213 L183.875,509.25 L184.125,509.25 L184.125,509 L167.125,509 L167.125,509.25 L167.375,509.25 L167.375,509.215 C167.375,509.082 167.27,508.972 167.137,508.966 C161.952,508.71 158.206,504.51 157.686,498.972 C157.847,493.704 161.821,489.559 167.149,489.038 C167.277,489.026 167.375,488.918 167.375,488.789 L167.375,488.75 L167.125,488.75 L167.125,489 L167.375,489 z M167.375,488.5 L167.125,488.5 C166.987,488.5 166.875,488.612 166.875,488.75 L166.875,488.789 L167.125,488.789 L167.101,488.54 C161.525,489.085 157.355,493.435 157.188,498.988 C157.73,504.79 161.66,509.197 167.113,509.465 L167.125,509.215 L166.875,509.215 L166.875,509.25 C166.875,509.388 166.987,509.5 167.125,509.5 L184.125,509.5 C184.263,509.5 184.375,509.388 184.375,509.25 L184.375,509.213 L184.125,509.213 L184.149,509.462 C189.756,508.916 193.946,504.58 194.11,499.012 C193.566,493.195 189.613,488.788 184.137,488.532 L184.125,488.781 L184.375,488.781 L184.375,488.75 C184.375,488.612 184.263,488.5 184.125,488.5 L183.613,488.5 C183.282,488.5 183.278,488.994 183.608,489 L183.618,489 L183.623,488.75 L183.622,488.5 L183.595,488.5 L167.375,488.5 z" fill="rgba(0,0,0,0.25)" clip-path="url(#Clip_1)" filter="url(#Shadow_2)"/>
        </g>
      </g>
      <g>
        <path d="M167.736,508 C162.765,508 158.736,503.971 158.736,499 C158.736,494.029 162.765,490 167.736,490 C172.706,490 176.736,494.029 176.736,499 C176.736,503.971 172.706,508 167.736,508 z" fill="#FFFFFF"/>
        <path d="M167.736,508 C162.765,508 158.736,503.971 158.736,499 C158.736,494.029 162.765,490 167.736,490 C172.706,490 176.736,494.029 176.736,499 C176.736,503.971 172.706,508 167.736,508 z" fill-opacity="0" stroke="#000000" stroke-width="0.5"/>
        <g>
          <path d="M167.736,489.75 C172.844,489.75 176.986,493.891 176.986,499 C176.986,504.109 172.844,508.25 167.736,508.25 C162.627,508.25 158.486,504.109 158.486,499 C158.486,493.891 162.627,489.75 167.736,489.75 z" fill="rgba(0,0,0,0.25)" clip-path="url(#Clip_3)" filter="url(#Shadow_4)"/>
          <path d="M167.736,490 C172.706,490 176.736,494.029 176.736,499 C176.736,503.971 172.706,508 167.736,508 C162.765,508 158.736,503.971 158.736,499 C158.736,494.029 162.765,490 167.736,490 z M167.736,489.5 C162.489,489.5 158.236,493.753 158.236,499 C158.236,504.247 162.489,508.5 167.736,508.5 C172.982,508.5 177.236,504.247 177.236,499 C177.236,493.753 172.982,489.5 167.736,489.5 z" fill="rgba(0,0,0,0.25)" clip-path="url(#Clip_3)" filter="url(#Shadow_4)"/>
        </g>
      </g>
      <g>
        <g>
          <path d="M187.161,499.198 L185.111,502.75 L183.06,499.198 z" fill="#959595"/>
          <path d="M187.161,499.198 L185.111,502.75 L183.06,499.198 z" fill-opacity="0" stroke="#959595" stroke-width="1"/>
        </g>
        <g>
          <path d="M185.111,495.25 C186.501,495.25 187.628,496.377 187.628,497.767 C187.628,499.157 186.501,500.284 185.111,500.284 C183.72,500.284 182.593,499.157 182.593,497.767 C182.593,496.377 183.72,495.25 185.111,495.25 z" fill="#959595"/>
          <path d="M185.111,495.25 C186.501,495.25 187.628,496.377 187.628,497.767 C187.628,499.157 186.501,500.284 185.111,500.284 C183.72,500.284 182.593,499.157 182.593,497.767 C182.593,496.377 183.72,495.25 185.111,495.25 z" fill-opacity="0" stroke="#959595" stroke-width="1"/>
        </g>
      </g>
      <g>
        <path d="M185.111,499.302 C184.216,499.302 183.49,498.576 183.49,497.681 C183.49,496.786 184.216,496.06 185.111,496.06 C186.006,496.06 186.731,496.786 186.731,497.681 C186.731,498.576 186.006,499.302 185.111,499.302 z" fill="#FFFFFF"/>
        <path d="M185.111,499.302 C184.216,499.302 183.49,498.576 183.49,497.681 C183.49,496.786 184.216,496.06 185.111,496.06 C186.006,496.06 186.731,496.786 186.731,497.681 C186.731,498.576 186.006,499.302 185.111,499.302 z" fill-opacity="0" stroke="#959595" stroke-width="1"/>
      </g>
      <g>
        <g>
          <path d="M163.736,495.175 L171.736,495.175 L171.736,502.825 L163.736,502.825 L163.736,495.175 z" fill="#FFFFFF"/>
          <path d="M163.736,495.175 L171.736,495.175 L171.736,502.825 L163.736,502.825 L163.736,495.175 z" fill-opacity="0" stroke="#000000" stroke-width="1"/>
        </g>
        <path d="M165.661,497.924 C165.316,497.924 165.036,497.496 165.036,496.968 C165.036,496.44 165.316,496.012 165.661,496.012 C166.007,496.012 166.286,496.44 166.286,496.968 C166.286,497.496 166.007,497.924 165.661,497.924 z" fill-opacity="0" stroke="#000000" stroke-width="1"/>
        <path d="M163.736,500.972 L164.822,498.91 L166.072,500.404" fill-opacity="0" stroke="#000000" stroke-width="1"/>
        <path d="M165.173,502.825 L167.009,497.924 L170.329,502.825" fill-opacity="0" stroke="#000000" stroke-width="1"/>
        <path d="M169.021,500.793 L170.505,498.163 L171.736,499.867" fill-opacity="0" stroke="#000000" stroke-width="1"/>
      </g>
    </g>
  </g>
</svg>
