<?xml version="1.0" encoding="UTF-8"?>
<!DOCTYPE svg PUBLIC "-//W3C//DTD SVG 1.1//EN" "http://www.w3.org/Graphics/SVG/1.1/DTD/svg11.dtd">
<svg version="1.1" xmlns="http://www.w3.org/2000/svg" xmlns:xlink="http://www.w3.org/1999/xlink" x="0" y="0" width="27" height="27" viewBox="0, 0, 27, 27">
  <g id="Layer_1" transform="translate(-71, -287)">
    <path d="M72.5,288.5 L97.5,288.5 L97.5,313.5 L72.5,313.5 L72.5,288.5 z" fill-opacity="0" stroke="#000000" stroke-width="1"/>
    <g>
      <g>
        <g>
          <path d="M88.759,301.363 L85,307.875 L81.241,301.363 z" fill="#000000"/>
          <path d="M88.759,301.363 L85,307.875 L81.241,301.363 z" fill-opacity="0" stroke="#000000" stroke-width="1"/>
        </g>
        <g>
          <path d="M85,294.125 C87.549,294.125 89.615,296.191 89.615,298.74 C89.615,301.289 87.549,303.355 85,303.355 C82.451,303.355 80.385,301.289 80.385,298.74 C80.385,296.191 82.451,294.125 85,294.125 z" fill="#000000"/>
          <path d="M85,294.125 C87.549,294.125 89.615,296.191 89.615,298.74 C89.615,301.289 87.549,303.355 85,303.355 C82.451,303.355 80.385,301.289 80.385,298.74 C80.385,296.191 82.451,294.125 85,294.125 z" fill-opacity="0" stroke="#000000" stroke-width="1"/>
        </g>
      </g>
      <g>
        <path d="M85,301.553 C83.359,301.553 82.029,300.223 82.029,298.582 C82.029,296.941 83.359,295.611 85,295.611 C86.641,295.611 87.971,296.941 87.971,298.582 C87.971,300.223 86.641,301.553 85,301.553 z" fill="#FFFFFF"/>
        <path d="M85,301.553 C83.359,301.553 82.029,300.223 82.029,298.582 C82.029,296.941 83.359,295.611 85,295.611 C86.641,295.611 87.971,296.941 87.971,298.582 C87.971,300.223 86.641,301.553 85,301.553 z" fill-opacity="0" stroke="#000000" stroke-width="1"/>
      </g>
    </g>
  </g>
</svg>
