<?xml version="1.0" encoding="UTF-8"?>
<!DOCTYPE svg PUBLIC "-//W3C//DTD SVG 1.1//EN" "http://www.w3.org/Graphics/SVG/1.1/DTD/svg11.dtd">
<svg version="1.1" xmlns="http://www.w3.org/2000/svg" xmlns:xlink="http://www.w3.org/1999/xlink" x="0" y="0" width="24" height="24" viewBox="0, 0, 48, 48">
  <g id="Layer_1" transform="translate(-235, -65)">
    <g>
      <g>
        <path d="M257.688,100 C255.789,100 254.25,95.691 254.25,90.375 C254.25,85.059 255.789,80.75 257.688,80.75 C259.586,80.75 261.125,85.059 261.125,90.375 C261.125,95.691 259.586,100 257.688,100 z" fill="#000000"/>
        <path d="M257.688,100 C255.789,100 254.25,95.691 254.25,90.375 C254.25,85.059 255.789,80.75 257.688,80.75 C259.586,80.75 261.125,85.059 261.125,90.375 C261.125,95.691 259.586,100 257.688,100 z" fill-opacity="0" stroke="#000000" stroke-width="1"/>
      </g>
      <g>
        <path d="M261.312,99.875 C259.414,99.875 257.875,95.566 257.875,90.25 C257.875,84.934 259.414,80.625 261.312,80.625 C263.211,80.625 264.75,84.934 264.75,90.25 C264.75,95.566 263.211,99.875 261.312,99.875 z" fill="#000000"/>
        <path d="M261.312,99.875 C259.414,99.875 257.875,95.566 257.875,90.25 C257.875,84.934 259.414,80.625 261.312,80.625 C263.211,80.625 264.75,84.934 264.75,90.25 C264.75,95.566 263.211,99.875 261.312,99.875 z" fill-opacity="0" stroke="#000000" stroke-width="1"/>
      </g>
      <g>
        <path d="M259.438,100.875 C256.296,100.875 253.75,96.566 253.75,91.25 C253.75,85.934 256.296,81.625 259.438,81.625 C262.579,81.625 265.125,85.934 265.125,91.25 C265.125,96.566 262.579,100.875 259.438,100.875 z" fill="#000000"/>
        <path d="M259.438,100.875 C256.296,100.875 253.75,96.566 253.75,91.25 C253.75,85.934 256.296,81.625 259.438,81.625 C262.579,81.625 265.125,85.934 265.125,91.25 C265.125,96.566 262.579,100.875 259.438,100.875 z" fill-opacity="0" stroke="#000000" stroke-width="1"/>
      </g>
    </g>
    <g>
      <g>
        <path d="M255.125,82.75 L251.25,79.625" fill-opacity="0" stroke="#000000" stroke-width="1" stroke-linecap="round"/>
        <path d="M251.25,79.5 L252.5,73.125" fill-opacity="0" stroke="#000000" stroke-width="1" stroke-linecap="round"/>
      </g>
      <g>
        <path d="M248.562,81.844 L248.719,76.625" fill-opacity="0" stroke="#000000" stroke-width="1" stroke-linecap="round"/>
        <path d="M254.625,85.156 L248.562,81.844" fill-opacity="0" stroke="#000000" stroke-width="1" stroke-linecap="round"/>
      </g>
      <g>
        <path d="M253.844,88.781 L248.562,92.594" fill-opacity="0" stroke="#000000" stroke-width="1" stroke-linecap="round"/>
        <path d="M248.531,92.594 L247.5,97.5" fill-opacity="0" stroke="#000000" stroke-width="1" stroke-linecap="round"/>
      </g>
      <g>
        <path d="M253.656,91.844 L251.344,97" fill-opacity="0" stroke="#000000" stroke-width="1" stroke-linecap="round"/>
        <path d="M251.344,97 L252.094,103.812" fill-opacity="0" stroke="#000000" stroke-width="1" stroke-linecap="round"/>
      </g>
    </g>
    <g>
      <g>
        <path d="M263.75,82.75 L267.625,79.625" fill-opacity="0" stroke="#000000" stroke-width="1" stroke-linecap="round"/>
        <path d="M267.625,79.5 L266.375,73.125" fill-opacity="0" stroke="#000000" stroke-width="1" stroke-linecap="round"/>
      </g>
      <g>
        <path d="M270.312,81.844 L270.156,76.625" fill-opacity="0" stroke="#000000" stroke-width="1" stroke-linecap="round"/>
        <path d="M264.25,85.156 L270.312,81.844" fill-opacity="0" stroke="#000000" stroke-width="1" stroke-linecap="round"/>
      </g>
      <g>
        <path d="M265.031,88.781 L270.312,92.594" fill-opacity="0" stroke="#000000" stroke-width="1" stroke-linecap="round"/>
        <path d="M270.344,92.594 L271.375,97.5" fill-opacity="0" stroke="#000000" stroke-width="1" stroke-linecap="round"/>
      </g>
      <g>
        <path d="M265.219,91.844 L267.531,97" fill-opacity="0" stroke="#000000" stroke-width="1" stroke-linecap="round"/>
        <path d="M267.531,97 L266.781,103.812" fill-opacity="0" stroke="#000000" stroke-width="1" stroke-linecap="round"/>
      </g>
    </g>
  </g>
</svg>
