<?xml version="1.0" encoding="UTF-8"?>
<!DOCTYPE svg PUBLIC "-//W3C//DTD SVG 1.1//EN" "http://www.w3.org/Graphics/SVG/1.1/DTD/svg11.dtd">
<svg version="1.1" xmlns="http://www.w3.org/2000/svg" xmlns:xlink="http://www.w3.org/1999/xlink" x="0" y="0" width="48" height="48" viewBox="0, 0, 48, 48">
  <g id="Layer_1" transform="translate(-52, -339.4)">
    <g>
      <g>
        <g>
          <path d="M78.498,370.073 C82.025,372.083 80.945,378.407 78.498,380.854 C77.765,381.587 78.055,382.013 76.858,382.612 L78.498,370.073 z" fill="#000000"/>
          <path d="M78.498,370.073 C82.025,372.083 80.945,378.407 78.498,380.854 C77.765,381.587 78.055,382.013 76.858,382.612 L78.498,370.073 z" fill-opacity="0" stroke="#000000" stroke-width="1" stroke-linecap="round" stroke-linejoin="round"/>
        </g>
        <g>
          <path d="M77.326,382.553 L77.144,382.45" fill="#000000"/>
          <path d="M77.326,382.553 L77.144,382.45" fill-opacity="0" stroke="#000000" stroke-width="1" stroke-linecap="round" stroke-linejoin="round"/>
        </g>
        <g>
          <path d="M76.899,382.298 C76.341,381.923 76.119,381.284 75.686,380.795 C73.239,378.348 72.159,372.025 75.686,370.014" fill="#000000"/>
          <path d="M76.899,382.298 C76.341,381.923 76.119,381.284 75.686,380.795 C73.239,378.348 72.159,372.025 75.686,370.014" fill-opacity="0" stroke="#000000" stroke-width="1" stroke-linecap="round" stroke-linejoin="round"/>
        </g>
        <g>
          <path d="M76.858,355.366 L76.446,361.797 C76.707,361.851 76.623,361.784 76.74,361.928 C76.668,362.092 76.509,362.272 76.407,362.408 L75.92,370.014 C75.627,369.463 76.008,368.109 75.568,367.67 C75.422,367.524 75.093,367.368 74.983,367.202 C74.906,367.087 75.041,364.625 75.1,364.389 C75.405,363.658 75.935,363.036 76.407,362.408 L76.446,361.797 C76.104,361.731 75.893,361.876 75.568,361.694 C75.367,361.492 75.397,361.009 75.334,360.756 C74.822,358.709 74.68,356.455 76.858,355.366 z" fill="#000000"/>
          <path d="M76.858,355.366 L76.446,361.797 C76.707,361.851 76.623,361.784 76.74,361.928 C76.668,362.092 76.509,362.272 76.407,362.408 L75.92,370.014 C75.627,369.463 76.008,368.109 75.568,367.67 C75.422,367.524 75.093,367.368 74.983,367.202 C74.906,367.087 75.041,364.625 75.1,364.389 C75.405,363.658 75.935,363.036 76.407,362.408 L76.446,361.797 C76.104,361.731 75.893,361.876 75.568,361.694 C75.367,361.492 75.397,361.009 75.334,360.756 C74.822,358.709 74.68,356.455 76.858,355.366 z" fill-opacity="0" stroke="#000000" stroke-width="1" stroke-linecap="round" stroke-linejoin="round"/>
        </g>
        <g>
          <path d="M77.326,355.307 C79.504,356.396 79.362,358.65 78.85,360.698 C78.787,360.951 78.817,361.434 78.615,361.635 C78.357,361.814 78.022,361.68 77.738,361.739 L77.777,362.35 C78.241,362.989 78.776,363.596 79.084,364.331 C79.143,364.567 79.278,367.028 79.201,367.143 C79.09,367.309 78.761,367.466 78.615,367.612 C78.176,368.051 78.556,369.404 78.264,369.956 L77.777,362.35 C77.691,362.187 77.507,362.05 77.443,361.87 C77.561,361.726 77.477,361.792 77.738,361.739 L77.326,355.307 z" fill="#000000"/>
          <path d="M77.326,355.307 C79.504,356.396 79.362,358.65 78.85,360.698 C78.787,360.951 78.817,361.434 78.615,361.635 C78.357,361.814 78.022,361.68 77.738,361.739 L77.777,362.35 C78.241,362.989 78.776,363.596 79.084,364.331 C79.143,364.567 79.278,367.028 79.201,367.143 C79.09,367.309 78.761,367.466 78.615,367.612 C78.176,368.051 78.556,369.404 78.264,369.956 L77.777,362.35 C77.691,362.187 77.507,362.05 77.443,361.87 C77.561,361.726 77.477,361.792 77.738,361.739 L77.326,355.307 z" fill-opacity="0" stroke="#000000" stroke-width="1" stroke-linecap="round" stroke-linejoin="round"/>
        </g>
        <path d="M75.334,356.303 L75.334,356.303" fill-opacity="0" stroke="#000000" stroke-width="1" stroke-linecap="round" stroke-linejoin="round"/>
        <g>
          <path d="M75.793,355.952 C72.433,351.386 71.457,350.343 71.457,344.819" fill-opacity="0" stroke="#000000" stroke-width="1" stroke-linecap="round" stroke-linejoin="round"/>
          <path d="M75.301,363.334 C74.935,363.266 73.885,362.855 73.661,362.631 C73.058,362.029 72.867,361.277 72.489,360.522 C72.218,359.981 71.784,359.7 71.434,359.233 C70.004,357.326 70.03,357.066 67.801,355.952" fill-opacity="0" stroke="#000000" stroke-width="1" stroke-linecap="round" stroke-linejoin="round"/>
          <path d="M75.279,365.092 C74.523,365.658 71.48,363.64 71.06,363.92 C67.118,366.548 67.884,372.018 65.552,374.35" fill-opacity="0" stroke="#000000" stroke-width="1" stroke-linecap="round" stroke-linejoin="round"/>
          <path d="M75.279,366.616 C74.775,367.32 74.275,368.032 73.755,368.725 C73.372,369.236 72.985,369.747 72.583,370.248 C72.109,370.841 71.218,371.183 70.825,371.772 C70.518,372.233 70.825,373.994 70.825,374.584 C70.825,377.457 71.237,381.483 68.716,383.373 C68.376,383.628 68.393,384.004 68.013,384.194" fill-opacity="0" stroke="#000000" stroke-width="1" stroke-linecap="round" stroke-linejoin="round"/>
        </g>
        <g>
          <path d="M78.677,355.952 C82.037,351.386 83.013,350.343 83.013,344.819" fill-opacity="0" stroke="#000000" stroke-width="1" stroke-linecap="round" stroke-linejoin="round"/>
          <path d="M79.169,363.334 C79.535,363.266 80.585,362.855 80.809,362.631 C81.411,362.029 81.603,361.277 81.981,360.522 C82.252,359.981 82.685,359.7 83.036,359.233 C84.466,357.326 84.44,357.066 86.669,355.952" fill-opacity="0" stroke="#000000" stroke-width="1" stroke-linecap="round" stroke-linejoin="round"/>
          <path d="M79.191,365.092 C79.947,365.658 82.99,363.64 83.41,363.92 C87.352,366.548 86.586,372.018 88.918,374.35" fill-opacity="0" stroke="#000000" stroke-width="1" stroke-linecap="round" stroke-linejoin="round"/>
          <path d="M79.191,366.616 C79.695,367.32 80.195,368.032 80.715,368.725 C81.098,369.236 81.485,369.747 81.887,370.248 C82.361,370.841 83.252,371.183 83.645,371.772 C83.952,372.233 83.645,373.994 83.645,374.584 C83.645,377.457 83.233,381.483 85.754,383.373 C86.094,383.628 86.077,384.004 86.457,384.194" fill-opacity="0" stroke="#000000" stroke-width="1" stroke-linecap="round" stroke-linejoin="round"/>
        </g>
      </g>
      <path d="M75.125,358.75 L78,358.75 L78,379.625 L75.125,379.625 L75.125,358.75 z" fill="#000000"/>
    </g>
  </g>
</svg>
