<?xml version="1.0" encoding="UTF-8"?>
<!DOCTYPE svg PUBLIC "-//W3C//DTD SVG 1.1//EN" "http://www.w3.org/Graphics/SVG/1.1/DTD/svg11.dtd">
<svg version="1.1" xmlns="http://www.w3.org/2000/svg" xmlns:xlink="http://www.w3.org/1999/xlink" x="0" y="0" width="182" height="32" viewBox="0, 0, 182, 32">
  <g id="Layer_1" transform="translate(-76.839, -697.4)">
    <g>
      <path d="M198.339,698.9 L228.339,698.9 L228.339,728.9 L198.339,728.9 L198.339,698.9 z" fill-opacity="0" stroke="#000000" stroke-width="1"/>
      <g>
        <path d="M213.183,708.509 C212.104,708.509 211.23,707.652 211.23,706.595 C211.23,705.538 212.104,704.681 213.183,704.681 C214.261,704.681 215.136,705.538 215.136,706.595 C215.136,707.652 214.261,708.509 213.183,708.509 z" fill="#000000"/>
        <path d="M213.183,708.509 C212.104,708.509 211.23,707.652 211.23,706.595 C211.23,705.538 212.104,704.681 213.183,704.681 C214.261,704.681 215.136,705.538 215.136,706.595 C215.136,707.652 214.261,708.509 213.183,708.509 z" fill-opacity="0" stroke="#000000" stroke-width="1"/>
      </g>
      <g>
        <path d="M213.202,710.697 C212.674,710.697 212.245,710.277 212.245,709.759 C212.245,709.242 212.674,708.822 213.202,708.822 C213.73,708.822 214.159,709.242 214.159,709.759 C214.159,710.277 213.73,710.697 213.202,710.697 z" fill="#000000"/>
        <path d="M213.202,710.697 C212.674,710.697 212.245,710.277 212.245,709.759 C212.245,709.242 212.674,708.822 213.202,708.822 C213.73,708.822 214.159,709.242 214.159,709.759 C214.159,710.277 213.73,710.697 213.202,710.697 z" fill-opacity="0" stroke="#000000" stroke-width="1"/>
      </g>
      <g>
        <path d="M213.319,724.603 C210.396,724.603 208.026,721.543 208.026,717.767 C208.026,713.992 210.396,710.931 213.319,710.931 C216.242,710.931 218.612,713.992 218.612,717.767 C218.612,721.543 216.242,724.603 213.319,724.603 z" fill="#000000"/>
        <path d="M213.319,724.603 C210.396,724.603 208.026,721.543 208.026,717.767 C208.026,713.992 210.396,710.931 213.319,710.931 C216.242,710.931 218.612,713.992 218.612,717.767 C218.612,721.543 216.242,724.603 213.319,724.603 z" fill-opacity="0" stroke="#000000" stroke-width="1"/>
      </g>
      <g>
        <path d="M206.65,709.994 L219.775,709.994" fill-opacity="0" stroke="#000000" stroke-width="1"/>
        <g>
          <path d="M206.923,705.384 L213.329,710.15" fill-opacity="0" stroke="#000000" stroke-width="1"/>
          <path d="M219.501,705.384 L213.095,710.15" fill-opacity="0" stroke="#000000" stroke-width="1"/>
        </g>
        <g>
          <g>
            <path d="M213.222,710.052 L207.909,712.084" fill-opacity="0" stroke="#000000" stroke-width="1"/>
            <path d="M208.085,711.927 L204.023,718.802" fill-opacity="0" stroke="#000000" stroke-width="1"/>
          </g>
          <g>
            <path d="M213.202,710.052 L218.515,712.084" fill-opacity="0" stroke="#000000" stroke-width="1"/>
            <path d="M218.339,711.927 L222.401,718.802" fill-opacity="0" stroke="#000000" stroke-width="1"/>
          </g>
        </g>
      </g>
    </g>
    <g>
      <path d="M108.339,698.9 L138.339,698.9 L138.339,728.9 L108.339,728.9 L108.339,698.9 z" fill-opacity="0" stroke="#000000" stroke-width="1"/>
      <g>
        <path d="M120.956,719.759 C115.498,719.759 111.073,717.381 111.073,714.447 C111.073,711.513 115.498,709.134 120.956,709.134 C126.414,709.134 130.839,711.513 130.839,714.447 C130.839,717.381 126.414,719.759 120.956,719.759 z" fill="#000000"/>
        <path d="M120.956,719.759 C115.498,719.759 111.073,717.381 111.073,714.447 C111.073,711.513 115.498,709.134 120.956,709.134 C126.414,709.134 130.839,711.513 130.839,714.447 C130.839,717.381 126.414,719.759 120.956,719.759 z" fill-opacity="0" stroke="#000000" stroke-width="1"/>
      </g>
      <g>
        <path d="M129.951,713.975 L134.59,710.544 L133.912,713.975 z" fill="#000000"/>
        <path d="M129.951,713.975 L134.59,710.544 L133.912,713.975 z" fill-opacity="0" stroke="#000000" stroke-width="1"/>
      </g>
      <g>
        <path d="M129.951,714.294 L134.59,717.725 L133.912,714.294 z" fill="#000000"/>
        <path d="M129.951,714.294 L134.59,717.725 L133.912,714.294 z" fill-opacity="0" stroke="#000000" stroke-width="1"/>
      </g>
      <path d="M112.922,714.433 L111.589,717.215 L110.256,715.38 z" fill="#FFFFFF"/>
      <path d="M115.964,714.103 C115.619,714.103 115.339,713.858 115.339,713.556 C115.339,713.254 115.619,713.009 115.964,713.009 C116.309,713.009 116.589,713.254 116.589,713.556 C116.589,713.858 116.309,714.103 115.964,714.103 z" fill="#FFFFFF"/>
    </g>
    <g>
      <path d="M138.339,698.9 L168.339,698.9 L168.339,728.9 L138.339,728.9 L138.339,698.9 z" fill-opacity="0" stroke="#000000" stroke-width="1"/>
      <g>
        <g>
          <path d="M152.206,720.462 C151.02,720.462 150.058,717.769 150.058,714.447 C150.058,711.125 151.02,708.431 152.206,708.431 C153.393,708.431 154.355,711.125 154.355,714.447 C154.355,717.769 153.393,720.462 152.206,720.462 z" fill="#000000"/>
          <path d="M152.206,720.462 C151.02,720.462 150.058,717.769 150.058,714.447 C150.058,711.125 151.02,708.431 152.206,708.431 C153.393,708.431 154.355,711.125 154.355,714.447 C154.355,717.769 153.393,720.462 152.206,720.462 z" fill-opacity="0" stroke="#000000" stroke-width="1"/>
        </g>
        <g>
          <path d="M154.472,720.384 C153.285,720.384 152.323,717.691 152.323,714.369 C152.323,711.046 153.285,708.353 154.472,708.353 C155.658,708.353 156.62,711.046 156.62,714.369 C156.62,717.691 155.658,720.384 154.472,720.384 z" fill="#000000"/>
          <path d="M154.472,720.384 C153.285,720.384 152.323,717.691 152.323,714.369 C152.323,711.046 153.285,708.353 154.472,708.353 C155.658,708.353 156.62,711.046 156.62,714.369 C156.62,717.691 155.658,720.384 154.472,720.384 z" fill-opacity="0" stroke="#000000" stroke-width="1"/>
        </g>
        <g>
          <path d="M153.3,721.009 C151.337,721.009 149.745,718.316 149.745,714.994 C149.745,711.671 151.337,708.978 153.3,708.978 C155.263,708.978 156.855,711.671 156.855,714.994 C156.855,718.316 155.263,721.009 153.3,721.009 z" fill="#000000"/>
          <path d="M153.3,721.009 C151.337,721.009 149.745,718.316 149.745,714.994 C149.745,711.671 151.337,708.978 153.3,708.978 C155.263,708.978 156.855,711.671 156.855,714.994 C156.855,718.316 155.263,721.009 153.3,721.009 z" fill-opacity="0" stroke="#000000" stroke-width="1"/>
        </g>
      </g>
      <g>
        <g>
          <path d="M150.605,709.681 L148.183,707.728" fill-opacity="0" stroke="#000000" stroke-width="1" stroke-linecap="round"/>
          <path d="M148.183,707.65 L148.964,703.666" fill-opacity="0" stroke="#000000" stroke-width="1" stroke-linecap="round"/>
        </g>
        <g>
          <path d="M146.503,709.115 L146.601,705.853" fill-opacity="0" stroke="#000000" stroke-width="1" stroke-linecap="round"/>
          <path d="M150.292,711.185 L146.503,709.115" fill-opacity="0" stroke="#000000" stroke-width="1" stroke-linecap="round"/>
        </g>
        <g>
          <path d="M149.804,713.451 L146.503,715.834" fill-opacity="0" stroke="#000000" stroke-width="1" stroke-linecap="round"/>
          <path d="M146.484,715.834 L145.839,718.9" fill-opacity="0" stroke="#000000" stroke-width="1" stroke-linecap="round"/>
        </g>
        <g>
          <path d="M149.687,715.365 L148.241,718.587" fill-opacity="0" stroke="#000000" stroke-width="1" stroke-linecap="round"/>
          <path d="M148.241,718.587 L148.71,722.845" fill-opacity="0" stroke="#000000" stroke-width="1" stroke-linecap="round"/>
        </g>
      </g>
      <g>
        <g>
          <path d="M155.995,709.681 L158.417,707.728" fill-opacity="0" stroke="#000000" stroke-width="1" stroke-linecap="round"/>
          <path d="M158.417,707.65 L157.636,703.666" fill-opacity="0" stroke="#000000" stroke-width="1" stroke-linecap="round"/>
        </g>
        <g>
          <path d="M160.097,709.115 L159.999,705.853" fill-opacity="0" stroke="#000000" stroke-width="1" stroke-linecap="round"/>
          <path d="M156.308,711.185 L160.097,709.115" fill-opacity="0" stroke="#000000" stroke-width="1" stroke-linecap="round"/>
        </g>
        <g>
          <path d="M156.796,713.451 L160.097,715.834" fill-opacity="0" stroke="#000000" stroke-width="1" stroke-linecap="round"/>
          <path d="M160.116,715.834 L160.761,718.9" fill-opacity="0" stroke="#000000" stroke-width="1" stroke-linecap="round"/>
        </g>
        <g>
          <path d="M156.913,715.365 L158.359,718.587" fill-opacity="0" stroke="#000000" stroke-width="1" stroke-linecap="round"/>
          <path d="M158.359,718.587 L157.89,722.845" fill-opacity="0" stroke="#000000" stroke-width="1" stroke-linecap="round"/>
        </g>
      </g>
    </g>
    <g>
      <path d="M168.339,698.9 L198.339,698.9 L198.339,728.9 L168.339,728.9 L168.339,698.9 z" fill-opacity="0" stroke="#000000" stroke-width="1"/>
      <g>
        <g>
          <path d="M175.779,711.783 C175.779,711.783 178.536,711.847 178.536,711.847 C178.536,711.847 180.523,711.527 180.523,711.527 C180.523,711.527 181.933,711.655 181.933,711.655 C181.933,711.655 182.574,712.04 182.574,712.04 C182.574,712.04 183.728,710.95 183.728,710.95 C183.728,710.95 185.138,710.565 185.138,710.565 C185.138,710.565 186.933,710.758 186.933,710.758 C186.933,710.758 189.24,711.783 189.24,711.783 C189.24,711.783 190.971,714.027 190.971,714.027 C190.971,714.027 191.932,715.95 191.932,715.95 C191.932,715.95 191.997,719.026 191.997,719.026 C191.997,719.026 191.099,720.629 191.099,720.629 C191.099,720.629 189.048,722.36 189.048,722.36 C189.048,722.36 186.228,723.77 186.228,723.77 C186.228,723.77 185.651,723.385 185.651,723.385 C185.651,723.385 186.099,722.296 186.099,722.296 C186.099,722.296 184.946,722.039 184.946,722.039 C184.946,722.039 185.074,720.629 185.074,720.629 C185.074,720.629 186.099,720.629 186.099,720.629 C186.099,720.629 189.368,720.308 189.368,720.308 C189.368,720.308 189.945,717.552 189.945,717.552 C189.945,717.552 188.92,715.757 188.92,715.757 C188.92,715.757 187.766,713.963 187.766,713.963 C187.766,713.963 185.33,713.514 185.33,713.514 C185.33,713.514 183.92,714.796 183.92,714.796 C183.92,714.796 182.894,715.245 182.894,715.245 C182.894,715.245 181.1,714.924 181.1,714.924 C181.1,714.924 178.92,714.283 178.92,714.283 C178.92,714.283 176.997,713.898 176.997,713.898 C176.997,713.898 175.202,713.578 175.202,713.578 C175.202,713.578 174.818,712.681 174.818,712.681 C174.818,712.681 174.882,711.783 174.882,711.783 C174.882,711.783 175.779,711.847 175.779,711.783 z" fill="#000000"/>
          <path d="M175.779,711.783 C175.779,711.783 178.536,711.847 178.536,711.847 C178.536,711.847 180.523,711.527 180.523,711.527 C180.523,711.527 181.933,711.655 181.933,711.655 C181.933,711.655 182.574,712.04 182.574,712.04 C182.574,712.04 183.728,710.95 183.728,710.95 C183.728,710.95 185.138,710.565 185.138,710.565 C185.138,710.565 186.933,710.758 186.933,710.758 C186.933,710.758 189.24,711.783 189.24,711.783 C189.24,711.783 190.971,714.027 190.971,714.027 C190.971,714.027 191.932,715.95 191.932,715.95 C191.932,715.95 191.997,719.026 191.997,719.026 C191.997,719.026 191.099,720.629 191.099,720.629 C191.099,720.629 189.048,722.36 189.048,722.36 C189.048,722.36 186.228,723.77 186.228,723.77 C186.228,723.77 185.651,723.385 185.651,723.385 C185.651,723.385 186.099,722.296 186.099,722.296 C186.099,722.296 184.946,722.039 184.946,722.039 C184.946,722.039 185.074,720.629 185.074,720.629 C185.074,720.629 186.099,720.629 186.099,720.629 C186.099,720.629 189.368,720.308 189.368,720.308 C189.368,720.308 189.945,717.552 189.945,717.552 C189.945,717.552 188.92,715.757 188.92,715.757 C188.92,715.757 187.766,713.963 187.766,713.963 C187.766,713.963 185.33,713.514 185.33,713.514 C185.33,713.514 183.92,714.796 183.92,714.796 C183.92,714.796 182.894,715.245 182.894,715.245 C182.894,715.245 181.1,714.924 181.1,714.924 C181.1,714.924 178.92,714.283 178.92,714.283 C178.92,714.283 176.997,713.898 176.997,713.898 C176.997,713.898 175.202,713.578 175.202,713.578 C175.202,713.578 174.818,712.681 174.818,712.681 C174.818,712.681 174.882,711.783 174.882,711.783 C174.882,711.783 175.779,711.847 175.779,711.783 z" fill-opacity="0" stroke="#000000" stroke-width="1"/>
        </g>
        <path d="M176.677,713.898 C176.677,713.898 175.523,714.475 175.523,714.475 C175.523,714.475 174.818,715.116 174.818,715.116 C174.818,715.116 174.754,715.757 174.754,715.757" fill-opacity="0" stroke="#000000" stroke-width="1"/>
        <path d="M177.382,713.834 C177.382,713.834 176.677,714.796 176.677,714.796 C176.677,714.796 176.228,715.437 176.228,715.437 C176.228,715.437 176.164,716.206 176.164,716.206" fill-opacity="0" stroke="#000000" stroke-width="1"/>
        <path d="M180.266,714.732 C180.266,714.732 179.946,715.309 179.946,715.309 C179.754,715.565 178.664,715.565 178.664,715.565 C178.664,715.565 177.702,715.437 177.702,715.437 C177.702,715.437 177.254,715.886 177.254,715.886 C177.254,715.886 176.741,717.039 176.741,717.039 C176.741,717.039 176.42,719.86 176.42,719.86 C176.42,719.86 177.702,721.013 177.702,721.013" fill-opacity="0" stroke="#000000" stroke-width="1"/>
        <path d="M181.356,714.988 C181.356,714.988 181.036,715.629 181.036,715.629 C181.036,715.629 180.33,716.142 180.33,716.142 C180.33,716.142 179.497,716.462 179.497,716.462 C179.497,716.462 178.087,716.462 178.087,716.462 C178.087,716.462 177.574,717.424 177.574,717.424 C177.574,717.424 177.574,719.283 177.574,719.283 C177.574,719.283 178.536,720.437 178.536,720.437 C178.536,720.437 179.625,721.206 179.625,721.206" fill-opacity="0" stroke="#000000" stroke-width="1"/>
        <path d="M182.253,714.988 C182.253,714.988 181.677,716.334 181.677,716.334 C181.677,716.334 181.036,716.847 181.036,716.847 C181.036,716.847 179.882,717.424 179.882,717.424 C179.882,717.424 178.856,717.488 178.856,717.488 C178.856,717.488 178.664,718.321 178.664,718.321 C178.664,718.321 179.241,719.411 179.241,719.411 C179.241,719.411 180.459,720.372 180.459,720.372 C180.459,720.372 181.677,721.398 181.677,721.398" fill-opacity="0" stroke="#000000" stroke-width="1"/>
        <path d="M182.959,715.18 C182.959,715.18 182.894,716.142 182.894,716.142 C182.894,716.142 182.253,717.039 182.253,717.039 C182.253,717.039 181.677,717.873 181.677,717.873 C181.677,717.873 181.805,718.45 181.805,718.45 C181.805,718.45 182.959,718.962 182.959,718.962 C182.959,718.962 184.048,718.578 184.048,718.578" fill-opacity="0" stroke="#000000" stroke-width="1"/>
        <path d="M186.228,713.578 C186.228,713.578 185.394,714.732 185.394,714.732 C185.394,714.732 185.394,715.501 185.394,715.501" fill-opacity="0" stroke="#000000" stroke-width="1"/>
        <path d="M186.74,713.642 C186.74,713.642 186.42,714.475 186.42,714.475 C186.42,714.475 186.228,715.437 186.228,715.437" fill-opacity="0" stroke="#000000" stroke-width="1"/>
        <path d="M188.343,714.924 C188.343,714.924 187.446,715.821 187.446,715.821 C187.446,715.821 186.933,716.398 186.933,716.398" fill-opacity="0" stroke="#000000" stroke-width="1"/>
        <path d="M188.728,715.501 C188.728,715.501 188.151,716.206 188.151,716.206 C188.151,716.206 187.381,716.911 187.381,716.911" fill-opacity="0" stroke="#000000" stroke-width="1"/>
        <path d="M189.433,716.398 C189.433,716.398 188.215,717.488 188.215,717.488" fill-opacity="0" stroke="#000000" stroke-width="1"/>
        <path d="M189.625,716.975 C189.625,716.975 188.663,718.065 188.663,718.065" fill-opacity="0" stroke="#000000" stroke-width="1"/>
        <path d="M175.715,713.77 C174.867,713.711 173.31,714.087 172.831,713.129 C172.363,712.193 172.928,711.203 173.151,710.309 C174.003,706.903 178.268,705.745 181.292,704.989 C182.174,704.768 183.213,705.138 184.112,704.989 C184.862,704.864 185.9,704.602 186.676,704.796 C187.588,705.024 188.256,705.458 189.112,705.886 C191.538,707.099 192.049,707.08 193.343,709.668" fill-opacity="0" stroke="#000000" stroke-width="1" stroke-linecap="round" stroke-linejoin="round"/>
        <path d="M174.946,713.642 C174.302,713.297 173.64,712.264 173.856,711.399 C174.572,708.534 177.362,707.574 180.01,706.912 C180.972,706.671 181.864,706.183 182.766,705.822 C185.951,704.548 189.99,704.264 192.509,706.783 C193.349,707.623 194.227,708.396 194.561,709.732" fill-opacity="0" stroke="#000000" stroke-width="1" stroke-linecap="round" stroke-linejoin="round"/>
        <g>
          <path d="M175.779,711.783 C175.779,711.783 178.536,711.847 178.536,711.847 C178.536,711.847 180.523,711.527 180.523,711.527 C180.523,711.527 181.933,711.655 181.933,711.655 C181.933,711.655 182.574,712.04 182.574,712.04 C182.574,712.04 183.728,710.95 183.728,710.95 C183.728,710.95 185.138,710.565 185.138,710.565 C185.138,710.565 186.933,710.758 186.933,710.758 C186.933,710.758 189.24,711.783 189.24,711.783 C189.24,711.783 190.971,714.027 190.971,714.027 C190.971,714.027 191.932,715.95 191.932,715.95 C191.932,715.95 191.997,719.026 191.997,719.026 C191.997,719.026 191.099,720.629 191.099,720.629 C191.099,720.629 189.048,722.36 189.048,722.36 C189.048,722.36 186.228,723.77 186.228,723.77 C186.228,723.77 185.651,723.385 185.651,723.385 C185.651,723.385 186.099,722.296 186.099,722.296 C186.099,722.296 184.946,722.039 184.946,722.039 C184.946,722.039 185.074,720.629 185.074,720.629 C185.074,720.629 186.099,720.629 186.099,720.629 C186.099,720.629 189.368,720.308 189.368,720.308 C189.368,720.308 189.945,717.552 189.945,717.552 C189.945,717.552 188.92,715.757 188.92,715.757 C188.92,715.757 187.766,713.963 187.766,713.963 C187.766,713.963 185.33,713.514 185.33,713.514 C185.33,713.514 183.92,714.796 183.92,714.796 C183.92,714.796 182.894,715.245 182.894,715.245 C182.894,715.245 181.1,714.924 181.1,714.924 C181.1,714.924 178.92,714.283 178.92,714.283 C178.92,714.283 176.997,713.898 176.997,713.898 C176.997,713.898 175.202,713.578 175.202,713.578 C175.202,713.578 174.818,712.681 174.818,712.681 C174.818,712.681 174.882,711.783 174.882,711.783 C174.882,711.783 175.779,711.847 175.779,711.783 z" fill="#000000"/>
          <path d="M175.779,711.783 C175.779,711.783 178.536,711.847 178.536,711.847 C178.536,711.847 180.523,711.527 180.523,711.527 C180.523,711.527 181.933,711.655 181.933,711.655 C181.933,711.655 182.574,712.04 182.574,712.04 C182.574,712.04 183.728,710.95 183.728,710.95 C183.728,710.95 185.138,710.565 185.138,710.565 C185.138,710.565 186.933,710.758 186.933,710.758 C186.933,710.758 189.24,711.783 189.24,711.783 C189.24,711.783 190.971,714.027 190.971,714.027 C190.971,714.027 191.932,715.95 191.932,715.95 C191.932,715.95 191.997,719.026 191.997,719.026 C191.997,719.026 191.099,720.629 191.099,720.629 C191.099,720.629 189.048,722.36 189.048,722.36 C189.048,722.36 186.228,723.77 186.228,723.77 C186.228,723.77 185.651,723.385 185.651,723.385 C185.651,723.385 186.099,722.296 186.099,722.296 C186.099,722.296 184.946,722.039 184.946,722.039 C184.946,722.039 185.074,720.629 185.074,720.629 C185.074,720.629 186.099,720.629 186.099,720.629 C186.099,720.629 189.368,720.308 189.368,720.308 C189.368,720.308 189.945,717.552 189.945,717.552 C189.945,717.552 188.92,715.757 188.92,715.757 C188.92,715.757 187.766,713.963 187.766,713.963 C187.766,713.963 185.33,713.514 185.33,713.514 C185.33,713.514 183.92,714.796 183.92,714.796 C183.92,714.796 182.894,715.245 182.894,715.245 C182.894,715.245 181.1,714.924 181.1,714.924 C181.1,714.924 178.92,714.283 178.92,714.283 C178.92,714.283 176.997,713.898 176.997,713.898 C176.997,713.898 175.202,713.578 175.202,713.578 C175.202,713.578 174.818,712.681 174.818,712.681 C174.818,712.681 174.882,711.783 174.882,711.783 C174.882,711.783 175.779,711.847 175.779,711.783 z" fill-opacity="0" stroke="#000000" stroke-width="1"/>
        </g>
        <path d="M176.677,713.898 C176.677,713.898 175.523,714.475 175.523,714.475 C175.523,714.475 174.818,715.116 174.818,715.116 C174.818,715.116 174.754,715.757 174.754,715.757" fill-opacity="0" stroke="#000000" stroke-width="1"/>
        <path d="M177.382,713.834 C177.382,713.834 176.677,714.796 176.677,714.796 C176.677,714.796 176.228,715.437 176.228,715.437 C176.228,715.437 176.164,716.206 176.164,716.206" fill-opacity="0" stroke="#000000" stroke-width="1"/>
        <path d="M180.266,714.732 C180.266,714.732 179.946,715.309 179.946,715.309 C179.754,715.565 178.664,715.565 178.664,715.565 C178.664,715.565 177.702,715.437 177.702,715.437 C177.702,715.437 177.254,715.886 177.254,715.886 C177.254,715.886 176.741,717.039 176.741,717.039 C176.741,717.039 176.42,719.86 176.42,719.86 C176.42,719.86 177.702,721.013 177.702,721.013" fill-opacity="0" stroke="#000000" stroke-width="1"/>
        <path d="M181.356,714.988 C181.356,714.988 181.036,715.629 181.036,715.629 C181.036,715.629 180.33,716.142 180.33,716.142 C180.33,716.142 179.497,716.462 179.497,716.462 C179.497,716.462 178.087,716.462 178.087,716.462 C178.087,716.462 177.574,717.424 177.574,717.424 C177.574,717.424 177.574,719.283 177.574,719.283 C177.574,719.283 178.536,720.437 178.536,720.437 C178.536,720.437 179.625,721.206 179.625,721.206" fill-opacity="0" stroke="#000000" stroke-width="1"/>
        <path d="M182.253,714.988 C182.253,714.988 181.677,716.334 181.677,716.334 C181.677,716.334 181.036,716.847 181.036,716.847 C181.036,716.847 179.882,717.424 179.882,717.424 C179.882,717.424 178.856,717.488 178.856,717.488 C178.856,717.488 178.664,718.321 178.664,718.321 C178.664,718.321 179.241,719.411 179.241,719.411 C179.241,719.411 180.459,720.372 180.459,720.372 C180.459,720.372 181.677,721.398 181.677,721.398" fill-opacity="0" stroke="#000000" stroke-width="1"/>
        <path d="M182.959,715.18 C182.959,715.18 182.894,716.142 182.894,716.142 C182.894,716.142 182.253,717.039 182.253,717.039 C182.253,717.039 181.677,717.873 181.677,717.873 C181.677,717.873 181.805,718.45 181.805,718.45 C181.805,718.45 182.959,718.962 182.959,718.962 C182.959,718.962 184.048,718.578 184.048,718.578" fill-opacity="0" stroke="#000000" stroke-width="1"/>
        <path d="M186.228,713.578 C186.228,713.578 185.394,714.732 185.394,714.732 C185.394,714.732 185.394,715.501 185.394,715.501" fill-opacity="0" stroke="#000000" stroke-width="1"/>
        <path d="M186.74,713.642 C186.74,713.642 186.42,714.475 186.42,714.475 C186.42,714.475 186.228,715.437 186.228,715.437" fill-opacity="0" stroke="#000000" stroke-width="1"/>
        <path d="M188.343,714.924 C188.343,714.924 187.446,715.821 187.446,715.821 C187.446,715.821 186.933,716.398 186.933,716.398" fill-opacity="0" stroke="#000000" stroke-width="1"/>
        <path d="M188.728,715.501 C188.728,715.501 188.151,716.206 188.151,716.206 C188.151,716.206 187.381,716.911 187.381,716.911" fill-opacity="0" stroke="#000000" stroke-width="1"/>
        <path d="M189.433,716.398 C189.433,716.398 188.215,717.488 188.215,717.488" fill-opacity="0" stroke="#000000" stroke-width="1"/>
        <path d="M189.625,716.975 C189.625,716.975 188.663,718.065 188.663,718.065" fill-opacity="0" stroke="#000000" stroke-width="1"/>
        <path d="M175.715,713.77 C174.867,713.711 173.31,714.087 172.831,713.129 C172.363,712.193 172.928,711.203 173.151,710.309 C174.003,706.903 178.268,705.745 181.292,704.989 C182.174,704.768 183.213,705.138 184.112,704.989 C184.862,704.864 185.9,704.602 186.676,704.796 C187.588,705.024 188.256,705.458 189.112,705.886 C191.538,707.099 192.049,707.08 193.343,709.668" fill-opacity="0" stroke="#000000" stroke-width="1" stroke-linecap="round" stroke-linejoin="round"/>
        <path d="M174.946,713.642 C174.302,713.297 173.64,712.264 173.856,711.399 C174.572,708.534 177.362,707.574 180.01,706.912 C180.972,706.671 181.864,706.183 182.766,705.822 C185.951,704.548 189.99,704.264 192.509,706.783 C193.349,707.623 194.227,708.396 194.561,709.732" fill-opacity="0" stroke="#000000" stroke-width="1" stroke-linecap="round" stroke-linejoin="round"/>
      </g>
    </g>
    <g>
      <path d="M228.339,698.9 L258.339,698.9 L258.339,728.9 L228.339,728.9 L228.339,698.9 z" fill-opacity="0" stroke="#000000" stroke-width="1"/>
      <path d="M232.922,714.433 L231.589,717.215 L230.256,715.38 z" fill="#FFFFFF"/>
      <path d="M235.964,714.103 C235.619,714.103 235.339,713.858 235.339,713.556 C235.339,713.254 235.619,713.009 235.964,713.009 C236.309,713.009 236.589,713.254 236.589,713.556 C236.589,713.858 236.309,714.103 235.964,714.103 z" fill="#FFFFFF"/>
      <path d="M237.276,710.869 L242.901,710.869 L242.901,717.215 L237.276,717.215 L237.276,710.869 z" fill="#000000"/>
      <path d="M234.464,710.869 L236.589,710.869 L236.589,717.215 L234.464,717.215 L234.464,710.869 z" fill="#000000"/>
      <path d="M232.172,710.869 L233.724,710.869 L233.724,717.215 L232.172,717.215 L232.172,710.869 z" fill="#000000"/>
      <path d="M230.256,710.869 L231.224,710.869 L231.224,717.215 L230.256,717.215 L230.256,710.869 z" fill="#000000"/>
      <g>
        <path d="M242.714,707.276 L255.298,714.542 L242.714,721.807 z" fill="#000000"/>
        <path d="M242.714,707.276 L255.298,714.542 L242.714,721.807 z" fill-opacity="0" stroke="#000000" stroke-width="1"/>
      </g>
    </g>
    <g>
      <path d="M78.339,698.9 L108.339,698.9 L108.339,728.9 L78.339,728.9 L78.339,698.9 z" fill-opacity="0" stroke="#000000" stroke-width="1"/>
      <g>
        <g>
          <path d="M94.588,717.758 C96.792,719.014 96.117,722.967 94.588,724.496 C94.13,724.954 94.311,725.221 93.562,725.595 L94.588,717.758 z" fill="#000000"/>
          <path d="M94.588,717.758 C96.792,719.014 96.117,722.967 94.588,724.496 C94.13,724.954 94.311,725.221 93.562,725.595 L94.588,717.758 z" fill-opacity="0" stroke="#000000" stroke-width="1" stroke-linecap="round" stroke-linejoin="round"/>
        </g>
        <g>
          <path d="M93.855,725.558 L93.741,725.494" fill="#000000"/>
          <path d="M93.855,725.558 L93.741,725.494" fill-opacity="0" stroke="#000000" stroke-width="1" stroke-linecap="round" stroke-linejoin="round"/>
        </g>
        <g>
          <path d="M93.588,725.399 C93.24,725.165 93.101,724.765 92.83,724.46 C91.301,722.93 90.626,718.978 92.83,717.721" fill="#000000"/>
          <path d="M93.588,725.399 C93.24,725.165 93.101,724.765 92.83,724.46 C91.301,722.93 90.626,718.978 92.83,717.721" fill-opacity="0" stroke="#000000" stroke-width="1" stroke-linecap="round" stroke-linejoin="round"/>
        </g>
        <g>
          <path d="M93.562,708.566 L93.305,712.586 C93.468,712.619 93.416,712.578 93.489,712.668 C93.444,712.77 93.345,712.883 93.281,712.968 L92.977,717.721 C92.794,717.377 93.031,716.531 92.757,716.256 C92.665,716.165 92.46,716.068 92.391,715.964 C92.343,715.892 92.427,714.353 92.464,714.206 C92.654,713.749 92.986,713.36 93.281,712.968 L93.305,712.586 C93.092,712.544 92.959,712.635 92.757,712.521 C92.631,712.395 92.65,712.093 92.61,711.935 C92.29,710.656 92.201,709.247 93.562,708.566 z" fill="#000000"/>
          <path d="M93.562,708.566 L93.305,712.586 C93.468,712.619 93.416,712.578 93.489,712.668 C93.444,712.77 93.345,712.883 93.281,712.968 L92.977,717.721 C92.794,717.377 93.031,716.531 92.757,716.256 C92.665,716.165 92.46,716.068 92.391,715.964 C92.343,715.892 92.427,714.353 92.464,714.206 C92.654,713.749 92.986,713.36 93.281,712.968 L93.305,712.586 C93.092,712.544 92.959,712.635 92.757,712.521 C92.631,712.395 92.65,712.093 92.61,711.935 C92.29,710.656 92.201,709.247 93.562,708.566 z" fill-opacity="0" stroke="#000000" stroke-width="1" stroke-linecap="round" stroke-linejoin="round"/>
        </g>
        <g>
          <path d="M93.855,708.529 C95.216,709.21 95.127,710.619 94.808,711.899 C94.768,712.057 94.787,712.359 94.661,712.484 C94.5,712.596 94.29,712.512 94.113,712.549 L94.137,712.931 C94.427,713.331 94.761,713.71 94.954,714.169 C94.991,714.317 95.075,715.855 95.027,715.927 C94.958,716.031 94.752,716.129 94.661,716.22 C94.387,716.494 94.624,717.34 94.441,717.685 L94.137,712.931 C94.083,712.829 93.968,712.743 93.929,712.631 C94.002,712.541 93.95,712.583 94.113,712.549 L93.855,708.529 z" fill="#000000"/>
          <path d="M93.855,708.529 C95.216,709.21 95.127,710.619 94.808,711.899 C94.768,712.057 94.787,712.359 94.661,712.484 C94.5,712.596 94.29,712.512 94.113,712.549 L94.137,712.931 C94.427,713.331 94.761,713.71 94.954,714.169 C94.991,714.317 95.075,715.855 95.027,715.927 C94.958,716.031 94.752,716.129 94.661,716.22 C94.387,716.494 94.624,717.34 94.441,717.685 L94.137,712.931 C94.083,712.829 93.968,712.743 93.929,712.631 C94.002,712.541 93.95,712.583 94.113,712.549 L93.855,708.529 z" fill-opacity="0" stroke="#000000" stroke-width="1" stroke-linecap="round" stroke-linejoin="round"/>
        </g>
        <path d="M92.61,709.152 L92.61,709.152" fill-opacity="0" stroke="#000000" stroke-width="1" stroke-linecap="round" stroke-linejoin="round"/>
        <g>
          <path d="M92.897,708.932 C90.797,706.079 90.187,705.427 90.187,701.974" fill-opacity="0" stroke="#000000" stroke-width="1" stroke-linecap="round" stroke-linejoin="round"/>
          <path d="M92.59,713.547 C92.361,713.504 91.705,713.247 91.564,713.107 C91.188,712.731 91.068,712.261 90.832,711.789 C90.663,711.45 90.392,711.275 90.173,710.983 C89.279,709.791 89.295,709.629 87.902,708.932" fill-opacity="0" stroke="#000000" stroke-width="1" stroke-linecap="round" stroke-linejoin="round"/>
          <path d="M92.576,714.645 C92.103,714.998 90.202,713.738 89.939,713.913 C87.475,715.555 87.954,718.974 86.496,720.431" fill-opacity="0" stroke="#000000" stroke-width="1" stroke-linecap="round" stroke-linejoin="round"/>
          <path d="M92.576,715.597 C92.261,716.038 91.948,716.483 91.623,716.916 C91.384,717.235 91.142,717.554 90.891,717.868 C90.594,718.238 90.038,718.452 89.792,718.82 C89.6,719.108 89.792,720.209 89.792,720.578 C89.792,722.373 90.05,724.889 88.474,726.071 C88.262,726.23 88.272,726.465 88.035,726.584" fill-opacity="0" stroke="#000000" stroke-width="1" stroke-linecap="round" stroke-linejoin="round"/>
        </g>
        <g>
          <path d="M94.7,708.932 C96.8,706.079 97.41,705.427 97.41,701.974" fill-opacity="0" stroke="#000000" stroke-width="1" stroke-linecap="round" stroke-linejoin="round"/>
          <path d="M95.007,713.547 C95.236,713.504 95.892,713.247 96.032,713.107 C96.409,712.731 96.529,712.261 96.765,711.789 C96.934,711.45 97.205,711.275 97.424,710.983 C98.318,709.791 98.302,709.629 99.694,708.932" fill-opacity="0" stroke="#000000" stroke-width="1" stroke-linecap="round" stroke-linejoin="round"/>
          <path d="M95.021,714.645 C95.493,714.998 97.395,713.738 97.658,713.913 C100.121,715.555 99.643,718.974 101.1,720.431" fill-opacity="0" stroke="#000000" stroke-width="1" stroke-linecap="round" stroke-linejoin="round"/>
          <path d="M95.021,715.597 C95.336,716.038 95.649,716.483 95.973,716.916 C96.213,717.235 96.455,717.554 96.706,717.868 C97.002,718.238 97.559,718.452 97.804,718.82 C97.996,719.108 97.804,720.209 97.804,720.578 C97.804,722.373 97.547,724.889 99.123,726.071 C99.335,726.23 99.325,726.465 99.562,726.584" fill-opacity="0" stroke="#000000" stroke-width="1" stroke-linecap="round" stroke-linejoin="round"/>
        </g>
      </g>
      <g>
        <path d="M92.792,710.994 L94.589,710.994 L94.589,724.041 L92.792,724.041 L92.792,710.994 z" fill="#000000"/>
        <path d="M92.792,710.994 L94.589,710.994 L94.589,724.041 L92.792,724.041 L92.792,710.994 z" fill-opacity="0" stroke="#000000" stroke-width="1"/>
      </g>
    </g>
  </g>
</svg>
