<?xml version="1.0" encoding="UTF-8"?>
<!DOCTYPE svg PUBLIC "-//W3C//DTD SVG 1.1//EN" "http://www.w3.org/Graphics/SVG/1.1/DTD/svg11.dtd">
<svg version="1.1" xmlns="http://www.w3.org/2000/svg" xmlns:xlink="http://www.w3.org/1999/xlink" x="0" y="0" width="186.5" height="32" viewBox="0, 0, 186.5, 32">
  <g id="Layer_1" transform="translate(1, 1)">
    <path d="M123.5,0 L153.5,0 L153.5,30 L123.5,30 L123.5,0 z" fill-opacity="0" stroke="#BFBFBF" stroke-width="0.5"/>
    <g>
      <path d="M138.344,9.609 C137.265,9.609 136.391,8.752 136.391,7.695 C136.391,6.638 137.265,5.781 138.344,5.781 C139.422,5.781 140.297,6.638 140.297,7.695 C140.297,8.752 139.422,9.609 138.344,9.609 z" fill="#000000"/>
      <path d="M138.344,9.609 C137.265,9.609 136.391,8.752 136.391,7.695 C136.391,6.638 137.265,5.781 138.344,5.781 C139.422,5.781 140.297,6.638 140.297,7.695 C140.297,8.752 139.422,9.609 138.344,9.609 z" fill-opacity="0" stroke="#000000" stroke-width="1"/>
    </g>
    <g>
      <path d="M138.363,11.797 C137.835,11.797 137.406,11.377 137.406,10.859 C137.406,10.342 137.835,9.922 138.363,9.922 C138.891,9.922 139.32,10.342 139.32,10.859 C139.32,11.377 138.891,11.797 138.363,11.797 z" fill="#000000"/>
      <path d="M138.363,11.797 C137.835,11.797 137.406,11.377 137.406,10.859 C137.406,10.342 137.835,9.922 138.363,9.922 C138.891,9.922 139.32,10.342 139.32,10.859 C139.32,11.377 138.891,11.797 138.363,11.797 z" fill-opacity="0" stroke="#000000" stroke-width="1"/>
    </g>
    <g>
      <path d="M138.48,25.703 C135.557,25.703 133.187,22.643 133.187,18.867 C133.187,15.092 135.557,12.031 138.48,12.031 C141.403,12.031 143.773,15.092 143.773,18.867 C143.773,22.643 141.403,25.703 138.48,25.703 z" fill="#000000"/>
      <path d="M138.48,25.703 C135.557,25.703 133.187,22.643 133.187,18.867 C133.187,15.092 135.557,12.031 138.48,12.031 C141.403,12.031 143.773,15.092 143.773,18.867 C143.773,22.643 141.403,25.703 138.48,25.703 z" fill-opacity="0" stroke="#000000" stroke-width="1"/>
    </g>
    <g>
      <path d="M131.811,11.094 L144.936,11.094" fill-opacity="0" stroke="#000000" stroke-width="1"/>
      <g>
        <path d="M132.084,6.484 L138.49,11.25" fill-opacity="0" stroke="#000000" stroke-width="1"/>
        <path d="M144.662,6.484 L138.256,11.25" fill-opacity="0" stroke="#000000" stroke-width="1"/>
      </g>
      <g>
        <g>
          <path d="M138.383,11.152 L133.07,13.184" fill-opacity="0" stroke="#000000" stroke-width="1"/>
          <path d="M133.246,13.027 L129.184,19.902" fill-opacity="0" stroke="#000000" stroke-width="1"/>
        </g>
        <g>
          <path d="M138.363,11.152 L143.676,13.184" fill-opacity="0" stroke="#000000" stroke-width="1"/>
          <path d="M143.5,13.027 L147.562,19.902" fill-opacity="0" stroke="#000000" stroke-width="1"/>
        </g>
      </g>
    </g>
    <path d="M30.688,0 L60.688,0 L60.688,30 L30.688,30 L30.688,0 z" fill-opacity="0" stroke="#BFBFBF" stroke-width="0.5"/>
    <g>
      <path d="M43.305,20.859 C37.847,20.859 33.422,18.481 33.422,15.547 C33.422,12.613 37.847,10.234 43.305,10.234 C48.763,10.234 53.188,12.613 53.188,15.547 C53.188,18.481 48.763,20.859 43.305,20.859 z" fill="#000000"/>
      <path d="M43.305,20.859 C37.847,20.859 33.422,18.481 33.422,15.547 C33.422,12.613 37.847,10.234 43.305,10.234 C48.763,10.234 53.188,12.613 53.188,15.547 C53.188,18.481 48.763,20.859 43.305,20.859 z" fill-opacity="0" stroke="#000000" stroke-width="1"/>
    </g>
    <g>
      <path d="M52.299,15.075 L56.938,11.644 L56.26,15.075 z" fill="#000000"/>
      <path d="M52.299,15.075 L56.938,11.644 L56.26,15.075 z" fill-opacity="0" stroke="#000000" stroke-width="1"/>
    </g>
    <g>
      <path d="M52.299,15.394 L56.938,18.825 L56.26,15.394 z" fill="#000000"/>
      <path d="M52.299,15.394 L56.938,18.825 L56.26,15.394 z" fill-opacity="0" stroke="#000000" stroke-width="1"/>
    </g>
    <path d="M35.271,15.533 L33.938,18.315 L32.604,16.48 z" fill="#FFFFFF"/>
    <path d="M38.312,15.203 C37.967,15.203 37.688,14.958 37.688,14.656 C37.688,14.354 37.967,14.109 38.312,14.109 C38.658,14.109 38.938,14.354 38.938,14.656 C38.938,14.958 38.658,15.203 38.312,15.203 z" fill="#FFFFFF"/>
    <path d="M61.5,0 L91.5,0 L91.5,30 L61.5,30 L61.5,0 z" fill-opacity="0" stroke="#BFBFBF" stroke-width="0.5"/>
    <g>
      <g>
        <path d="M75.367,21.562 C74.181,21.562 73.219,18.869 73.219,15.547 C73.219,12.225 74.181,9.531 75.367,9.531 C76.554,9.531 77.516,12.225 77.516,15.547 C77.516,18.869 76.554,21.562 75.367,21.562 z" fill="#000000"/>
        <path d="M75.367,21.562 C74.181,21.562 73.219,18.869 73.219,15.547 C73.219,12.225 74.181,9.531 75.367,9.531 C76.554,9.531 77.516,12.225 77.516,15.547 C77.516,18.869 76.554,21.562 75.367,21.562 z" fill-opacity="0" stroke="#000000" stroke-width="1"/>
      </g>
      <g>
        <path d="M77.633,21.484 C76.446,21.484 75.484,18.791 75.484,15.469 C75.484,12.146 76.446,9.453 77.633,9.453 C78.819,9.453 79.781,12.146 79.781,15.469 C79.781,18.791 78.819,21.484 77.633,21.484 z" fill="#000000"/>
        <path d="M77.633,21.484 C76.446,21.484 75.484,18.791 75.484,15.469 C75.484,12.146 76.446,9.453 77.633,9.453 C78.819,9.453 79.781,12.146 79.781,15.469 C79.781,18.791 78.819,21.484 77.633,21.484 z" fill-opacity="0" stroke="#000000" stroke-width="1"/>
      </g>
      <g>
        <path d="M76.461,22.109 C74.498,22.109 72.906,19.416 72.906,16.094 C72.906,12.771 74.498,10.078 76.461,10.078 C78.424,10.078 80.016,12.771 80.016,16.094 C80.016,19.416 78.424,22.109 76.461,22.109 z" fill="#000000"/>
        <path d="M76.461,22.109 C74.498,22.109 72.906,19.416 72.906,16.094 C72.906,12.771 74.498,10.078 76.461,10.078 C78.424,10.078 80.016,12.771 80.016,16.094 C80.016,19.416 78.424,22.109 76.461,22.109 z" fill-opacity="0" stroke="#000000" stroke-width="1"/>
      </g>
    </g>
    <g>
      <g>
        <path d="M73.766,10.781 L71.344,8.828" fill-opacity="0" stroke="#000000" stroke-width="1" stroke-linecap="round"/>
        <path d="M71.344,8.75 L72.125,4.766" fill-opacity="0" stroke="#000000" stroke-width="1" stroke-linecap="round"/>
      </g>
      <g>
        <path d="M69.664,10.215 L69.762,6.953" fill-opacity="0" stroke="#000000" stroke-width="1" stroke-linecap="round"/>
        <path d="M73.453,12.285 L69.664,10.215" fill-opacity="0" stroke="#000000" stroke-width="1" stroke-linecap="round"/>
      </g>
      <g>
        <path d="M72.965,14.551 L69.664,16.934" fill-opacity="0" stroke="#000000" stroke-width="1" stroke-linecap="round"/>
        <path d="M69.645,16.934 L69,20" fill-opacity="0" stroke="#000000" stroke-width="1" stroke-linecap="round"/>
      </g>
      <g>
        <path d="M72.848,16.465 L71.402,19.687" fill-opacity="0" stroke="#000000" stroke-width="1" stroke-linecap="round"/>
        <path d="M71.402,19.687 L71.871,23.945" fill-opacity="0" stroke="#000000" stroke-width="1" stroke-linecap="round"/>
      </g>
    </g>
    <g>
      <g>
        <path d="M79.156,10.781 L81.578,8.828" fill-opacity="0" stroke="#000000" stroke-width="1" stroke-linecap="round"/>
        <path d="M81.578,8.75 L80.797,4.766" fill-opacity="0" stroke="#000000" stroke-width="1" stroke-linecap="round"/>
      </g>
      <g>
        <path d="M83.258,10.215 L83.16,6.953" fill-opacity="0" stroke="#000000" stroke-width="1" stroke-linecap="round"/>
        <path d="M79.469,12.285 L83.258,10.215" fill-opacity="0" stroke="#000000" stroke-width="1" stroke-linecap="round"/>
      </g>
      <g>
        <path d="M79.957,14.551 L83.258,16.934" fill-opacity="0" stroke="#000000" stroke-width="1" stroke-linecap="round"/>
        <path d="M83.277,16.934 L83.922,20" fill-opacity="0" stroke="#000000" stroke-width="1" stroke-linecap="round"/>
      </g>
      <g>
        <path d="M80.074,16.465 L81.52,19.687" fill-opacity="0" stroke="#000000" stroke-width="1" stroke-linecap="round"/>
        <path d="M81.52,19.687 L81.051,23.945" fill-opacity="0" stroke="#000000" stroke-width="1" stroke-linecap="round"/>
      </g>
    </g>
    <path d="M92.5,0 L122.5,0 L122.5,30 L92.5,30 L92.5,0 z" fill-opacity="0" stroke="#BFBFBF" stroke-width="0.5"/>
    <g>
      <g>
        <path d="M99.94,12.883 C99.94,12.883 102.697,12.947 102.697,12.947 C102.697,12.947 104.684,12.627 104.684,12.627 C104.684,12.627 106.094,12.755 106.094,12.755 C106.094,12.755 106.735,13.14 106.735,13.14 C106.735,13.14 107.889,12.05 107.889,12.05 C107.889,12.05 109.299,11.665 109.299,11.665 C109.299,11.665 111.094,11.858 111.094,11.858 C111.094,11.858 113.401,12.883 113.401,12.883 C113.401,12.883 115.132,15.127 115.132,15.127 C115.132,15.127 116.093,17.05 116.093,17.05 C116.093,17.05 116.158,20.126 116.158,20.126 C116.158,20.126 115.26,21.729 115.26,21.729 C115.26,21.729 113.209,23.46 113.209,23.46 C113.209,23.46 110.389,24.87 110.389,24.87 C110.389,24.87 109.812,24.485 109.812,24.485 C109.812,24.485 110.26,23.396 110.26,23.396 C110.26,23.396 109.107,23.139 109.107,23.139 C109.107,23.139 109.235,21.729 109.235,21.729 C109.235,21.729 110.26,21.729 110.26,21.729 C110.26,21.729 113.529,21.408 113.529,21.408 C113.529,21.408 114.106,18.652 114.106,18.652 C114.106,18.652 113.081,16.857 113.081,16.857 C113.081,16.857 111.927,15.063 111.927,15.063 C111.927,15.063 109.491,14.614 109.491,14.614 C109.491,14.614 108.081,15.896 108.081,15.896 C108.081,15.896 107.055,16.345 107.055,16.345 C107.055,16.345 105.261,16.024 105.261,16.024 C105.261,16.024 103.081,15.383 103.081,15.383 C103.081,15.383 101.158,14.998 101.158,14.998 C101.158,14.998 99.363,14.678 99.363,14.678 C99.363,14.678 98.979,13.781 98.979,13.781 C98.979,13.781 99.043,12.883 99.043,12.883 C99.043,12.883 99.94,12.947 99.94,12.883 z" fill="#000000"/>
        <path d="M99.94,12.883 C99.94,12.883 102.697,12.947 102.697,12.947 C102.697,12.947 104.684,12.627 104.684,12.627 C104.684,12.627 106.094,12.755 106.094,12.755 C106.094,12.755 106.735,13.14 106.735,13.14 C106.735,13.14 107.889,12.05 107.889,12.05 C107.889,12.05 109.299,11.665 109.299,11.665 C109.299,11.665 111.094,11.858 111.094,11.858 C111.094,11.858 113.401,12.883 113.401,12.883 C113.401,12.883 115.132,15.127 115.132,15.127 C115.132,15.127 116.093,17.05 116.093,17.05 C116.093,17.05 116.158,20.126 116.158,20.126 C116.158,20.126 115.26,21.729 115.26,21.729 C115.26,21.729 113.209,23.46 113.209,23.46 C113.209,23.46 110.389,24.87 110.389,24.87 C110.389,24.87 109.812,24.485 109.812,24.485 C109.812,24.485 110.26,23.396 110.26,23.396 C110.26,23.396 109.107,23.139 109.107,23.139 C109.107,23.139 109.235,21.729 109.235,21.729 C109.235,21.729 110.26,21.729 110.26,21.729 C110.26,21.729 113.529,21.408 113.529,21.408 C113.529,21.408 114.106,18.652 114.106,18.652 C114.106,18.652 113.081,16.857 113.081,16.857 C113.081,16.857 111.927,15.063 111.927,15.063 C111.927,15.063 109.491,14.614 109.491,14.614 C109.491,14.614 108.081,15.896 108.081,15.896 C108.081,15.896 107.055,16.345 107.055,16.345 C107.055,16.345 105.261,16.024 105.261,16.024 C105.261,16.024 103.081,15.383 103.081,15.383 C103.081,15.383 101.158,14.998 101.158,14.998 C101.158,14.998 99.363,14.678 99.363,14.678 C99.363,14.678 98.979,13.781 98.979,13.781 C98.979,13.781 99.043,12.883 99.043,12.883 C99.043,12.883 99.94,12.947 99.94,12.883 z" fill-opacity="0" stroke="#000000" stroke-width="1"/>
      </g>
      <path d="M100.838,14.998 C100.838,14.998 99.684,15.575 99.684,15.575 C99.684,15.575 98.979,16.216 98.979,16.216 C98.979,16.216 98.915,16.857 98.915,16.857" fill-opacity="0" stroke="#000000" stroke-width="1"/>
      <path d="M101.543,14.934 C101.543,14.934 100.838,15.896 100.838,15.896 C100.838,15.896 100.389,16.537 100.389,16.537 C100.389,16.537 100.325,17.306 100.325,17.306" fill-opacity="0" stroke="#000000" stroke-width="1"/>
      <path d="M104.427,15.832 C104.427,15.832 104.107,16.409 104.107,16.409 C103.915,16.665 102.825,16.665 102.825,16.665 C102.825,16.665 101.863,16.537 101.863,16.537 C101.863,16.537 101.415,16.986 101.415,16.986 C101.415,16.986 100.902,18.139 100.902,18.139 C100.902,18.139 100.581,20.96 100.581,20.96 C100.581,20.96 101.863,22.113 101.863,22.113" fill-opacity="0" stroke="#000000" stroke-width="1"/>
      <path d="M105.517,16.088 C105.517,16.088 105.197,16.729 105.197,16.729 C105.197,16.729 104.491,17.242 104.491,17.242 C104.491,17.242 103.658,17.562 103.658,17.562 C103.658,17.562 102.248,17.562 102.248,17.562 C102.248,17.562 101.735,18.524 101.735,18.524 C101.735,18.524 101.735,20.383 101.735,20.383 C101.735,20.383 102.697,21.537 102.697,21.537 C102.697,21.537 103.786,22.306 103.786,22.306" fill-opacity="0" stroke="#000000" stroke-width="1"/>
      <path d="M106.414,16.088 C106.414,16.088 105.838,17.434 105.838,17.434 C105.838,17.434 105.197,17.947 105.197,17.947 C105.197,17.947 104.043,18.524 104.043,18.524 C104.043,18.524 103.017,18.588 103.017,18.588 C103.017,18.588 102.825,19.421 102.825,19.421 C102.825,19.421 103.402,20.511 103.402,20.511 C103.402,20.511 104.62,21.472 104.62,21.472 C104.62,21.472 105.838,22.498 105.838,22.498" fill-opacity="0" stroke="#000000" stroke-width="1"/>
      <path d="M107.12,16.28 C107.12,16.28 107.055,17.242 107.055,17.242 C107.055,17.242 106.414,18.139 106.414,18.139 C106.414,18.139 105.838,18.973 105.838,18.973 C105.838,18.973 105.966,19.55 105.966,19.55 C105.966,19.55 107.12,20.062 107.12,20.062 C107.12,20.062 108.209,19.678 108.209,19.678" fill-opacity="0" stroke="#000000" stroke-width="1"/>
      <path d="M110.389,14.678 C110.389,14.678 109.555,15.832 109.555,15.832 C109.555,15.832 109.555,16.601 109.555,16.601" fill-opacity="0" stroke="#000000" stroke-width="1"/>
      <path d="M110.901,14.742 C110.901,14.742 110.581,15.575 110.581,15.575 C110.581,15.575 110.389,16.537 110.389,16.537" fill-opacity="0" stroke="#000000" stroke-width="1"/>
      <path d="M112.504,16.024 C112.504,16.024 111.607,16.921 111.607,16.921 C111.607,16.921 111.094,17.498 111.094,17.498" fill-opacity="0" stroke="#000000" stroke-width="1"/>
      <path d="M112.889,16.601 C112.889,16.601 112.312,17.306 112.312,17.306 C112.312,17.306 111.542,18.011 111.542,18.011" fill-opacity="0" stroke="#000000" stroke-width="1"/>
      <path d="M113.594,17.498 C113.594,17.498 112.376,18.588 112.376,18.588" fill-opacity="0" stroke="#000000" stroke-width="1"/>
      <path d="M113.786,18.075 C113.786,18.075 112.824,19.165 112.824,19.165" fill-opacity="0" stroke="#000000" stroke-width="1"/>
      <path d="M99.876,14.87 C99.028,14.811 97.471,15.187 96.992,14.229 C96.524,13.293 97.089,12.303 97.312,11.409 C98.164,8.003 102.429,6.845 105.453,6.089 C106.335,5.868 107.374,6.238 108.273,6.089 C109.023,5.964 110.061,5.702 110.837,5.896 C111.749,6.124 112.417,6.558 113.273,6.986 C115.699,8.199 116.21,8.18 117.504,10.768" fill-opacity="0" stroke="#000000" stroke-width="1" stroke-linecap="round" stroke-linejoin="round"/>
      <path d="M99.107,14.742 C98.463,14.397 97.801,13.364 98.017,12.499 C98.733,9.634 101.523,8.674 104.171,8.012 C105.133,7.771 106.025,7.283 106.927,6.922 C110.112,5.648 114.151,5.364 116.67,7.883 C117.51,8.723 118.388,9.496 118.722,10.832" fill-opacity="0" stroke="#000000" stroke-width="1" stroke-linecap="round" stroke-linejoin="round"/>
      <g>
        <path d="M99.94,12.883 C99.94,12.883 102.697,12.947 102.697,12.947 C102.697,12.947 104.684,12.627 104.684,12.627 C104.684,12.627 106.094,12.755 106.094,12.755 C106.094,12.755 106.735,13.14 106.735,13.14 C106.735,13.14 107.889,12.05 107.889,12.05 C107.889,12.05 109.299,11.665 109.299,11.665 C109.299,11.665 111.094,11.858 111.094,11.858 C111.094,11.858 113.401,12.883 113.401,12.883 C113.401,12.883 115.132,15.127 115.132,15.127 C115.132,15.127 116.093,17.05 116.093,17.05 C116.093,17.05 116.158,20.126 116.158,20.126 C116.158,20.126 115.26,21.729 115.26,21.729 C115.26,21.729 113.209,23.46 113.209,23.46 C113.209,23.46 110.389,24.87 110.389,24.87 C110.389,24.87 109.812,24.485 109.812,24.485 C109.812,24.485 110.26,23.396 110.26,23.396 C110.26,23.396 109.107,23.139 109.107,23.139 C109.107,23.139 109.235,21.729 109.235,21.729 C109.235,21.729 110.26,21.729 110.26,21.729 C110.26,21.729 113.529,21.408 113.529,21.408 C113.529,21.408 114.106,18.652 114.106,18.652 C114.106,18.652 113.081,16.857 113.081,16.857 C113.081,16.857 111.927,15.063 111.927,15.063 C111.927,15.063 109.491,14.614 109.491,14.614 C109.491,14.614 108.081,15.896 108.081,15.896 C108.081,15.896 107.055,16.345 107.055,16.345 C107.055,16.345 105.261,16.024 105.261,16.024 C105.261,16.024 103.081,15.383 103.081,15.383 C103.081,15.383 101.158,14.998 101.158,14.998 C101.158,14.998 99.363,14.678 99.363,14.678 C99.363,14.678 98.979,13.781 98.979,13.781 C98.979,13.781 99.043,12.883 99.043,12.883 C99.043,12.883 99.94,12.947 99.94,12.883 z" fill="#000000"/>
        <path d="M99.94,12.883 C99.94,12.883 102.697,12.947 102.697,12.947 C102.697,12.947 104.684,12.627 104.684,12.627 C104.684,12.627 106.094,12.755 106.094,12.755 C106.094,12.755 106.735,13.14 106.735,13.14 C106.735,13.14 107.889,12.05 107.889,12.05 C107.889,12.05 109.299,11.665 109.299,11.665 C109.299,11.665 111.094,11.858 111.094,11.858 C111.094,11.858 113.401,12.883 113.401,12.883 C113.401,12.883 115.132,15.127 115.132,15.127 C115.132,15.127 116.093,17.05 116.093,17.05 C116.093,17.05 116.158,20.126 116.158,20.126 C116.158,20.126 115.26,21.729 115.26,21.729 C115.26,21.729 113.209,23.46 113.209,23.46 C113.209,23.46 110.389,24.87 110.389,24.87 C110.389,24.87 109.812,24.485 109.812,24.485 C109.812,24.485 110.26,23.396 110.26,23.396 C110.26,23.396 109.107,23.139 109.107,23.139 C109.107,23.139 109.235,21.729 109.235,21.729 C109.235,21.729 110.26,21.729 110.26,21.729 C110.26,21.729 113.529,21.408 113.529,21.408 C113.529,21.408 114.106,18.652 114.106,18.652 C114.106,18.652 113.081,16.857 113.081,16.857 C113.081,16.857 111.927,15.063 111.927,15.063 C111.927,15.063 109.491,14.614 109.491,14.614 C109.491,14.614 108.081,15.896 108.081,15.896 C108.081,15.896 107.055,16.345 107.055,16.345 C107.055,16.345 105.261,16.024 105.261,16.024 C105.261,16.024 103.081,15.383 103.081,15.383 C103.081,15.383 101.158,14.998 101.158,14.998 C101.158,14.998 99.363,14.678 99.363,14.678 C99.363,14.678 98.979,13.781 98.979,13.781 C98.979,13.781 99.043,12.883 99.043,12.883 C99.043,12.883 99.94,12.947 99.94,12.883 z" fill-opacity="0" stroke="#000000" stroke-width="1"/>
      </g>
      <path d="M100.838,14.998 C100.838,14.998 99.684,15.575 99.684,15.575 C99.684,15.575 98.979,16.216 98.979,16.216 C98.979,16.216 98.915,16.857 98.915,16.857" fill-opacity="0" stroke="#000000" stroke-width="1"/>
      <path d="M101.543,14.934 C101.543,14.934 100.838,15.896 100.838,15.896 C100.838,15.896 100.389,16.537 100.389,16.537 C100.389,16.537 100.325,17.306 100.325,17.306" fill-opacity="0" stroke="#000000" stroke-width="1"/>
      <path d="M104.427,15.832 C104.427,15.832 104.107,16.409 104.107,16.409 C103.915,16.665 102.825,16.665 102.825,16.665 C102.825,16.665 101.863,16.537 101.863,16.537 C101.863,16.537 101.415,16.986 101.415,16.986 C101.415,16.986 100.902,18.139 100.902,18.139 C100.902,18.139 100.581,20.96 100.581,20.96 C100.581,20.96 101.863,22.113 101.863,22.113" fill-opacity="0" stroke="#000000" stroke-width="1"/>
      <path d="M105.517,16.088 C105.517,16.088 105.197,16.729 105.197,16.729 C105.197,16.729 104.491,17.242 104.491,17.242 C104.491,17.242 103.658,17.562 103.658,17.562 C103.658,17.562 102.248,17.562 102.248,17.562 C102.248,17.562 101.735,18.524 101.735,18.524 C101.735,18.524 101.735,20.383 101.735,20.383 C101.735,20.383 102.697,21.537 102.697,21.537 C102.697,21.537 103.786,22.306 103.786,22.306" fill-opacity="0" stroke="#000000" stroke-width="1"/>
      <path d="M106.414,16.088 C106.414,16.088 105.838,17.434 105.838,17.434 C105.838,17.434 105.197,17.947 105.197,17.947 C105.197,17.947 104.043,18.524 104.043,18.524 C104.043,18.524 103.017,18.588 103.017,18.588 C103.017,18.588 102.825,19.421 102.825,19.421 C102.825,19.421 103.402,20.511 103.402,20.511 C103.402,20.511 104.62,21.472 104.62,21.472 C104.62,21.472 105.838,22.498 105.838,22.498" fill-opacity="0" stroke="#000000" stroke-width="1"/>
      <path d="M107.12,16.28 C107.12,16.28 107.055,17.242 107.055,17.242 C107.055,17.242 106.414,18.139 106.414,18.139 C106.414,18.139 105.838,18.973 105.838,18.973 C105.838,18.973 105.966,19.55 105.966,19.55 C105.966,19.55 107.12,20.062 107.12,20.062 C107.12,20.062 108.209,19.678 108.209,19.678" fill-opacity="0" stroke="#000000" stroke-width="1"/>
      <path d="M110.389,14.678 C110.389,14.678 109.555,15.832 109.555,15.832 C109.555,15.832 109.555,16.601 109.555,16.601" fill-opacity="0" stroke="#000000" stroke-width="1"/>
      <path d="M110.901,14.742 C110.901,14.742 110.581,15.575 110.581,15.575 C110.581,15.575 110.389,16.537 110.389,16.537" fill-opacity="0" stroke="#000000" stroke-width="1"/>
      <path d="M112.504,16.024 C112.504,16.024 111.607,16.921 111.607,16.921 C111.607,16.921 111.094,17.498 111.094,17.498" fill-opacity="0" stroke="#000000" stroke-width="1"/>
      <path d="M112.889,16.601 C112.889,16.601 112.312,17.306 112.312,17.306 C112.312,17.306 111.542,18.011 111.542,18.011" fill-opacity="0" stroke="#000000" stroke-width="1"/>
      <path d="M113.594,17.498 C113.594,17.498 112.376,18.588 112.376,18.588" fill-opacity="0" stroke="#000000" stroke-width="1"/>
      <path d="M113.786,18.075 C113.786,18.075 112.824,19.165 112.824,19.165" fill-opacity="0" stroke="#000000" stroke-width="1"/>
      <path d="M99.876,14.87 C99.028,14.811 97.471,15.187 96.992,14.229 C96.524,13.293 97.089,12.303 97.312,11.409 C98.164,8.003 102.429,6.845 105.453,6.089 C106.335,5.868 107.374,6.238 108.273,6.089 C109.023,5.964 110.061,5.702 110.837,5.896 C111.749,6.124 112.417,6.558 113.273,6.986 C115.699,8.199 116.21,8.18 117.504,10.768" fill-opacity="0" stroke="#000000" stroke-width="1" stroke-linecap="round" stroke-linejoin="round"/>
      <path d="M99.107,14.742 C98.463,14.397 97.801,13.364 98.017,12.499 C98.733,9.634 101.523,8.674 104.171,8.012 C105.133,7.771 106.025,7.283 106.927,6.922 C110.112,5.648 114.151,5.364 116.67,7.883 C117.51,8.723 118.388,9.496 118.722,10.832" fill-opacity="0" stroke="#000000" stroke-width="1" stroke-linecap="round" stroke-linejoin="round"/>
    </g>
    <path d="M154.5,0 L184.5,0 L184.5,30 L154.5,30 L154.5,0 z" fill-opacity="0" stroke="#BFBFBF" stroke-width="0.5"/>
    <path d="M159.083,15.533 L157.75,18.315 L156.417,16.48 z" fill="#FFFFFF"/>
    <path d="M162.125,15.203 C161.78,15.203 161.5,14.958 161.5,14.656 C161.5,14.354 161.78,14.109 162.125,14.109 C162.47,14.109 162.75,14.354 162.75,14.656 C162.75,14.958 162.47,15.203 162.125,15.203 z" fill="#FFFFFF"/>
    <path d="M163.437,11.969 L169.062,11.969 L169.062,18.315 L163.437,18.315 L163.437,11.969 z" fill="#000000"/>
    <path d="M160.625,11.969 L162.75,11.969 L162.75,18.315 L160.625,18.315 L160.625,11.969 z" fill="#000000"/>
    <path d="M158.333,11.969 L159.885,11.969 L159.885,18.315 L158.333,18.315 L158.333,11.969 z" fill="#000000"/>
    <path d="M156.417,11.969 L157.385,11.969 L157.385,18.315 L156.417,18.315 L156.417,11.969 z" fill="#000000"/>
    <g>
      <path d="M168.875,8.376 L181.459,15.642 L168.875,22.907 z" fill="#000000"/>
      <path d="M168.875,8.376 L181.459,15.642 L168.875,22.907 z" fill-opacity="0" stroke="#000000" stroke-width="1"/>
    </g>
    <path d="M0,0 L30,0 L30,30 L0,30 L0,0 z" fill-opacity="0" stroke="#BFBFBF" stroke-width="0.5"/>
    <g>
      <g>
        <path d="M16.249,18.858 C18.453,20.114 17.778,24.067 16.249,25.596 C15.791,26.054 15.972,26.321 15.223,26.695 L16.249,18.858 z" fill="#000000"/>
        <path d="M16.249,18.858 C18.453,20.114 17.778,24.067 16.249,25.596 C15.791,26.054 15.972,26.321 15.223,26.695 L16.249,18.858 z" fill-opacity="0" stroke="#000000" stroke-width="1" stroke-linecap="round" stroke-linejoin="round"/>
      </g>
      <g>
        <path d="M15.516,26.658 L15.402,26.594" fill="#000000"/>
        <path d="M15.516,26.658 L15.402,26.594" fill-opacity="0" stroke="#000000" stroke-width="1" stroke-linecap="round" stroke-linejoin="round"/>
      </g>
      <g>
        <path d="M15.249,26.499 C14.901,26.265 14.762,25.865 14.491,25.56 C12.962,24.03 12.287,20.078 14.491,18.821" fill="#000000"/>
        <path d="M15.249,26.499 C14.901,26.265 14.762,25.865 14.491,25.56 C12.962,24.03 12.287,20.078 14.491,18.821" fill-opacity="0" stroke="#000000" stroke-width="1" stroke-linecap="round" stroke-linejoin="round"/>
      </g>
      <g>
        <path d="M15.223,9.666 L14.966,13.686 C15.129,13.719 15.077,13.678 15.15,13.768 C15.105,13.87 15.006,13.983 14.942,14.068 L14.638,18.821 C14.455,18.477 14.692,17.631 14.418,17.356 C14.326,17.265 14.121,17.168 14.052,17.064 C14.004,16.992 14.088,15.453 14.125,15.306 C14.315,14.849 14.647,14.46 14.942,14.068 L14.966,13.686 C14.753,13.644 14.62,13.735 14.418,13.621 C14.292,13.495 14.311,13.193 14.271,13.035 C13.951,11.756 13.862,10.347 15.223,9.666 z" fill="#000000"/>
        <path d="M15.223,9.666 L14.966,13.686 C15.129,13.719 15.077,13.678 15.15,13.768 C15.105,13.87 15.006,13.983 14.942,14.068 L14.638,18.821 C14.455,18.477 14.692,17.631 14.418,17.356 C14.326,17.265 14.121,17.168 14.052,17.064 C14.004,16.992 14.088,15.453 14.125,15.306 C14.315,14.849 14.647,14.46 14.942,14.068 L14.966,13.686 C14.753,13.644 14.62,13.735 14.418,13.621 C14.292,13.495 14.311,13.193 14.271,13.035 C13.951,11.756 13.862,10.347 15.223,9.666 z" fill-opacity="0" stroke="#000000" stroke-width="1" stroke-linecap="round" stroke-linejoin="round"/>
      </g>
      <g>
        <path d="M15.516,9.629 C16.877,10.31 16.788,11.719 16.469,12.999 C16.429,13.157 16.448,13.459 16.322,13.584 C16.161,13.696 15.951,13.612 15.774,13.649 L15.798,14.031 C16.088,14.431 16.422,14.81 16.615,15.269 C16.652,15.417 16.736,16.955 16.688,17.027 C16.619,17.131 16.413,17.229 16.322,17.32 C16.048,17.594 16.285,18.44 16.102,18.785 L15.798,14.031 C15.744,13.929 15.629,13.843 15.59,13.731 C15.663,13.641 15.611,13.683 15.774,13.649 L15.516,9.629 z" fill="#000000"/>
        <path d="M15.516,9.629 C16.877,10.31 16.788,11.719 16.469,12.999 C16.429,13.157 16.448,13.459 16.322,13.584 C16.161,13.696 15.951,13.612 15.774,13.649 L15.798,14.031 C16.088,14.431 16.422,14.81 16.615,15.269 C16.652,15.417 16.736,16.955 16.688,17.027 C16.619,17.131 16.413,17.229 16.322,17.32 C16.048,17.594 16.285,18.44 16.102,18.785 L15.798,14.031 C15.744,13.929 15.629,13.843 15.59,13.731 C15.663,13.641 15.611,13.683 15.774,13.649 L15.516,9.629 z" fill-opacity="0" stroke="#000000" stroke-width="1" stroke-linecap="round" stroke-linejoin="round"/>
      </g>
      <path d="M14.271,10.252 L14.271,10.252" fill-opacity="0" stroke="#000000" stroke-width="1" stroke-linecap="round" stroke-linejoin="round"/>
      <g>
        <path d="M14.558,10.032 C12.458,7.179 11.848,6.527 11.848,3.074" fill-opacity="0" stroke="#000000" stroke-width="1" stroke-linecap="round" stroke-linejoin="round"/>
        <path d="M14.251,14.647 C14.022,14.604 13.366,14.347 13.225,14.207 C12.849,13.831 12.729,13.361 12.493,12.889 C12.324,12.55 12.053,12.375 11.834,12.083 C10.94,10.891 10.956,10.729 9.563,10.032" fill-opacity="0" stroke="#000000" stroke-width="1" stroke-linecap="round" stroke-linejoin="round"/>
        <path d="M14.237,15.745 C13.764,16.098 11.863,14.838 11.6,15.013 C9.136,16.655 9.615,20.074 8.157,21.531" fill-opacity="0" stroke="#000000" stroke-width="1" stroke-linecap="round" stroke-linejoin="round"/>
        <path d="M14.237,16.697 C13.922,17.138 13.609,17.583 13.284,18.016 C13.045,18.335 12.803,18.654 12.552,18.968 C12.255,19.338 11.699,19.552 11.453,19.92 C11.261,20.208 11.453,21.309 11.453,21.678 C11.453,23.473 11.711,25.989 10.135,27.171 C9.923,27.33 9.933,27.565 9.696,27.684" fill-opacity="0" stroke="#000000" stroke-width="1" stroke-linecap="round" stroke-linejoin="round"/>
      </g>
      <g>
        <path d="M16.361,10.032 C18.461,7.179 19.071,6.527 19.071,3.074" fill-opacity="0" stroke="#000000" stroke-width="1" stroke-linecap="round" stroke-linejoin="round"/>
        <path d="M16.668,14.647 C16.897,14.604 17.553,14.347 17.693,14.207 C18.07,13.831 18.19,13.361 18.426,12.889 C18.595,12.55 18.866,12.375 19.085,12.083 C19.979,10.891 19.963,10.729 21.355,10.032" fill-opacity="0" stroke="#000000" stroke-width="1" stroke-linecap="round" stroke-linejoin="round"/>
        <path d="M16.682,15.745 C17.154,16.098 19.056,14.838 19.319,15.013 C21.782,16.655 21.304,20.074 22.761,21.531" fill-opacity="0" stroke="#000000" stroke-width="1" stroke-linecap="round" stroke-linejoin="round"/>
        <path d="M16.682,16.697 C16.997,17.138 17.31,17.583 17.634,18.016 C17.874,18.335 18.116,18.654 18.367,18.968 C18.663,19.338 19.22,19.552 19.465,19.92 C19.657,20.208 19.465,21.309 19.465,21.678 C19.465,23.473 19.208,25.989 20.784,27.171 C20.996,27.33 20.986,27.565 21.223,27.684" fill-opacity="0" stroke="#000000" stroke-width="1" stroke-linecap="round" stroke-linejoin="round"/>
      </g>
    </g>
    <g>
      <path d="M14.453,12.094 L16.25,12.094 L16.25,25.141 L14.453,25.141 L14.453,12.094 z" fill="#000000"/>
      <path d="M14.453,12.094 L16.25,12.094 L16.25,25.141 L14.453,25.141 L14.453,12.094 z" fill-opacity="0" stroke="#000000" stroke-width="1"/>
    </g>
  </g>
</svg>
