<?xml version="1.0" encoding="UTF-8"?>
<!DOCTYPE svg PUBLIC "-//W3C//DTD SVG 1.1//EN" "http://www.w3.org/Graphics/SVG/1.1/DTD/svg11.dtd">
<svg version="1.1" xmlns="http://www.w3.org/2000/svg" xmlns:xlink="http://www.w3.org/1999/xlink" x="0" y="0" width="39.923" height="24" viewBox="0, 0, 39.923, 24">
  <defs>
    <clipPath id="Clip_1">
      <path d="M95.25,487.75 L135.673,487.75 L135.673,512.25 L95.25,512.25 z M107.188,489.75 L106.938,489.75 L106.938,489.789 C101.541,490.317 97.415,494.515 97.25,499.996 C97.747,505.29 101.318,509.939 106.938,510.215 L106.938,510.25 L123.938,510.25 L123.938,510.213 C129.35,509.686 133.51,505.513 133.673,500.004 C133.174,494.688 129.577,490.045 123.938,489.782 L123.938,489.75 L123.425,489.75 L123.436,489.75 L123.409,489.75 L107.188,489.75 z"/>
    </clipPath>
    <filter id="Shadow_2">
      <feGaussianBlur in="SourceAlpha" stdDeviation="0.5"/>
      <feOffset dx="0" dy="0" result="offsetblur"/>
      <feFlood flood-color="#B3B3B3"/>
      <feComposite in2="offsetblur" operator="in"/>
    </filter>
    <clipPath id="Clip_3">
      <path d="M96.298,488.75 L118.798,488.75 L118.798,511.25 L96.298,511.25 z M107.548,490.75 C102.44,490.75 98.298,494.891 98.298,500 C98.298,505.109 102.44,509.25 107.548,509.25 C112.657,509.25 116.798,505.109 116.798,500 C116.798,494.891 112.657,490.75 107.548,490.75 z"/>
    </clipPath>
    <filter id="Shadow_4">
      <feGaussianBlur in="SourceAlpha" stdDeviation="0.5"/>
      <feOffset dx="0" dy="0" result="offsetblur"/>
      <feFlood flood-color="#B3B3B3"/>
      <feComposite in2="offsetblur" operator="in"/>
    </filter>
  </defs>
  <g id="Layer_1" transform="translate(-95, -487.5)">
    <g>
      <g>
        <path d="M107.188,510 L107.188,509.984 C101.656,509.831 97.769,505.322 97.5,500 C97.592,494.581 101.793,490.288 107.188,490.016 L107.188,490 L123.421,490 L123.423,490 L123.425,490 L123.688,490 L123.688,490.013 C129.238,490.156 133.153,494.649 133.423,500 C133.331,505.456 129.1,509.713 123.688,509.987 L123.688,510 L107.188,510 z" fill="#D5D5D5"/>
        <path d="M107.188,510 L107.188,509.984 C101.656,509.831 97.769,505.322 97.5,500 C97.592,494.581 101.793,490.288 107.188,490.016 L107.188,490 L123.421,490 L123.423,490 L123.425,490 L123.688,490 L123.688,490.013 C129.238,490.156 133.153,494.649 133.423,500 C133.331,505.456 129.1,509.713 123.688,509.987 L123.688,510 L107.188,510 z" fill-opacity="0" stroke="#000000" stroke-width="0.5"/>
        <g>
          <path d="M107.188,489.75 L123.409,489.75 L123.436,489.75 L123.425,489.75 L123.938,489.75 L123.938,489.782 C129.577,490.045 133.174,494.688 133.673,500.004 C133.51,505.513 129.35,509.686 123.938,510.213 L123.938,510.25 L106.938,510.25 L106.938,510.215 C101.318,509.939 97.747,505.29 97.25,499.996 C97.415,494.515 101.541,490.317 106.938,489.789 L106.938,489.75 L107.188,489.75 z" fill="rgba(0,0,0,0.25)" clip-path="url(#Clip_1)" filter="url(#Shadow_2)"/>
          <path d="M107.188,490 L123.409,490 L123.437,490 C123.766,489.999 123.77,489.507 123.44,489.5 L123.43,489.5 L123.425,489.75 L123.425,490 L123.938,490 L123.938,489.75 L123.688,489.75 L123.688,489.782 C123.688,489.915 123.793,490.025 123.926,490.031 C129.136,490.275 132.902,494.475 133.424,500.028 C133.266,505.31 129.273,509.443 123.913,509.964 C123.785,509.977 123.688,510.085 123.688,510.213 L123.688,510.25 L123.938,510.25 L123.938,510 L106.938,510 L106.938,510.25 L107.188,510.25 L107.188,510.215 C107.188,510.082 107.083,509.972 106.95,509.966 C101.764,509.711 98.019,505.511 97.499,499.972 C97.659,494.704 101.634,490.56 106.962,490.038 C107.09,490.026 107.188,489.918 107.188,489.789 L107.188,489.75 L106.938,489.75 L106.938,490 L107.188,490 z M107.188,489.5 L106.938,489.5 C106.8,489.5 106.688,489.612 106.688,489.75 L106.688,489.789 L106.938,489.789 L106.913,489.54 C101.337,490.086 97.167,494.435 97,499.988 C97.543,505.79 101.473,510.197 106.925,510.465 L106.938,510.215 L106.688,510.215 L106.688,510.25 C106.688,510.388 106.8,510.5 106.938,510.5 L123.938,510.5 C124.076,510.5 124.188,510.388 124.188,510.25 L124.188,510.213 L123.938,510.213 L123.962,510.462 C129.569,509.916 133.758,505.58 133.923,500.012 C133.378,494.195 129.426,489.788 123.949,489.532 L123.938,489.782 L124.188,489.782 L124.188,489.75 C124.188,489.612 124.076,489.5 123.938,489.5 L123.425,489.5 C123.095,489.5 123.09,489.994 123.42,490 L123.431,490 L123.436,489.75 L123.435,489.5 L123.408,489.5 L107.188,489.5 z" fill="rgba(0,0,0,0.25)" clip-path="url(#Clip_1)" filter="url(#Shadow_2)"/>
        </g>
      </g>
      <g>
        <path d="M107.548,509 C102.578,509 98.548,504.971 98.548,500 C98.548,495.029 102.578,491 107.548,491 C112.519,491 116.548,495.029 116.548,500 C116.548,504.971 112.519,509 107.548,509 z" fill="#FFFFFF"/>
        <path d="M107.548,509 C102.578,509 98.548,504.971 98.548,500 C98.548,495.029 102.578,491 107.548,491 C112.519,491 116.548,495.029 116.548,500 C116.548,504.971 112.519,509 107.548,509 z" fill-opacity="0" stroke="#000000" stroke-width="0.5"/>
        <g>
          <path d="M107.548,490.75 C112.657,490.75 116.798,494.891 116.798,500 C116.798,505.109 112.657,509.25 107.548,509.25 C102.44,509.25 98.298,505.109 98.298,500 C98.298,494.891 102.44,490.75 107.548,490.75 z" fill="rgba(0,0,0,0.25)" clip-path="url(#Clip_3)" filter="url(#Shadow_4)"/>
          <path d="M107.548,491 C112.519,491 116.548,495.029 116.548,500 C116.548,504.971 112.519,509 107.548,509 C102.578,509 98.548,504.971 98.548,500 C98.548,495.029 102.578,491 107.548,491 z M107.548,490.5 C102.301,490.5 98.048,494.753 98.048,500 C98.048,505.247 102.301,509.5 107.548,509.5 C112.795,509.5 117.048,505.247 117.048,500 C117.048,494.753 112.795,490.5 107.548,490.5 z" fill="rgba(0,0,0,0.25)" clip-path="url(#Clip_3)" filter="url(#Shadow_4)"/>
        </g>
      </g>
      <g>
        <g>
          <path d="M126.974,500.198 L124.923,503.75 L122.873,500.198 z" fill="#959595"/>
          <path d="M126.974,500.198 L124.923,503.75 L122.873,500.198 z" fill-opacity="0" stroke="#959595" stroke-width="1"/>
        </g>
        <g>
          <path d="M124.923,496.25 C126.313,496.25 127.44,497.377 127.44,498.767 C127.44,500.158 126.313,501.285 124.923,501.285 C123.533,501.285 122.406,500.158 122.406,498.767 C122.406,497.377 123.533,496.25 124.923,496.25 z" fill="#959595"/>
          <path d="M124.923,496.25 C126.313,496.25 127.44,497.377 127.44,498.767 C127.44,500.158 126.313,501.285 124.923,501.285 C123.533,501.285 122.406,500.158 122.406,498.767 C122.406,497.377 123.533,496.25 124.923,496.25 z" fill-opacity="0" stroke="#959595" stroke-width="1"/>
        </g>
      </g>
      <g>
        <path d="M124.923,500.302 C124.028,500.302 123.303,499.576 123.303,498.681 C123.303,497.786 124.028,497.06 124.923,497.06 C125.818,497.06 126.544,497.786 126.544,498.681 C126.544,499.576 125.818,500.302 124.923,500.302 z" fill="#FFFFFF"/>
        <path d="M124.923,500.302 C124.028,500.302 123.303,499.576 123.303,498.681 C123.303,497.786 124.028,497.06 124.923,497.06 C125.818,497.06 126.544,497.786 126.544,498.681 C126.544,499.576 125.818,500.302 124.923,500.302 z" fill-opacity="0" stroke="#959595" stroke-width="1"/>
      </g>
      <g>
        <g>
          <path d="M107.852,497 L110.401,499.174 L110.401,504.387 L104.695,504.387 L104.695,497 L107.852,497 z" fill="#FFFFFF"/>
          <path d="M107.852,497 L110.401,499.174 L110.401,504.387 L104.695,504.387 L104.695,497 L107.852,497 z" fill-opacity="0" stroke="#000000" stroke-width="0.25"/>
        </g>
        <g>
          <path d="M107.973,499.125 L107.973,497.156 L110.271,499.125 L107.973,499.125 z" fill="#FFFFFF"/>
          <path d="M107.973,499.125 L107.973,497.156 L110.271,499.125 L107.973,499.125 z" fill-opacity="0" stroke="#000000" stroke-width="0.25"/>
        </g>
        <path d="M106.051,500.52 L109.051,500.52" fill-opacity="0" stroke="#000000" stroke-width="0.25"/>
        <path d="M106.051,501.114 L109.051,501.114" fill-opacity="0" stroke="#000000" stroke-width="0.25"/>
        <path d="M106.051,501.708 L109.051,501.708" fill-opacity="0" stroke="#000000" stroke-width="0.25"/>
        <path d="M106.051,502.302 L109.051,502.302" fill-opacity="0" stroke="#000000" stroke-width="0.25"/>
        <path d="M106.051,502.895 L107.739,502.895" fill-opacity="0" stroke="#000000" stroke-width="0.25"/>
      </g>
    </g>
  </g>
</svg>
