<?xml version="1.0" standalone="no"?>
<!DOCTYPE svg PUBLIC "-//W3C//DTD SVG 20010904//EN"
 "http://www.w3.org/TR/2001/REC-SVG-20010904/DTD/svg10.dtd">
<svg version="1.0" xmlns="http://www.w3.org/2000/svg"
 width="483.000000pt" height="483.000000pt" viewBox="0 0 483.000000 483.000000"
 preserveAspectRatio="xMidYMid meet">
<metadata>
Created by potrace 1.14, written by Peter Selinger 2001-2017
</metadata>
<g transform="translate(0.000000,483.000000) scale(0.100000,-0.100000)"
fill="#000000" stroke="none">
<path d="M1900 4819 c0 -9 7 -22 15 -29 19 -16 19 0 0 26 -12 16 -14 16 -15 3z"/>
<path d="M1985 4814 c-8 -9 -22 -14 -29 -11 -10 4 -12 -5 -10 -36 5 -58 -3
-77 -32 -77 -15 0 -24 -6 -24 -15 0 -15 -11 -19 -39 -15 -15 2 -14 0 15 -84
13 -35 14 -51 6 -54 -8 -2 -7 -15 5 -43 19 -47 11 -61 -18 -31 -11 13 -25 20
-30 16 -5 -3 -17 0 -26 8 -14 11 -15 10 -9 -10 4 -13 3 -22 -3 -22 -6 0 -14
15 -19 33 -7 25 -14 31 -30 30 -14 -2 -22 3 -22 12 0 8 5 15 10 15 6 0 10 7
10 15 0 8 -5 15 -10 15 -6 0 -16 12 -22 26 -9 20 -9 27 1 33 11 7 10 16 -5 46
-18 38 -18 38 6 57 l23 19 -21 6 c-13 3 -22 13 -22 24 0 25 -12 24 -28 -2 -9
-14 -10 -25 -3 -32 10 -12 15 -48 13 -79 -2 -13 -11 -18 -32 -18 -32 0 -37 -9
-18 -28 6 -6 8 -15 4 -19 -11 -11 -47 36 -39 51 4 8 3 8 -7 -1 -7 -6 -15 -41
-17 -77 -3 -37 -12 -71 -19 -77 -8 -6 -14 -24 -14 -40 0 -15 -4 -31 -10 -34
-5 -3 -10 -17 -10 -30 0 -13 -4 -27 -10 -30 -5 -3 -10 -14 -9 -23 0 -11 2 -12
6 -4 2 6 9 10 14 6 14 -8 11 -24 -6 -24 -8 0 -15 -6 -15 -14 0 -8 -5 -16 -12
-18 -8 -3 -5 -13 10 -33 12 -15 22 -34 22 -41 0 -8 3 -14 8 -14 8 0 32 -48 32
-66 0 -7 9 -12 20 -11 12 1 20 8 20 20 0 29 24 14 30 -18 4 -23 11 -28 39 -31
l34 -4 -7 40 c-5 32 -3 40 9 40 8 0 15 -4 15 -9 0 -5 25 -24 55 -41 30 -17 55
-35 55 -39 0 -4 -9 -16 -19 -25 -11 -10 -17 -24 -14 -32 3 -9 -1 -14 -12 -14
-12 0 -15 -5 -10 -20 4 -11 2 -20 -4 -20 -6 0 -11 5 -11 10 0 6 -12 10 -26 10
-15 0 -23 -4 -19 -10 12 -19 -15 -41 -35 -30 -15 8 -17 6 -13 -10 6 -23 0 -25
-26 -8 -11 7 -16 18 -13 30 3 11 -5 27 -19 41 -13 12 -35 39 -49 59 -18 27
-27 33 -32 23 -13 -22 -68 4 -68 32 0 14 -6 23 -15 23 -8 0 -15 5 -15 10 0 12
-39 -8 -56 -29 -6 -8 -16 -11 -22 -7 -17 10 -15 24 6 30 9 3 22 15 27 27 10
20 39 41 80 54 19 7 19 7 -3 16 -16 6 -22 16 -21 31 1 13 1 34 0 48 -1 20 -3
22 -11 10 -14 -22 -12 2 4 52 18 57 16 88 -5 88 -10 0 -24 3 -32 6 -20 7 -34
-65 -15 -77 11 -8 11 -11 -1 -18 -9 -6 -11 -20 -6 -50 8 -46 -5 -71 -35 -71
-20 0 -50 40 -50 67 0 10 -11 31 -24 47 l-23 30 -7 -27 c-8 -34 -24 -35 -32
-1 -4 17 -2 29 7 35 25 15 -7 32 -60 31 -29 -1 -51 3 -51 8 0 11 -59 -26 -72
-45 -13 -17 -9 -45 7 -45 22 0 18 -13 -10 -40 -20 -19 -27 -21 -40 -10 -13 11
-15 9 -15 -10 0 -13 -8 -32 -17 -42 -15 -17 -15 -19 2 -32 10 -7 15 -17 12
-23 -3 -5 -2 -35 2 -66 6 -43 4 -60 -6 -68 -7 -6 -13 -17 -13 -24 0 -7 -7 -19
-16 -26 -9 -7 -20 -24 -25 -36 -5 -13 -16 -26 -26 -30 -26 -10 -63 -45 -63
-60 0 -7 -5 -13 -10 -13 -15 0 -2 50 22 83 24 34 16 48 -12 22 -16 -14 -23
-16 -32 -7 -10 10 -10 17 0 32 17 27 15 30 -11 30 -13 0 -28 5 -35 12 -16 16
-54 -19 -47 -43 4 -12 -6 -35 -29 -65 -31 -40 -34 -48 -21 -61 16 -15 20 -49
8 -55 -14 -6 -44 -68 -34 -68 6 0 15 -10 22 -21 13 -25 -5 -69 -28 -69 -7 0
-13 -5 -13 -11 0 -6 -12 -9 -28 -7 -21 2 -27 8 -27 27 0 36 -20 36 -46 2 -13
-17 -28 -31 -35 -31 -25 0 -66 -44 -59 -63 4 -9 11 -17 16 -17 5 0 9 -6 9 -13
0 -8 12 -19 26 -25 21 -10 25 -18 22 -45 -3 -28 -7 -32 -36 -35 -29 -3 -32 -5
-20 -20 11 -13 11 -15 -5 -9 -9 3 -17 2 -17 -3 0 -6 5 -10 10 -10 6 0 10 -7
10 -15 0 -8 -4 -15 -9 -15 -5 0 -16 -13 -24 -29 -12 -24 -12 -33 1 -66 14 -35
14 -39 -1 -50 -10 -7 -17 -19 -17 -28 0 -25 -15 -28 -33 -6 -14 16 -20 17 -37
7 -16 -10 -19 -20 -14 -40 4 -21 2 -28 -10 -28 -18 0 -21 -17 -7 -39 17 -26
-32 -100 -67 -101 -8 0 -10 -8 -7 -23 3 -12 1 -44 -5 -71 -10 -46 -9 -50 25
-101 19 -29 35 -59 35 -65 0 -18 -24 -6 -30 16 -8 29 -52 84 -62 78 -16 -10 3
-68 33 -99 27 -29 40 -63 19 -50 -15 9 -12 -10 7 -44 26 -45 7 -50 -28 -8 -31
38 -67 51 -55 21 3 -9 1 -33 -5 -54 -10 -32 -9 -42 5 -61 20 -30 21 -58 0 -66
-13 -5 -15 -16 -10 -57 6 -46 5 -49 -8 -32 -10 12 -21 16 -33 12 -17 -7 -16
-9 5 -26 12 -10 22 -27 22 -39 0 -11 4 -22 10 -26 5 -3 7 -33 3 -70 -4 -45 -2
-69 7 -80 17 -21 5 -49 -20 -42 -15 4 -20 0 -20 -14 0 -10 4 -19 8 -19 5 0 9
-14 9 -31 0 -18 6 -37 14 -43 8 -6 22 -23 32 -38 10 -16 24 -28 31 -28 18 0
26 -22 26 -73 0 -23 5 -49 10 -57 8 -11 9 -8 6 13 -6 34 8 27 29 -15 11 -23
12 -34 4 -39 -8 -4 -9 -20 -5 -43 5 -26 3 -36 -6 -36 -7 0 -1 -10 15 -21 15
-11 27 -29 27 -39 0 -10 5 -22 10 -25 6 -3 10 -19 10 -34 0 -16 7 -34 14 -41
20 -16 56 -91 56 -116 0 -11 5 -25 12 -32 12 -12 10 -13 -14 -16 -24 -2 -18
-25 12 -37 30 -13 90 -89 90 -114 0 -6 -5 -16 -11 -22 -13 -13 -3 -36 12 -28
5 4 14 3 20 -1 8 -5 7 -9 -1 -14 -10 -6 -7 -14 11 -32 26 -26 50 -70 56 -103
2 -10 10 -30 19 -42 8 -13 13 -27 10 -31 -8 -13 18 -38 69 -64 59 -31 106 -51
120 -52 5 -1 15 -12 22 -26 7 -14 17 -24 22 -23 5 1 8 -11 7 -26 -2 -26 0 -28
21 -20 20 7 23 5 25 -19 0 -15 1 -33 1 -39 -1 -7 8 -13 18 -13 11 0 19 4 19
10 0 5 7 7 16 3 11 -4 13 -13 9 -34 -6 -25 -3 -29 14 -29 12 0 30 -9 40 -19
26 -26 61 -37 61 -18 0 8 -6 20 -14 26 -18 15 -9 48 15 54 10 3 19 12 19 21 0
20 -9 20 -32 -1 -19 -17 -26 -5 -7 14 13 13 4 33 -15 33 -12 0 -29 59 -20 69
1 1 18 -14 36 -35 18 -20 44 -47 57 -58 13 -12 46 -41 74 -66 29 -26 48 -37
44 -27 -4 10 -7 23 -7 28 0 5 -7 9 -15 9 -9 0 -20 10 -26 23 -5 12 -35 40 -65
62 -30 21 -65 56 -76 77 -13 22 -29 38 -40 38 -10 0 -20 10 -23 23 -4 13 -19
31 -35 40 -32 20 -40 21 -40 7 0 -5 6 -10 14 -10 22 0 30 -19 12 -26 -22 -8
-58 36 -44 53 6 7 14 10 19 7 5 -3 9 0 9 5 0 13 -10 14 -30 1 -18 -11 -60 24
-60 52 0 10 -4 18 -10 18 -5 0 -10 -7 -10 -16 0 -25 -31 -12 -51 21 -58 95
-57 97 7 48 48 -36 46 -28 -7 29 -27 29 -49 57 -49 63 1 5 11 -2 23 -17 27
-33 37 -35 37 -8 0 30 23 24 42 -10 18 -32 44 -48 56 -35 4 4 -11 22 -33 41
-27 22 -39 40 -37 54 2 13 -4 23 -17 28 -11 4 -20 10 -21 14 0 4 -2 13 -4 20
-3 7 -7 30 -10 50 -4 31 -2 38 12 39 11 0 12 3 5 6 -15 6 -17 39 -3 48 6 3 13
-1 16 -9 3 -9 10 -16 15 -16 6 0 6 7 0 18 -5 10 -6 24 -1 32 5 7 3 21 -3 31
-15 24 1 39 17 16 15 -20 26 -22 26 -5 0 7 -12 22 -28 34 -31 25 -25 42 8 24
19 -10 21 -9 18 6 -2 13 -13 19 -36 20 -27 1 -32 -2 -32 -22 0 -12 4 -25 9
-28 5 -4 2 -20 -7 -39 -17 -32 -17 -32 -20 -7 -5 33 -22 51 -22 22 0 -28 -15
-28 -34 -1 -13 20 -14 18 -9 -20 7 -51 -13 -56 -39 -11 -19 33 -15 62 8 53 21
-8 17 6 -8 27 -19 15 -21 22 -12 37 8 13 8 23 -1 38 -49 77 -15 86 55 14 41
-42 50 -47 50 -30 0 27 20 27 27 1 3 -11 9 -20 14 -20 5 0 3 13 -5 29 -14 26
-37 44 -61 46 -22 2 -35 18 -35 45 0 15 -3 30 -7 32 -20 8 -76 92 -65 96 7 2
12 8 12 14 0 7 -5 6 -14 -1 -11 -9 -20 -3 -46 29 -20 25 -27 40 -18 40 8 0 20
-6 27 -12 7 -7 2 6 -10 29 -25 48 -20 66 11 38 11 -10 20 -13 20 -7 0 6 7 9
15 6 10 -4 13 -13 9 -26 -4 -15 -2 -19 13 -16 14 2 18 -3 18 -24 0 -14 3 -30
8 -34 4 -4 7 0 7 9 0 9 5 17 11 17 13 0 49 38 49 52 0 4 -9 3 -19 -4 -22 -14
-51 3 -51 30 0 13 3 13 19 -2 17 -16 19 -16 24 4 3 13 0 20 -9 20 -8 0 -17 8
-20 18 -4 9 -12 31 -20 49 -8 17 -11 39 -7 50 6 16 5 16 -10 4 -15 -12 -20
-10 -42 13 -30 33 -32 52 -5 59 15 4 20 0 20 -13 0 -23 18 -36 32 -22 6 6 6
23 -1 48 -6 23 -7 42 -2 47 6 6 5 19 -2 33 -8 18 -7 28 1 36 7 7 12 20 12 30
0 23 36 24 49 1 5 -10 13 -14 18 -9 4 5 2 11 -4 13 -18 6 -17 63 1 63 17 0 29
-27 19 -43 -3 -7 3 -4 14 5 11 10 29 18 41 18 16 0 24 9 32 41 7 23 16 39 23
36 12 -4 14 -26 19 -232 3 -101 5 -112 28 -138 14 -16 25 -34 25 -40 0 -7 7
-27 14 -45 17 -40 6 -55 -19 -25 -21 26 -30 20 -30 -19 0 -25 2 -27 19 -18 26
13 31 13 25 -4 -3 -7 4 -31 15 -52 12 -21 21 -51 21 -66 0 -18 5 -28 15 -28 9
0 15 -9 15 -25 0 -15 13 -36 35 -56 25 -23 35 -41 35 -62 0 -25 2 -28 15 -17
9 7 17 11 18 9 18 -23 47 -68 47 -73 0 -10 -55 15 -69 32 -13 16 -13 16 -7 -1
3 -10 6 -25 6 -33 0 -8 6 -14 13 -14 18 0 56 -41 60 -65 2 -11 20 -37 40 -58
20 -21 37 -43 37 -49 0 -5 23 -30 50 -55 48 -43 66 -86 39 -95 -7 -2 -5 -9 5
-17 14 -11 16 -11 16 3 0 9 3 16 8 16 13 0 32 -39 26 -55 -6 -14 -8 -14 -19 1
-15 21 -26 7 -27 -35 -1 -30 -15 -32 -45 -8 -9 6 -13 6 -13 -1 0 -5 11 -17 25
-26 26 -17 26 -40 1 -30 -9 4 -16 -6 -20 -30 -4 -20 -11 -36 -15 -36 -11 0
-19 80 -9 86 5 3 6 10 2 15 -3 5 -1 15 4 22 12 15 -3 38 -35 55 -15 8 -24 9
-28 2 -4 -6 -15 -8 -26 -5 -13 4 -19 2 -19 -8 0 -19 42 -30 52 -14 5 9 12 7
25 -7 17 -18 17 -19 0 -13 -15 6 -16 4 -6 -14 6 -12 8 -31 5 -44 -3 -13 -2
-35 4 -49 7 -19 5 -29 -7 -41 -13 -13 -13 -20 -4 -38 7 -12 13 -55 15 -95 2
-40 8 -78 15 -85 8 -8 11 -8 11 1 0 22 20 12 26 -13 3 -14 10 -25 15 -25 11 0
11 2 -2 56 -8 33 -8 48 0 58 9 10 7 17 -5 27 -15 12 -16 11 -10 -9 9 -27 -5
-29 -29 -2 -11 13 -15 25 -10 37 5 10 7 26 6 36 -1 10 4 17 13 17 9 0 16 -6
16 -12 0 -7 18 -23 40 -36 33 -18 40 -20 40 -7 0 8 -7 15 -15 15 -29 0 -55 37
-49 69 4 16 1 31 -5 35 -6 4 -9 12 -6 17 10 15 65 -33 65 -57 0 -17 4 -21 20
-17 24 6 26 30 3 55 -15 17 -15 18 1 18 12 0 15 6 10 24 -3 13 -1 27 5 30 6 4
11 16 11 27 0 24 14 24 40 2 24 -21 26 -43 3 -43 -14 0 -14 -2 2 -20 18 -20
18 -20 32 0 9 13 11 25 5 36 -11 19 -4 64 11 64 11 0 137 -126 200 -199 20
-24 40 -42 43 -39 3 3 -11 23 -30 44 -34 38 -40 70 -7 40 10 -9 21 -16 25 -16
3 0 29 -16 57 -35 28 -19 55 -32 61 -29 13 8 -8 31 -37 38 -32 8 -32 22 0 30
27 7 65 -8 65 -24 0 -6 8 -10 18 -10 9 -1 32 -14 51 -30 40 -34 55 -31 22 4
-33 35 -10 40 35 8 52 -37 74 -45 74 -27 0 20 7 19 37 -5 14 -11 35 -20 47
-20 12 0 29 -9 39 -20 20 -24 34 -26 39 -4 3 14 7 13 31 -6 20 -16 26 -28 22
-44 -5 -20 -5 -20 6 2 10 17 9 26 -3 40 -8 9 -18 25 -21 34 -8 22 15 24 33 3
7 -8 26 -15 42 -15 26 0 30 3 26 23 -4 23 -4 23 70 15 76 -8 102 -19 102 -44
0 -8 9 -14 20 -14 13 0 18 5 14 15 -4 8 -11 15 -17 15 -8 0 -8 3 0 11 8 8 17
8 31 0 29 -15 42 -14 36 4 -8 21 20 19 54 -3 l27 -17 -20 27 c-11 15 -28 29
-37 31 -22 6 -24 37 -3 37 9 0 18 -7 21 -15 3 -8 16 -17 27 -21 12 -4 33 -15
46 -25 31 -25 49 -24 26 1 -24 26 -14 49 19 43 21 -4 26 -1 26 15 0 15 5 19
20 15 11 -3 20 0 20 6 0 7 9 9 24 5 16 -4 25 -1 29 10 4 9 14 16 22 16 9 0 13
-5 10 -10 -3 -6 5 -10 19 -10 20 0 24 -4 19 -17 -5 -14 -3 -16 7 -6 10 9 17 9
34 0 32 -18 36 -27 37 -92 1 -54 2 -58 12 -34 7 14 18 34 26 43 12 14 12 19
-1 34 -31 35 -30 67 3 108 17 21 35 42 40 45 6 3 11 20 11 37 1 27 3 29 19 19
15 -9 22 -6 41 17 13 15 47 52 75 82 48 49 55 53 73 42 11 -7 30 -35 42 -61
15 -32 27 -46 36 -42 7 3 16 5 18 5 3 0 2 5 -1 10 -4 6 -1 18 6 26 15 19 4 31
-15 15 -12 -10 -16 -6 -26 24 -6 19 -21 42 -33 50 -17 12 -20 19 -11 33 16 24
52 28 61 5 9 -23 28 -43 42 -43 6 0 11 -7 11 -15 0 -8 5 -15 11 -15 6 0 8 -9
4 -21 -6 -18 -4 -20 14 -14 15 5 21 2 21 -9 0 -20 16 -21 24 -1 3 8 1 15 -5
15 -7 0 -8 12 -4 31 5 20 3 29 -3 25 -15 -9 -23 37 -8 52 18 18 48 4 41 -19
-9 -27 6 -23 32 8 14 16 21 34 17 45 -3 10 2 28 10 39 11 16 12 27 5 41 -7 12
-6 25 3 40 7 13 11 29 10 36 -2 9 5 11 25 7 25 -6 26 -5 11 8 -10 8 -18 19
-18 26 0 6 -4 11 -10 11 -5 0 -10 7 -10 15 0 8 -9 20 -20 27 -32 20 -26 40 7
23 32 -17 38 -14 24 13 -16 31 -13 53 9 72 17 14 19 22 11 43 -7 18 -7 28 0
33 12 7 12 7 27 -21 l11 -20 0 20 c0 69 9 143 20 162 11 22 13 22 48 8 47 -20
47 -20 16 17 -58 66 -86 88 -100 76 -18 -15 -21 -10 -28 47 -3 28 -12 53 -20
58 -8 4 -15 17 -15 27 0 11 -5 20 -10 20 -33 0 -27 124 7 162 19 22 10 36 -12
18 -13 -10 -15 -9 -15 10 0 16 4 20 15 16 10 -4 20 6 30 30 13 32 13 38 0 57
-15 21 -15 21 -15 -10 0 -38 -13 -49 -39 -31 -19 13 -19 14 5 37 22 21 23 24
9 51 -8 16 -15 36 -15 45 0 18 -12 19 -28 3 -13 -13 -12 -15 -35 35 -21 47
-22 71 -2 87 9 7 17 11 18 9 2 -2 12 -17 22 -34 l19 -30 7 29 c5 18 4 35 -2
42 -8 10 -4 15 15 20 28 7 33 23 14 42 -10 10 -10 17 -1 32 10 14 10 20 0 23
-7 2 -9 8 -4 12 17 19 30 -26 32 -110 0 -33 4 -66 9 -73 13 -22 26 -13 26 21
1 39 23 72 44 64 18 -7 16 -91 -2 -109 -16 -16 -15 -38 2 -38 7 0 16 12 19 28
3 15 15 33 27 40 19 12 24 11 35 -5 11 -15 11 -19 -1 -26 -9 -5 -12 -16 -9
-27 3 -10 -1 -34 -9 -54 -13 -30 -13 -35 1 -40 26 -10 41 -6 67 18 30 27 33
48 11 70 -12 12 -13 20 -4 43 6 15 11 41 11 58 -1 31 34 79 49 69 5 -3 9 2 9
10 0 10 -9 16 -25 16 -20 0 -25 5 -25 25 0 18 7 28 25 35 17 7 25 17 25 34 0
16 7 25 21 29 22 6 22 14 4 75 -6 18 -4 22 15 22 17 0 20 4 15 20 -4 11 -2 20
4 20 6 0 11 -6 11 -14 0 -26 33 -27 72 -1 36 24 42 34 39 61 -1 6 10 21 24 34
14 13 25 30 25 37 0 8 7 16 15 19 8 4 15 15 15 26 0 11 8 22 20 25 11 3 20 9
20 14 0 5 5 9 11 9 6 0 8 -8 5 -18 -4 -11 4 -26 24 -42 32 -26 38 -48 18 -68
-9 -9 -9 -12 0 -12 7 0 12 4 12 10 0 10 43 8 73 -5 27 -11 20 -30 -16 -43 -23
-8 -33 -18 -33 -32 1 -10 -3 -18 -9 -17 -5 1 -9 10 -8 20 2 11 -4 17 -17 17
-11 0 -20 5 -20 11 0 5 -14 28 -32 50 -30 38 -33 39 -40 19 -6 -15 -13 -20
-27 -15 -15 5 -18 1 -13 -20 2 -14 -1 -32 -8 -40 -7 -9 -10 -19 -6 -23 9 -8
56 47 56 66 0 8 6 12 13 9 17 -6 10 -49 -10 -64 -23 -18 -10 -27 17 -13 20 10
26 8 49 -18 14 -16 27 -36 29 -43 9 -39 59 -48 68 -12 10 38 22 26 22 -21 0
-29 -5 -46 -14 -50 -21 -8 -17 -36 5 -36 11 0 23 4 26 10 10 17 25 11 25 -10
0 -11 -6 -20 -14 -20 -16 0 -28 -48 -13 -53 6 -2 3 -14 -7 -29 -11 -17 -13
-28 -7 -33 6 -3 11 -22 11 -41 0 -19 5 -34 10 -34 6 0 10 -9 10 -19 0 -11 5
-23 10 -26 6 -3 10 3 10 14 0 10 6 22 12 25 10 5 11 7 1 12 -19 8 -17 78 1 71
9 -4 16 1 19 11 2 9 4 0 4 -21 1 -44 10 -58 24 -37 8 13 11 13 23 -2 7 -10 19
-18 26 -18 9 0 11 -10 6 -32 -4 -21 -3 -28 3 -19 5 8 16 11 25 8 15 -6 15 -4
1 24 -9 16 -13 39 -10 49 5 15 2 20 -14 20 -11 0 -23 5 -27 11 -12 20 -8 130
5 139 10 6 10 11 0 28 -10 16 -10 23 0 36 7 8 10 19 7 25 -3 5 0 21 8 36 8 14
15 22 17 17 5 -12 69 -24 69 -13 0 5 -7 14 -15 21 -8 7 -15 24 -15 38 l0 26
20 -22 c11 -12 20 -28 20 -36 0 -8 5 -18 10 -21 6 -4 10 7 10 24 0 17 -4 31
-10 31 -5 0 -2 9 7 20 10 11 24 20 31 20 8 0 12 6 9 14 -3 8 1 20 9 26 8 7 14
19 14 26 0 8 6 14 14 14 16 0 28 51 15 65 -6 5 -9 3 -9 -6 0 -9 -11 -26 -25
-39 -14 -13 -25 -30 -25 -38 0 -20 -43 -58 -74 -66 -25 -6 -38 8 -15 16 8 3 8
10 -2 26 -11 18 -12 26 -1 43 10 16 11 24 1 35 -10 12 -6 24 20 61 22 31 27
44 16 39 -9 -3 -20 -6 -25 -6 -5 0 -10 -10 -12 -22 -2 -12 -9 -23 -16 -26 -7
-2 -13 2 -11 9 3 27 -1 39 -13 37 -20 -4 -21 38 -2 67 22 34 12 43 -14 11 -11
-15 -25 -26 -31 -26 -6 0 -11 -4 -11 -10 0 -5 -5 -10 -11 -10 -7 0 -8 7 -4 18
16 37 16 58 -2 77 -12 13 -19 39 -21 73 -3 52 4 62 26 40 9 -9 12 -7 12 10 0
29 24 28 38 -2 8 -18 8 -26 0 -28 -6 -2 -9 -10 -7 -17 3 -9 11 -5 23 14 18 27
17 27 -14 55 -19 17 -33 41 -37 64 -5 32 -3 36 16 36 24 0 27 12 6 30 -16 13
-35 6 -35 -15 0 -18 -39 -30 -53 -16 -8 8 -7 20 7 45 21 39 15 57 -15 49 -20
-6 -21 -3 -15 23 7 28 12 63 15 105 1 26 39 23 55 -4 9 -15 6 -22 -17 -41
l-28 -22 38 -39 c40 -42 76 -48 99 -17 12 17 34 9 34 -13 0 -22 34 -35 94 -35
44 0 56 -3 56 -15 0 -9 -11 -20 -25 -25 -14 -5 -25 -13 -25 -16 0 -4 23 -29
50 -54 43 -40 50 -52 45 -73 -5 -20 -2 -26 18 -31 15 -3 29 -17 35 -33 8 -21
11 28 11 178 1 205 1 207 -22 222 -13 8 -35 13 -49 10 -20 -4 -29 0 -37 16
-23 42 26 89 74 71 14 -5 28 -10 31 -10 2 0 4 22 4 49 0 44 -2 49 -26 55 -18
5 -32 2 -45 -10 -20 -18 -49 -13 -49 8 1 7 7 30 14 50 19 52 10 88 -21 88 -28
0 -63 -17 -78 -37 -6 -8 -27 -18 -45 -22 -25 -5 -34 -12 -32 -24 5 -30 -24
-29 -71 2 -49 34 -82 39 -106 17 -9 -8 -30 -17 -48 -21 -29 -6 -35 -3 -62 35
-23 32 -28 47 -21 60 7 13 6 20 -6 24 -12 5 -15 14 -10 40 6 30 3 36 -28 57
-19 13 -40 34 -46 47 -8 19 -16 23 -34 18 -15 -4 -28 0 -35 8 -9 11 -19 12
-40 5 -16 -6 -32 -9 -38 -7 -5 2 -24 -14 -42 -34 -36 -41 -52 -46 -71 -23 -10
12 -16 13 -28 3 -12 -11 -17 -9 -26 6 -6 11 -25 34 -42 50 -17 17 -34 39 -37
49 -5 12 -17 17 -46 17 -32 0 -39 -3 -35 -15 10 -26 -6 -16 -49 29 -34 36 -50
45 -82 48 -38 3 -40 5 -37 32 3 26 1 28 -24 22 -24 -6 -26 -5 -15 8 8 9 22 16
32 16 26 0 24 22 -5 49 l-24 22 -22 -36 c-29 -47 -54 -43 -58 7 -3 33 2 42 40
77 36 34 40 41 25 47 -9 3 -17 12 -17 20 0 11 -27 14 -143 14 -136 0 -145 -1
-164 -22 -11 -13 -24 -33 -27 -45 -4 -11 -22 -33 -41 -48 -38 -28 -72 -28
-144 2 -30 13 -33 17 -27 44 3 16 1 29 -4 29 -6 0 -10 9 -10 20 0 19 -7 20
-230 20 -213 0 -230 -1 -230 -17 1 -22 27 -58 42 -58 18 0 21 -24 4 -31 -19
-7 -21 -35 -5 -51 7 -7 8 -20 5 -30 -7 -16 -11 -14 -37 15 -16 17 -33 32 -38
32 -5 0 -11 10 -15 23 -9 33 -7 37 9 31 18 -7 19 0 5 27 -6 10 -20 19 -30 19
-11 0 -28 9 -37 20 -10 11 -23 20 -30 20 -21 0 -15 -25 13 -51 14 -13 32 -39
39 -56 8 -18 19 -33 24 -33 6 0 11 -11 11 -25 0 -37 -30 -32 -65 12 -36 45
-55 96 -47 125 4 18 2 20 -16 16 -12 -4 -24 -2 -27 3 -3 5 -37 8 -74 8 -63 -1
-68 -3 -64 -20 3 -11 0 -19 -7 -19 -6 0 -14 9 -17 20 -5 20 -33 29 -33 10 0
-5 -5 -10 -11 -10 -5 0 -7 5 -4 10 10 16 -12 12 -30 -6z m1355 -9 c0 -8 -6
-15 -14 -15 -20 0 -29 17 -14 23 22 9 28 7 28 -8z m-60 -27 c0 -3 2 -13 5 -20
9 -23 -62 -23 -74 0 -6 11 -8 21 -6 24 7 7 75 4 75 -4z m-1010 -173 c0 -7 9
-20 20 -30 28 -25 25 -37 -5 -23 -14 6 -25 16 -25 21 0 6 -6 18 -14 26 -7 9
-17 27 -21 41 l-7 25 26 -24 c14 -14 26 -30 26 -36z m140 5 c0 -5 -2 -10 -4
-10 -3 0 -8 5 -11 10 -3 6 -1 10 4 10 6 0 11 -4 11 -10z m-80 -90 c0 -5 -4
-10 -10 -10 -5 0 -10 5 -10 10 0 6 5 10 10 10 6 0 10 -4 10 -10z m-263 -32
c24 -23 34 -70 11 -50 -18 15 -51 72 -42 72 4 0 18 -10 31 -22z m1493 12 c0
-5 -4 -10 -10 -10 -5 0 -10 5 -10 10 0 6 5 10 10 10 6 0 10 -4 10 -10z m-1630
-36 c0 -8 -4 -12 -10 -9 -5 3 -10 10 -10 16 0 5 5 9 10 9 6 0 10 -7 10 -16z
m-143 -38 c17 -16 24 -30 19 -41 -8 -21 -21 -13 -40 27 -24 48 -19 51 21 14z
m-357 -16 c0 -5 -4 -10 -10 -10 -5 0 -10 5 -10 10 0 6 5 10 10 10 6 0 10 -4
10 -10z m1110 0 c0 -5 -4 -10 -10 -10 -5 0 -10 5 -10 10 0 6 5 10 10 10 6 0
10 -4 10 -10z m-815 -16 c14 -9 25 -24 25 -34 0 -15 -5 -17 -27 -11 -21 5 -29
15 -31 34 -4 31 0 33 33 11z m-655 -14 c0 -5 -2 -10 -4 -10 -3 0 -8 5 -11 10
-3 6 -1 10 4 10 6 0 11 -4 11 -10z m953 -49 c-5 -7 -53 41 -53 53 0 6 13 -3
28 -19 15 -17 27 -32 25 -34z m2115 47 c-5 -15 -48 -24 -48 -10 0 14 12 22 33
22 10 0 17 -5 15 -12z m-2190 -16 c49 -49 72 -107 31 -78 -32 22 -73 96 -54
96 3 0 13 -8 23 -18z m-766 -43 c-5 -11 -11 -20 -15 -20 -4 1 -11 1 -17 1 -17
0 -11 28 7 39 24 13 34 5 25 -20z m608 -9 c0 -5 -4 -10 -10 -10 -5 0 -10 5
-10 10 0 6 5 10 10 10 6 0 10 -4 10 -10z m100 -44 c0 -20 -1 -20 -20 4 -27 34
-27 59 0 35 11 -10 20 -28 20 -39z m698 6 c2 -7 -3 -12 -12 -12 -9 0 -16 7
-16 16 0 17 22 14 28 -4z m-241 -38 c-12 -13 -37 6 -37 28 l0 22 22 -21 c12
-13 19 -25 15 -29z m198 -14 c-3 -5 -10 -10 -16 -10 -5 0 -9 5 -9 10 0 6 7 10
16 10 8 0 12 -4 9 -10z m-639 -27 c7 -10 14 -21 14 -25 0 -15 -15 -7 -33 17
-21 29 -2 36 19 8z m604 -29 c0 -16 -16 -19 -25 -4 -8 13 4 32 16 25 5 -4 9
-13 9 -21z m-1232 -6 c-3 -7 -11 -13 -18 -13 -7 0 -15 6 -17 13 -3 7 4 12 17
12 13 0 20 -5 18 -12z m790 -21 c2 -10 -3 -17 -12 -17 -9 0 -16 2 -16 4 0 2
-3 12 -6 21 -5 13 -2 16 12 13 10 -2 20 -11 22 -21z m352 13 c0 -5 -4 -10 -10
-10 -5 0 -10 5 -10 10 0 6 5 10 10 10 6 0 10 -4 10 -10z m-310 -59 c7 -14 7
-22 0 -26 -13 -8 -40 13 -40 31 0 21 28 17 40 -5z m350 5 c0 -3 -4 -8 -10 -11
-5 -3 -10 -1 -10 4 0 6 5 11 10 11 6 0 10 -2 10 -4z m1692 -21 c3 -14 1 -25
-3 -25 -5 0 -9 4 -9 9 0 5 -3 16 -6 25 -3 9 -2 16 4 16 5 0 12 -11 14 -25z
m-2201 -33 c-5 -9 -12 -25 -15 -34 -8 -28 -36 -22 -36 7 0 18 5 25 20 25 11 0
19 3 19 8 -3 16 1 23 11 17 6 -4 6 -12 1 -23z m-591 8 c0 -5 -4 -10 -10 -10
-5 0 -10 5 -10 10 0 6 5 10 10 10 6 0 10 -4 10 -10z m3180 -31 c16 -29 4 -69
-20 -69 -20 0 -60 33 -60 49 0 44 60 59 80 20z m-3140 -9 c0 -5 -4 -10 -10
-10 -5 0 -10 5 -10 10 0 6 5 10 10 10 6 0 10 -4 10 -10z m570 -31 c0 -6 -4 -7
-10 -4 -5 3 -10 11 -10 16 0 6 5 7 10 4 6 -3 10 -11 10 -16z m-98 -21 c-8 -8
-8 -17 -1 -30 6 -10 7 -27 4 -37 -9 -30 -36 -34 -68 -11 -32 24 -47 21 -22 -4
9 -9 12 -16 6 -16 -6 0 -11 -9 -11 -20 0 -28 -13 -25 -39 11 -24 32 -22 59 3
59 8 0 18 9 21 20 3 11 15 20 25 20 10 0 20 6 23 14 7 17 47 26 62 14 5 -5 5
-12 -3 -20z m2786 4 c2 -14 -2 -22 -12 -22 -19 0 -29 17 -22 36 8 22 30 12 34
-14z m-363 -12 c3 -5 -1 -10 -9 -10 -9 0 -16 5 -16 10 0 6 4 10 9 10 6 0 13
-4 16 -10z m-2802 -49 c45 -58 47 -69 7 -39 -16 12 -30 29 -30 39 0 9 -7 19
-15 23 -8 3 -15 10 -15 16 0 21 17 9 53 -39z m227 29 c0 -5 -2 -10 -4 -10 -3
0 -8 5 -11 10 -3 6 -1 10 4 10 6 0 11 -4 11 -10z m2880 -45 c17 -9 30 -24 30
-34 0 -23 -25 -45 -44 -38 -13 5 -46 61 -46 79 0 13 28 10 60 -7z m-606 -10
c16 -12 17 -18 8 -27 -9 -9 -12 -9 -12 1 0 8 -8 20 -17 27 -10 7 -13 13 -8 13
6 0 19 -6 29 -14z m734 -2 c-2 -10 -13 -19 -26 -21 -17 -3 -22 2 -22 17 0 16
6 21 26 21 19 0 25 -5 22 -17z m-3308 -3 c0 -5 7 -10 15 -10 8 0 23 -8 33 -18
19 -19 18 -42 -1 -42 -7 0 -18 -9 -25 -20 -17 -27 -26 -25 -63 11 -20 20 -28
34 -22 40 6 6 14 4 23 -6 14 -17 40 -20 40 -5 0 6 -9 18 -19 27 -11 9 -18 20
-15 25 7 11 34 10 34 -2z m2426 -26 c-5 -13 -10 -14 -18 -6 -6 6 -8 18 -4 28
5 13 10 14 18 6 6 -6 8 -18 4 -28z m-2116 1 c7 -14 11 -27 8 -30 -11 -11 -58
19 -58 37 0 27 34 22 50 -7z m2434 -20 c27 -25 44 -49 41 -55 -5 -8 -15 -4
-30 10 -17 16 -33 21 -54 18 -29 -4 -30 -3 -26 31 2 20 4 37 4 39 3 10 25 -4
65 -43z m-194 9 c0 -8 -4 -12 -10 -9 -5 3 -10 10 -10 16 0 5 5 9 10 9 6 0 10
-7 10 -16z m-2075 -4 c3 -5 2 -10 -4 -10 -5 0 -13 5 -16 10 -3 6 -2 10 4 10 5
0 13 -4 16 -10z m415 -10 c0 -5 -2 -10 -4 -10 -3 0 -8 5 -11 10 -3 6 -1 10 4
10 6 0 11 -4 11 -10z m-642 -41 c15 -24 10 -34 -13 -26 -15 6 -22 47 -7 47 4
0 13 -9 20 -21z m222 -14 c0 -8 -7 -15 -15 -15 -8 0 -15 7 -15 15 0 8 7 15 15
15 8 0 15 -7 15 -15z m-665 -5 c3 -5 1 -10 -4 -10 -6 0 -11 5 -11 10 0 6 2 10
4 10 3 0 8 -4 11 -10z m2335 -16 c0 -8 -7 -14 -15 -14 -17 0 -18 2 -9 24 7 18
24 12 24 -10z m-2202 4 c16 -16 15 -28 -3 -28 -8 0 -15 2 -15 4 0 2 -3 11 -6
20 -7 19 7 21 24 4z m282 2 c0 -5 -4 -10 -10 -10 -5 0 -10 -7 -10 -15 0 -20
-19 -19 -27 1 -6 16 12 34 35 34 6 0 12 -4 12 -10z m2730 -12 c0 -11 -29 -37
-42 -38 -15 0 -8 33 9 46 19 13 33 10 33 -8z m-2663 -30 c-3 -8 -6 -5 -6 6 -1
11 2 17 5 13 3 -3 4 -12 1 -19z m243 -3 c0 -8 -4 -15 -10 -15 -5 0 -10 7 -10
15 0 8 5 15 10 15 6 0 10 -7 10 -15z m-733 -17 c23 -22 31 -48 14 -48 -5 0
-26 16 -47 35 -37 33 -38 35 -15 35 14 0 35 -10 48 -22z m1031 3 c3 -8 -1 -12
-9 -9 -7 2 -15 10 -17 17 -3 8 1 12 9 9 7 -2 15 -10 17 -17z m-1238 -12 c0
-25 -33 -22 -38 4 -2 12 3 17 17 17 15 0 21 -6 21 -21z m856 -3 c19 -19 18
-46 -1 -46 -16 0 -36 39 -28 53 6 10 13 9 29 -7z m1752 2 c-6 -18 -28 -21 -28
-4 0 9 7 16 16 16 9 0 14 -5 12 -12z m747 2 c3 -5 1 -10 -4 -10 -6 0 -11 5
-11 10 0 6 2 10 4 10 3 0 8 -4 11 -10z m-3145 -59 c55 -54 73 -81 52 -81 -5 0
-17 9 -27 20 -21 23 -35 26 -35 6 0 -7 9 -16 20 -19 24 -6 28 -47 5 -47 -8 0
-15 4 -15 9 0 4 -12 20 -26 34 -25 25 -25 26 -5 37 26 13 27 26 4 34 -11 4
-22 1 -29 -9 -10 -13 -13 -13 -23 -1 -8 10 -9 16 -1 21 5 3 10 17 10 31 0 13
2 24 5 24 3 0 32 -26 65 -59z m-135 -6 c31 -38 34 -46 20 -51 -11 -5 -25 3
-41 22 -22 26 -24 27 -19 7 4 -13 3 -23 -2 -23 -15 0 -68 48 -61 56 4 4 15 1
23 -6 11 -9 19 -10 26 -3 8 8 7 13 0 17 -15 10 -14 26 3 26 7 0 30 -20 51 -45z
m922 28 c3 -10 13 -26 21 -36 17 -20 8 -37 -10 -19 -7 7 -20 12 -30 12 -21 0
-33 22 -24 45 7 21 35 19 43 -2z m-680 -18 c3 -9 3 -19 -1 -22 -7 -7 -36 16
-36 28 0 15 30 10 37 -6z m-523 -21 c9 -3 16 -13 16 -21 0 -10 -6 -13 -16 -9
-9 3 -18 6 -20 6 -2 0 -4 7 -4 15 0 17 2 18 24 9z m161 -17 c5 -7 18 -16 28
-20 11 -4 18 -16 17 -29 -1 -13 -2 -26 -1 -30 1 -11 41 30 41 42 0 6 5 10 11
10 7 0 9 -9 5 -24 -4 -18 4 -39 33 -83 40 -59 61 -113 44 -113 -5 0 -14 5 -20
11 -9 9 -16 7 -29 -6 -14 -14 -15 -21 -5 -36 10 -16 8 -25 -7 -47 -10 -15 -22
-35 -25 -44 -4 -10 -11 -18 -17 -18 -5 0 -10 -8 -10 -17 0 -10 -5 -25 -10 -33
-9 -13 -11 -13 -20 0 -9 13 -12 12 -25 -5 -21 -27 -9 -85 24 -112 14 -11 22
-25 18 -30 -5 -4 -15 1 -23 11 -7 11 -17 16 -21 13 -4 -4 -1 -13 5 -19 32 -32
-4 -52 -42 -23 -28 21 -56 19 -56 -4 0 -11 -10 -27 -21 -35 -17 -11 -20 -21
-15 -41 l7 -27 -27 21 c-15 12 -32 21 -39 21 -19 0 -38 46 -31 75 7 26 8 26
25 11 18 -16 19 -15 23 12 6 39 0 52 -23 52 -13 0 -19 7 -19 24 0 35 17 41 40
14 11 -13 19 -19 20 -15 0 4 -11 20 -25 35 -31 33 -41 67 -26 86 15 18 0 82
-18 78 -8 -2 -10 4 -7 16 4 11 0 24 -9 32 -8 7 -15 21 -15 32 0 11 -5 16 -10
13 -15 -9 -40 14 -40 36 0 28 13 23 46 -16 22 -27 36 -35 61 -35 18 0 33 -5
33 -11 0 -6 -6 -9 -14 -6 -10 4 -8 -5 6 -34 10 -21 22 -39 27 -39 13 0 31 -50
26 -73 -3 -12 -1 -28 4 -36 8 -12 12 -12 26 3 12 12 14 20 7 29 -12 14 -12
127 0 127 4 0 12 -9 18 -20 17 -31 30 -24 17 9 -6 17 -14 28 -17 26 -4 -3 -13
8 -21 22 -8 15 -26 39 -41 54 -30 28 -36 49 -15 49 8 0 7 4 -3 10 -8 5 -23 7
-32 4 -11 -3 -21 3 -29 17 -9 18 -9 21 3 16 11 -4 14 1 11 21 -4 24 2 20 52
-33 31 -33 63 -72 70 -86 21 -40 75 -94 75 -75 0 9 -4 16 -9 16 -16 0 -20 28
-6 46 13 18 14 18 34 0 12 -11 21 -25 21 -33 0 -7 7 -13 15 -13 14 0 14 3 0
24 -11 17 -13 26 -5 31 8 5 8 11 -1 21 -9 11 -9 18 -1 26 17 17 15 28 -6 28
-10 0 -26 15 -36 35 -23 41 -27 39 -30 -12 -6 -84 -4 -79 -23 -60 -11 11 -14
20 -8 25 18 13 10 70 -13 95 -12 13 -22 26 -22 30 0 11 64 -2 75 -16z m-445
-11 c19 -50 17 -61 -12 -61 -22 -1 -27 4 -32 34 -3 22 -1 38 7 43 20 13 27 9
37 -16z m1810 -2 c0 -8 -9 -14 -20 -14 -22 0 -26 10 -8 28 13 13 28 7 28 -14z
m-335 -26 c-6 -16 -4 -20 8 -15 22 8 46 -21 26 -34 -21 -13 -29 -11 -36 9 -4
9 -11 20 -16 23 -12 9 -2 39 13 39 7 0 9 -8 5 -22z m-1130 -9 c0 -8 8 -14 17
-14 23 0 32 -11 24 -32 -6 -15 -11 -13 -36 14 -31 33 -39 58 -17 51 6 -3 12
-11 12 -19z m783 -8 c3 -8 -1 -12 -9 -9 -7 2 -15 10 -17 17 -3 8 1 12 9 9 7
-2 15 -10 17 -17z m132 -1 c0 -5 -5 -10 -11 -10 -5 0 -7 5 -4 10 3 6 8 10 11
10 2 0 4 -4 4 -10z m2320 -21 c0 -6 -4 -7 -10 -4 -5 3 -10 11 -10 16 0 6 5 7
10 4 6 -3 10 -11 10 -16z m-3360 -5 c0 -8 -4 -12 -10 -9 -5 3 -10 10 -10 16 0
5 5 9 10 9 6 0 10 -7 10 -16z m1011 -21 c16 -16 29 -32 29 -36 0 -4 9 -17 20
-29 11 -12 18 -23 16 -26 -9 -8 -45 19 -51 38 -3 11 -11 20 -16 20 -5 0 -9 7
-9 15 0 8 -6 15 -14 15 -8 0 -16 7 -20 15 -9 24 13 18 45 -12z m359 17 c0 -5
-4 -10 -10 -10 -5 0 -10 5 -10 10 0 6 5 10 10 10 6 0 10 -4 10 -10z m440 -5
c9 -11 10 -22 3 -37 l-10 -22 -17 26 c-25 39 -4 67 24 33z m458 -4 c3 -9 -2
-11 -17 -6 -15 5 -21 2 -21 -9 0 -9 -7 -16 -15 -16 -8 0 -15 7 -15 15 0 8 7
15 15 15 8 0 15 5 15 11 0 15 32 7 38 -10z m1362 -1 c7 -13 7 -20 1 -20 -6 0
-15 9 -21 20 -7 13 -7 20 -1 20 6 0 15 -9 21 -20z m-2650 -31 c53 -65 84 -89
109 -82 24 6 29 -15 6 -23 -12 -5 -13 -9 -4 -21 9 -11 9 -17 0 -26 -9 -9 -25
2 -71 53 -33 35 -60 70 -60 77 0 7 -4 13 -10 13 -5 0 -10 9 -10 20 0 28 11 25
40 -11z m-979 8 c-1 -12 -15 -9 -19 4 -3 6 1 10 8 8 6 -3 11 -8 11 -12z m259
-7 c0 -11 -4 -20 -10 -20 -5 0 -10 9 -10 20 0 11 5 20 10 20 6 0 10 -9 10 -20z
m2260 -10 c0 -12 -28 -25 -36 -17 -9 9 6 27 22 27 8 0 14 -5 14 -10z m338 -13
c2 -10 -3 -17 -11 -17 -16 0 -30 24 -19 34 10 10 27 1 30 -17z m-2434 -13 c11
-28 7 -35 -14 -24 -23 12 -27 40 -6 40 8 0 17 -7 20 -16z m2544 -3 c3 -8 -1
-12 -9 -9 -7 2 -15 10 -17 17 -3 8 1 12 9 9 7 -2 15 -10 17 -17z m-2758 -7 c0
-8 -4 -12 -10 -9 -5 3 -10 10 -10 16 0 5 5 9 10 9 6 0 10 -7 10 -16z m3084 0
c11 -28 6 -39 -9 -20 -8 11 -15 23 -15 28 0 14 18 9 24 -8z m-364 -1 c0 -13
-47 -53 -54 -46 -12 12 -6 33 9 33 8 0 15 5 15 10 0 6 7 10 15 10 8 0 15 -3
15 -7z m-421 -12 c21 -13 6 -41 -18 -34 -24 6 -23 5 -15 27 7 18 13 19 33 7z
m-1556 -43 c40 -35 46 -48 22 -48 -8 0 -15 7 -15 15 0 8 -6 15 -14 15 -7 0
-21 11 -30 25 -23 34 -8 31 37 -7z m2585 9 c5 -24 -15 -21 -28 4 -10 18 -9 20
7 17 10 -2 19 -11 21 -21z m82 9 c0 -2 -7 -6 -15 -10 -8 -3 -15 -1 -15 4 0 6
7 10 15 10 8 0 15 -2 15 -4z m-3651 -37 c-11 -6 -11 -11 -1 -21 6 -6 12 -27
12 -46 0 -43 -26 -41 -53 6 -19 33 -19 33 3 52 12 10 19 24 15 30 -5 9 -1 9
15 0 18 -10 20 -14 9 -21z m1925 0 c-8 -13 -24 -1 -24 18 0 13 3 13 15 3 8 -7
12 -16 9 -21z m979 10 c4 -15 1 -19 -11 -17 -21 4 -29 38 -9 38 8 0 17 -9 20
-21z m272 -18 c-12 -40 -25 -10 -16 39 1 2 6 -1 12 -7 6 -6 8 -21 4 -32z
m-2330 19 c3 -5 -1 -10 -9 -10 -9 0 -16 5 -16 10 0 6 4 10 9 10 6 0 13 -4 16
-10z m91 -17 c-7 -7 -26 7 -26 19 0 6 6 6 15 -2 9 -7 13 -15 11 -17z m1624 17
c0 -5 -5 -10 -11 -10 -5 0 -7 5 -4 10 3 6 8 10 11 10 2 0 4 -4 4 -10z m186
-22 c14 -15 16 -23 7 -36 -15 -25 -37 -21 -41 8 -2 14 -10 29 -18 33 -8 5 -12
12 -9 17 8 12 41 1 61 -22z m-2869 -14 c-9 -10 -38 16 -31 28 4 6 13 4 22 -6
9 -8 13 -19 9 -22z m653 -4 c0 -5 -2 -10 -4 -10 -3 0 -8 5 -11 10 -3 6 -1 10
4 10 6 0 11 -4 11 -10z m552 -7 c22 -20 23 -33 3 -33 -8 0 -15 5 -15 10 0 6
-5 10 -11 10 -6 0 -9 -9 -6 -20 8 -29 -6 -32 -20 -4 -6 13 -7 24 -2 24 5 0 9
7 9 15 0 20 19 19 42 -2z m1518 -3 c0 -11 7 -20 16 -20 8 0 12 -4 9 -10 -9
-14 -45 11 -45 32 0 10 5 18 10 18 6 0 10 -9 10 -20z m-2781 -26 c3 -16 1 -17
-13 -5 -19 16 -21 34 -3 29 6 -3 14 -13 16 -24z m3041 16 c0 -5 -4 -10 -9 -10
-6 0 -13 5 -16 10 -3 6 1 10 9 10 9 0 16 -4 16 -10z m-166 -16 c4 -9 4 -19 1
-22 -6 -6 -35 18 -35 29 0 16 28 10 34 -7z m864 -30 l3 -29 -22 21 c-12 12
-18 27 -14 34 12 19 30 5 33 -26z m-1568 -5 c0 -5 -4 -9 -10 -9 -5 0 -10 7
-10 16 0 8 5 12 10 9 6 -3 10 -10 10 -16z m560 5 c0 -8 -4 -12 -10 -9 -5 3
-10 10 -10 16 0 5 5 9 10 9 6 0 10 -7 10 -16z m1219 -3 c6 -10 7 -21 4 -25 -9
-8 -33 14 -33 30 0 20 18 17 29 -5z m-3870 -68 c1 -27 -6 -28 -37 -5 -25 19
-21 58 4 48 8 -3 13 -2 13 2 -1 4 0 12 1 17 3 14 18 -35 19 -62z m146 58 c3
-5 1 -12 -5 -16 -5 -3 -10 1 -10 9 0 18 6 21 15 7z m1425 -6 c0 -8 -4 -15 -10
-15 -5 0 -10 7 -10 15 0 8 5 15 10 15 6 0 10 -7 10 -15z m1198 3 c18 -18 15
-28 -8 -28 -11 0 -20 2 -20 4 0 2 -3 11 -6 20 -7 19 16 22 34 4z m1082 -20 c0
-5 -9 -4 -20 2 -11 6 -18 15 -14 21 6 11 34 -7 34 -23z m-2773 0 c23 -22 31
-48 13 -48 -14 0 -60 52 -54 62 8 12 16 10 41 -14z m1619 -5 c21 -28 18 -63
-6 -63 -25 0 -34 21 -26 55 8 30 14 31 32 8z m-2588 -34 c1 -40 0 -41 -19 -23
-22 20 -24 30 -6 49 20 23 25 18 25 -26z m3022 16 c0 -8 -4 -15 -9 -15 -5 0
-14 7 -21 15 -10 13 -9 15 9 15 12 0 21 -6 21 -15z m260 5 c0 -5 -4 -10 -10
-10 -5 0 -10 5 -10 10 0 6 5 10 10 10 6 0 10 -4 10 -10z m-2555 -10 c3 -5 1
-10 -4 -10 -6 0 -11 5 -11 10 0 6 2 10 4 10 3 0 8 -4 11 -10z m185 2 c0 -5 11
-14 25 -20 14 -6 25 -16 25 -22 0 -17 -42 -11 -56 8 -16 20 -18 42 -4 42 6 0
10 -4 10 -8z m1775 -12 c0 -7 -6 -15 -12 -17 -8 -3 -13 4 -13 17 0 13 5 20 13
18 6 -3 12 -11 12 -18z m1105 12 c0 -13 -12 -22 -22 -16 -10 6 -1 24 13 24 5
0 9 -4 9 -8z m-480 -16 c0 -3 -4 -8 -10 -11 -5 -3 -10 -1 -10 4 0 6 5 11 10
11 6 0 10 -2 10 -4z m-2946 -22 c8 -22 5 -24 -22 -17 -12 3 -22 12 -22 19 0
20 37 17 44 -2z m404 -2 c2 -7 -3 -12 -12 -12 -9 0 -16 7 -16 16 0 17 22 14
28 -4z m-828 -1 c0 10 3 10 12 1 10 -10 10 -15 -1 -21 -8 -5 -9 -11 -3 -15 6
-3 12 0 15 6 8 22 34 -13 40 -53 6 -39 -5 -65 -22 -55 -6 4 -11 2 -11 -5 0 -8
-4 -8 -15 1 -9 7 -13 20 -10 28 3 8 -6 33 -20 54 -28 42 -28 81 0 58 12 -10
15 -10 15 1z m3860 -1 c0 -5 -9 -14 -20 -20 -15 -8 -21 -6 -29 8 -9 17 -6 19
19 20 17 0 30 -3 30 -8z m-1290 -15 c0 -8 -7 -15 -15 -15 -8 0 -15 7 -15 15 0
8 7 15 15 15 8 0 15 -7 15 -15z m235 -41 c20 -48 19 -51 -8 -23 -31 31 -41 59
-22 59 8 0 22 -16 30 -36z m536 17 c12 -11 18 -24 14 -30 -10 -16 -25 -13 -25
5 0 11 -6 15 -20 11 -19 -5 -28 12 -13 26 11 11 23 8 44 -12z m459 10 c0 -6
-4 -13 -10 -16 -5 -3 -10 1 -10 9 0 9 5 16 10 16 6 0 10 -4 10 -9z m-3440 -11
c0 -5 -4 -10 -10 -10 -5 0 -10 5 -10 10 0 6 5 10 10 10 6 0 10 -4 10 -10z
m810 -30 c0 -5 -4 -10 -10 -10 -5 0 -10 5 -10 10 0 6 5 10 10 10 6 0 10 -4 10
-10z m-1281 -26 c3 -16 1 -17 -13 -5 -19 16 -21 34 -3 29 6 -3 14 -13 16 -24z
m763 -6 c-9 -9 -12 -7 -12 12 0 19 3 21 12 12 9 -9 9 -15 0 -24z m3076 4 c2
-14 -2 -22 -12 -22 -19 0 -29 17 -22 36 8 22 30 12 34 -14z m-3828 -54 c0 -12
-10 -9 -26 6 -20 21 -17 28 6 14 11 -7 20 -16 20 -20z m109 -6 c9 -11 22 -21
30 -23 14 -5 22 -28 21 -59 -4 -85 5 -140 21 -140 6 0 7 9 4 21 -6 18 -4 20
15 14 19 -6 21 -4 16 13 -4 11 -2 23 4 27 13 8 13 -15 -1 -71 -12 -47 -18 -50
-77 -38 -23 5 -31 13 -35 34 -4 15 -12 34 -20 41 -17 17 -28 67 -16 75 5 3 9
14 9 25 0 11 7 19 17 19 15 0 15 1 0 18 -16 18 -24 62 -11 62 4 0 14 -8 23
-18z m381 -6 c0 -11 -19 -15 -25 -6 -3 5 1 10 9 10 9 0 16 -2 16 -4z m92 -11
c0 -5 -5 -11 -11 -13 -6 -2 -11 4 -11 13 0 9 5 15 11 13 6 -2 11 -8 11 -13z
m3285 -17 c-3 -8 -6 -5 -6 6 -1 11 2 17 5 13 3 -3 4 -12 1 -19z m-3466 -5 c13
-16 12 -17 -3 -4 -10 7 -18 15 -18 17 0 8 8 3 21 -13z m2731 0 c14 -16 13 -26
-11 -98 -14 -44 -30 -79 -36 -78 -16 4 -15 72 2 88 8 8 11 20 8 26 -9 13 3 79
14 79 4 0 15 -8 23 -17z m175 -15 c-3 -7 -5 -2 -5 12 0 14 2 19 5 13 2 -7 2
-19 0 -25z m-2196 9 c-1 -12 -15 -9 -19 4 -3 6 1 10 8 8 6 -3 11 -8 11 -12z
m149 -37 c0 -5 -2 -10 -4 -10 -3 0 -8 5 -11 10 -3 6 -1 10 4 10 6 0 11 -4 11
-10z m-1254 -30 c1 -25 -3 -30 -22 -30 -29 0 -33 34 -6 49 25 15 27 14 28 -19z
m3174 20 c0 -5 -5 -10 -11 -10 -5 0 -7 5 -4 10 3 6 8 10 11 10 2 0 4 -4 4 -10z
m66 -26 c9 -35 -7 -79 -29 -79 -9 0 -17 3 -17 8 0 4 0 27 0 52 0 38 3 45 20
45 13 0 22 -9 26 -26z m-196 -4 c0 -5 -2 -10 -4 -10 -3 0 -8 5 -11 10 -3 6 -1
10 4 10 6 0 11 -4 11 -10z m-2842 -11 c-2 -6 -8 -10 -13 -10 -5 0 -11 4 -13
10 -2 6 4 11 13 11 9 0 15 -5 13 -11z m220 -17 c2 -7 -3 -12 -12 -12 -9 0 -16
7 -16 16 0 17 22 14 28 -4z m-390 -4 c18 -18 15 -51 -4 -44 -9 3 -20 6 -25 6
-10 0 -12 33 -2 43 9 10 17 9 31 -5z m-31 -55 c29 -32 53 -66 53 -76 0 -10 4
-16 9 -13 4 3 15 -2 23 -12 12 -14 14 -40 9 -94 -2 -18 -20 -6 -24 15 -3 21
-4 20 -15 -7 -9 -20 -9 -32 -2 -41 6 -7 7 -16 3 -18 -5 -3 -24 10 -43 29 -18
19 -39 33 -45 30 -14 -5 -51 21 -42 30 4 4 13 2 21 -5 11 -9 15 -6 19 16 6 32
-16 63 -43 63 -11 0 -20 10 -22 25 -7 32 23 34 53 4 11 -11 23 -18 27 -15 3 4
-3 12 -13 20 -12 9 -16 21 -13 39 3 16 0 31 -8 38 -15 12 -19 29 -7 29 4 0 31
-26 60 -57z m353 27 c0 -5 -4 -10 -10 -10 -5 0 -10 5 -10 10 0 6 5 10 10 10 6
0 10 -4 10 -10z m2822 -42 c3 -26 38 -38 38 -14 0 9 5 16 11 16 6 0 9 -6 6
-14 -3 -7 -1 -18 5 -24 5 -5 7 -20 3 -32 -8 -26 -38 -23 -43 4 -4 19 -25 46
-36 46 -3 0 -6 -6 -6 -14 0 -8 -5 -18 -10 -21 -10 -6 -12 50 -3 68 9 16 32 6
35 -15z m-3084 -21 c4 -29 -12 -37 -22 -11 -10 26 -7 46 7 42 6 -3 13 -17 15
-31z m212 11 c-15 -17 -23 -19 -32 -10 -9 9 -6 14 13 21 37 15 41 13 19 -11z
m510 18 c0 -3 -4 -8 -10 -11 -5 -3 -10 -1 -10 4 0 6 5 11 10 11 6 0 10 -2 10
-4z m-950 -56 c0 -11 -4 -20 -10 -20 -5 0 -10 2 -10 4 0 2 -3 11 -6 20 -4 11
-1 16 10 16 9 0 16 -8 16 -20z m364 -30 c-2 -39 -8 -55 -26 -70 -23 -19 -40
-8 -19 13 13 13 14 27 2 27 -5 0 -14 -14 -20 -30 -10 -29 -36 -49 -48 -37 -10
11 19 67 34 67 8 0 17 8 20 19 3 12 11 17 23 14 12 -3 19 3 24 21 10 39 12 32
10 -24z m-89 5 c0 -10 -6 -20 -12 -22 -8 -3 -13 5 -13 22 0 17 5 25 13 23 6
-3 12 -13 12 -23z m251 -2 c-10 -10 -19 5 -10 18 6 11 8 11 12 0 2 -7 1 -15
-2 -18z m784 -13 c0 -5 -5 -10 -11 -10 -5 0 -7 5 -4 10 3 6 8 10 11 10 2 0 4
-4 4 -10z m-1500 -20 c0 -5 -2 -10 -4 -10 -3 0 -8 5 -11 10 -3 6 -1 10 4 10 6
0 11 -4 11 -10z m204 -6 c9 -3 16 -10 16 -15 0 -14 -26 -10 -40 6 -13 16 -3
20 24 9z m1126 -8 c0 -8 -4 -18 -10 -21 -5 -3 -10 3 -10 14 0 12 5 21 10 21 6
0 10 -6 10 -14z m119 -103 c1 -14 -5 -23 -14 -23 -12 0 -15 12 -13 58 l1 57
13 -35 c7 -19 13 -45 13 -57z m-169 73 c0 -3 -4 -8 -10 -11 -5 -3 -10 -1 -10
4 0 6 5 11 10 11 6 0 10 -2 10 -4z m-570 -15 c0 -6 -4 -13 -10 -16 -5 -3 -10
1 -10 9 0 9 5 16 10 16 6 0 10 -4 10 -9z m975 -1 c-3 -5 -10 -10 -16 -10 -5 0
-9 5 -9 10 0 6 7 10 16 10 8 0 12 -4 9 -10z m-1740 -29 c3 -5 1 -12 -5 -16 -5
-3 -10 1 -10 9 0 18 6 21 15 7z m265 -11 c0 -5 -2 -10 -4 -10 -3 0 -8 5 -11
10 -3 6 -1 10 4 10 6 0 11 -4 11 -10z m-110 -35 c0 -8 -4 -15 -10 -15 -5 0
-10 7 -10 15 0 8 5 15 10 15 6 0 10 -7 10 -15z m238 -21 c-14 -14 -15 -14 -10
11 3 19 8 23 15 16 8 -8 7 -16 -5 -27z m912 -25 c0 -5 -7 -9 -15 -9 -15 0 -20
12 -9 23 8 8 24 -1 24 -14z m280 1 c0 -5 -4 -10 -10 -10 -5 0 -10 5 -10 10 0
6 5 10 10 10 6 0 10 -4 10 -10z m-1374 -38 c-6 -5 -36 23 -36 34 0 4 9 -1 20
-11 11 -10 18 -20 16 -23z m74 32 c0 -7 -27 -34 -34 -34 -12 0 -6 28 7 33 17
8 27 8 27 1z m80 -14 c0 -5 -2 -10 -4 -10 -3 0 -8 5 -11 10 -3 6 -1 10 4 10 6
0 11 -4 11 -10z m181 -69 c-18 -33 -31 -25 -31 19 l0 41 21 -20 c17 -16 19
-23 10 -40z m959 39 c0 -13 -5 -18 -15 -14 -8 4 -15 12 -15 20 0 8 7 14 15 14
8 0 15 -9 15 -20z m-1070 -20 c-18 -11 -24 -6 -16 16 5 14 9 15 19 5 9 -9 9
-14 -3 -21z m-203 -2 c-3 -8 -6 -5 -6 6 -1 11 2 17 5 13 3 -3 4 -12 1 -19z
m-33 -23 c3 -9 0 -15 -9 -15 -16 0 -27 14 -18 24 10 10 21 7 27 -9z m134 -7
c-6 -18 -28 -21 -28 -4 0 9 7 16 16 16 9 0 14 -5 12 -12z m18 -45 c-10 -10
-19 5 -10 18 6 11 8 11 12 0 2 -7 1 -15 -2 -18z m-21 -23 c-3 -5 -10 -10 -16
-10 -5 0 -9 5 -9 10 0 6 7 10 16 10 8 0 12 -4 9 -10z m45 -10 c0 -5 -4 -10
-10 -10 -5 0 -10 -7 -10 -16 0 -8 -4 -12 -10 -9 -6 4 -5 13 3 25 13 21 27 26
27 10z m-105 -31 c-5 -13 -2 -25 6 -30 7 -4 10 -11 7 -14 -4 -4 -16 2 -28 13
-19 18 -20 23 -9 36 20 22 31 19 24 -5z m61 -84 c-1 -16 -6 -20 -19 -17 -35 9
-33 42 2 39 12 -1 18 -8 17 -22z m-56 -39 c0 -18 -31 -29 -44 -16 -8 8 -7 13
3 19 7 5 10 14 6 21 -6 9 -3 9 14 1 11 -7 21 -18 21 -25z m3140 -51 c0 -8 -4
-15 -10 -15 -5 0 -10 7 -10 15 0 8 5 15 10 15 6 0 10 -7 10 -15z m-3312 -34
c3 -8 -1 -12 -9 -9 -7 2 -15 10 -17 17 -3 8 1 12 9 9 7 -2 15 -10 17 -17z
m160 -30 c32 -31 51 -71 33 -71 -6 0 -18 12 -28 28 -10 15 -23 33 -30 40 -12
12 -18 32 -9 32 1 0 17 -13 34 -29z m145 -53 c4 -12 4 -24 1 -27 -6 -7 -24 20
-24 37 0 21 17 13 23 -10z m2970 -63 c7 -16 -8 -29 -23 -20 -10 6 -2 35 10 35
4 0 10 -7 13 -15z m-3091 -62 c-8 -11 -16 -4 -18 17 -4 23 -3 24 8 5 6 -11 11
-21 10 -22z m453 27 c3 -5 1 -10 -4 -10 -6 0 -11 5 -11 10 0 6 2 10 4 10 3 0
8 -4 11 -10z m-595 -26 c0 -8 -4 -12 -10 -9 -5 3 -10 10 -10 16 0 5 5 9 10 9
6 0 10 -7 10 -16z m196 -49 c4 -14 5 -28 2 -30 -7 -8 -25 10 -32 33 -6 16 -3
22 8 22 9 0 18 -11 22 -25z m464 6 c0 -6 -4 -13 -10 -16 -5 -3 -10 1 -10 9 0
9 5 16 10 16 6 0 10 -4 10 -9z m-650 -31 c0 -5 -2 -10 -4 -10 -3 0 -8 5 -11
10 -3 6 -1 10 4 10 6 0 11 -4 11 -10z m3222 -26 c10 -21 9 -27 -3 -34 -13 -9
-25 10 -28 48 -2 22 19 13 31 -14z m-3207 -28 c-27 -19 -38 -10 -17 14 10 13
20 16 26 10 7 -7 3 -15 -9 -24z m205 24 c0 -5 -4 -10 -10 -10 -5 0 -10 5 -10
10 0 6 5 10 10 10 6 0 10 -4 10 -10z m-260 -21 c0 -5 -4 -9 -10 -9 -5 0 -10 7
-10 16 0 8 5 12 10 9 6 -3 10 -10 10 -16z m110 -44 c0 -8 -4 -15 -10 -15 -5 0
-10 7 -10 15 0 8 5 15 10 15 6 0 10 -7 10 -15z m-113 -27 c-3 -8 -6 -5 -6 6
-1 11 2 17 5 13 3 -3 4 -12 1 -19z m67 -4 c4 -9 4 -19 1 -22 -6 -6 -35 18 -35
29 0 16 28 10 34 -7z m-15 -40 c22 -28 28 -54 12 -54 -5 0 -11 7 -15 15 -3 8
-12 15 -21 15 -9 0 -15 9 -15 25 0 32 13 32 39 -1z m181 -5 c0 -5 -4 -9 -10
-9 -5 0 -10 7 -10 16 0 8 5 12 10 9 6 -3 10 -10 10 -16z m-40 -9 c0 -5 -4 -10
-10 -10 -5 0 -10 5 -10 10 0 6 5 10 10 10 6 0 10 -4 10 -10z m3068 -35 c13
-28 5 -65 -14 -65 -8 0 -14 -10 -14 -25 0 -14 -5 -25 -10 -25 -6 0 -10 6 -9
13 4 30 -2 58 -11 52 -14 -9 -12 10 4 50 17 39 36 39 54 0z m-3011 -31 c-10
-10 -48 27 -41 38 4 6 16 1 27 -11 12 -11 18 -24 14 -27z m-57 10 c0 -8 -4
-12 -10 -9 -5 3 -10 13 -10 21 0 8 5 12 10 9 6 -3 10 -13 10 -21z m732 -6 c-9
-9 -12 -7 -12 12 0 19 3 21 12 12 9 -9 9 -15 0 -24z m-666 -58 c0 -11 -1 -20
-2 -20 -1 0 -10 3 -18 6 -13 5 -14 9 -5 20 16 20 25 17 25 -6z m2914 -45 c0
-8 -5 -15 -11 -15 -5 0 -15 -14 -21 -30 -11 -34 -24 -35 -45 -3 -12 18 -11 24
12 52 22 25 30 29 46 21 10 -6 19 -17 19 -25z m-3006 -55 c-13 -13 -69 44 -59
60 5 8 17 3 38 -19 21 -21 28 -34 21 -41z m3093 46 c1 -1 0 -19 -4 -39 -6 -39
-13 -43 -44 -27 -15 8 -18 17 -13 38 10 40 14 43 37 36 12 -3 23 -7 24 -8z
m-2864 -35 c6 -24 0 -31 -19 -24 -18 7 -18 43 0 43 7 0 16 -9 19 -19z m-128
-11 c3 -5 1 -10 -4 -10 -6 0 -11 5 -11 10 0 6 2 10 4 10 3 0 8 -4 11 -10z
m138 -60 c-6 -22 -33 -28 -33 -7 0 17 10 27 26 27 7 0 10 -8 7 -20z m-13 -70
c0 -16 -4 -30 -10 -30 -5 0 -10 14 -10 30 0 17 5 30 10 30 6 0 10 -13 10 -30z
m693 0 c3 -13 0 -20 -9 -20 -8 0 -14 9 -14 20 0 11 4 20 9 20 5 0 11 -9 14
-20z m-3 -60 c0 -5 -2 -10 -4 -10 -3 0 -8 5 -11 10 -3 6 -1 10 4 10 6 0 11 -4
11 -10z m-816 -42 c14 -17 26 -36 26 -41 0 -4 4 -6 9 -3 5 3 14 -1 21 -9 16
-19 1 -19 -36 0 -26 13 -74 64 -74 80 0 16 31 1 54 -27z m86 -3 c7 -9 10 -18
7 -22 -8 -7 -37 15 -37 28 0 14 16 11 30 -6z m2385 -55 c3 -5 1 -10 -4 -10 -6
0 -11 5 -11 10 0 6 2 10 4 10 3 0 8 -4 11 -10z m-26 -34 c9 -10 9 -16 1 -21
-16 -10 -40 2 -40 20 0 19 24 20 39 1z m-2331 -19 c2 -10 -3 -17 -12 -17 -9 0
-16 2 -16 4 0 2 -3 12 -6 21 -5 13 -2 16 12 13 10 -2 20 -11 22 -21z m1083 10
c-1 -12 -15 -9 -19 4 -3 6 1 10 8 8 6 -3 11 -8 11 -12z m1205 -21 c16 -17 19
-36 4 -36 -5 0 -10 5 -10 10 0 6 -7 10 -15 10 -8 0 -15 7 -15 15 0 19 17 19
36 1z m-2276 -106 c0 -5 -4 -10 -10 -10 -5 0 -10 5 -10 10 0 6 5 10 10 10 6 0
10 -4 10 -10z m1855 0 c3 -5 1 -10 -4 -10 -6 0 -11 5 -11 10 0 6 2 10 4 10 3
0 8 -4 11 -10z m-1685 -40 c8 -5 12 -11 9 -14 -3 -3 -14 1 -25 9 -21 16 -8 20
16 5z m70 -75 c0 -8 -2 -15 -4 -15 -2 0 -6 7 -10 15 -3 8 -1 15 4 15 6 0 10
-7 10 -15z m5 -55 c21 -23 12 -39 -13 -24 -19 12 -29 44 -14 44 5 0 17 -9 27
-20z"/>
<path d="M1850 3900 c0 -5 5 -10 11 -10 5 0 7 5 4 10 -3 6 -8 10 -11 10 -2 0
-4 -4 -4 -10z"/>
<path d="M1020 3270 c0 -5 5 -10 11 -10 5 0 7 5 4 10 -3 6 -8 10 -11 10 -2 0
-4 -4 -4 -10z"/>
<path d="M805 3201 c-3 -5 -1 -12 5 -16 5 -3 10 1 10 9 0 18 -6 21 -15 7z"/>
<path d="M961 3201 c-8 -6 -9 -11 -3 -15 6 -3 14 -1 17 5 9 14 2 20 -14 10z"/>
<path d="M907 3156 c-6 -15 1 -26 15 -26 4 0 8 9 8 20 0 23 -15 27 -23 6z"/>
<path d="M816 2954 c-4 -9 -4 -19 -1 -22 2 -3 7 3 11 12 4 9 4 19 1 22 -2 3
-7 -3 -11 -12z"/>
<path d="M556 2681 c-4 -7 -5 -15 -2 -18 9 -9 19 4 14 18 -4 11 -6 11 -12 0z"/>
<path d="M630 2650 c13 -23 20 -26 20 -6 0 8 -7 16 -15 20 -13 4 -14 2 -5 -14z"/>
<path d="M1608 4783 c7 -3 16 -2 19 1 4 3 -2 6 -13 5 -11 0 -14 -3 -6 -6z"/>
<path d="M3620 4553 c0 -5 9 -21 19 -36 22 -35 40 -18 20 19 -11 22 -39 34
-39 17z"/>
<path d="M1105 4540 c-8 -13 13 -40 31 -40 15 0 17 10 8 34 -7 18 -30 21 -39
6z"/>
<path d="M973 4533 c-7 -2 -13 -16 -13 -29 0 -13 -4 -24 -9 -24 -4 0 -8 -18
-8 -40 0 -22 1 -40 3 -40 13 0 41 41 53 77 17 52 8 70 -26 56z"/>
<path d="M825 4460 c-3 -5 -1 -10 4 -10 6 0 11 5 11 10 0 6 -2 10 -4 10 -3 0
-8 -4 -11 -10z"/>
<path d="M4640 4330 c0 -36 9 -38 38 -7 29 31 28 37 -8 37 -27 0 -30 -3 -30
-30z"/>
<path d="M1410 4180 c0 -5 9 -10 20 -10 11 0 20 5 20 10 0 6 -9 10 -20 10 -11
0 -20 -4 -20 -10z"/>
<path d="M1660 4062 c0 -5 7 -15 15 -22 8 -7 15 -8 15 -2 0 5 -7 15 -15 22 -8
7 -15 8 -15 2z"/>
<path d="M484 3934 c3 -9 6 -18 6 -20 0 -2 8 -4 18 -3 10 0 12 3 5 6 -7 2 -13
11 -13 19 0 8 -5 14 -11 14 -6 0 -8 -7 -5 -16z"/>
<path d="M457 3875 c-17 -23 -16 -26 4 -65 22 -42 51 -51 57 -17 2 12 -3 17
-18 17 -31 0 -20 24 13 28 14 2 28 9 30 15 2 7 2 2 0 -10 -5 -30 23 -31 30 -1
8 27 -9 40 -44 32 -18 -3 -28 0 -32 10 -9 22 -19 19 -40 -9z"/>
<path d="M4560 3708 c0 -6 -7 -19 -16 -29 -15 -17 -14 -20 5 -48 15 -21 27
-28 41 -24 28 7 36 23 11 23 -26 0 -35 17 -33 57 2 18 0 33 -3 33 -3 0 -5 -5
-5 -12z"/>
<path d="M4612 3308 c-7 -7 -12 -21 -12 -33 0 -12 -5 -26 -12 -33 -9 -9 -8
-12 4 -12 9 0 19 -8 21 -17 4 -15 5 -15 6 2 0 11 12 32 26 47 27 29 34 48 10
28 -17 -14 -39 -4 -31 16 7 17 4 18 -12 2z"/>
<path d="M4741 3221 c-17 -21 -31 -43 -31 -48 0 -6 -9 -18 -20 -28 -25 -23
-25 -31 1 -38 17 -4 24 1 32 23 6 16 21 33 34 39 13 6 23 14 24 18 8 79 1 86
-40 34z"/>
<path d="M4110 3005 c-6 -15 -13 -31 -15 -36 -3 -4 4 -5 15 -2 16 4 20 0 20
-22 0 -19 -4 -26 -14 -22 -10 4 -18 -4 -25 -24 -9 -27 -36 -48 -47 -37 -2 3 5
16 16 31 32 41 24 41 -30 2 -34 -25 -50 -32 -50 -22 0 8 7 20 15 27 8 7 15 19
15 26 0 8 9 22 20 31 11 10 20 27 19 38 0 17 -2 17 -7 3 -4 -9 -28 -39 -54
-68 -47 -50 -60 -84 -36 -92 9 -3 9 -12 -1 -36 -7 -18 -18 -32 -23 -32 -5 0
-6 -5 -3 -10 4 -6 16 -3 32 10 36 28 53 26 53 -9 0 -17 5 -33 10 -36 16 -10
12 -20 -31 -69 -43 -49 -40 -55 18 -31 43 18 43 18 43 1 0 -17 47 -49 60 -41
6 3 10 13 10 21 0 9 7 14 17 12 12 -2 23 7 33 27 9 18 24 31 38 33 16 3 21 9
18 20 -3 9 -8 29 -12 45 -3 15 -10 27 -15 27 -5 0 -9 10 -9 23 0 13 -11 33
-25 45 -24 21 -35 62 -16 62 5 0 7 9 4 21 -5 17 -2 20 13 17 15 -3 18 -11 17
-35 -2 -18 2 -35 8 -39 7 -4 9 0 5 13 -5 17 -2 21 19 21 31 0 32 -14 3 -38
-20 -16 -21 -20 -8 -35 8 -10 15 -23 16 -29 0 -6 2 -20 3 -31 1 -23 51 -52 51
-30 0 7 6 16 13 18 8 4 9 8 1 14 -6 4 -19 22 -29 40 -14 24 -16 37 -9 54 11
23 6 42 -30 122 -19 42 -28 45 -56 17 -14 -14 -20 -16 -20 -6 0 7 -7 19 -15
26 -12 10 -16 8 -25 -15z m14 -141 c22 -8 20 -22 -6 -50 -24 -24 -48 -32 -48
-14 0 19 4 25 16 22 7 -1 9 7 6 23 -4 25 3 30 32 19z m-63 -74 c5 0 9 -7 9
-15 0 -15 -20 -22 -20 -7 0 4 -2 16 -4 27 -2 11 -1 14 1 8 3 -7 9 -13 14 -13z
m99 10 c0 -5 -4 -10 -10 -10 -5 0 -10 5 -10 10 0 6 5 10 10 10 6 0 10 -4 10
-10z m-68 -122 c-8 -8 -9 -4 -5 13 4 13 8 18 11 10 2 -7 -1 -18 -6 -23z"/>
<path d="M4602 2883 c2 -9 8 -18 15 -20 7 -3 9 3 6 16 -6 25 -26 28 -21 4z"/>
<path d="M4286 2855 c4 -8 10 -12 15 -9 14 8 10 24 -6 24 -9 0 -12 -6 -9 -15z"/>
<path d="M4515 2832 c4 -13 1 -29 -6 -38 -15 -18 -8 -27 15 -18 20 8 21 34 0
60 -15 18 -15 18 -9 -4z"/>
<path d="M4290 2811 c0 -13 28 -33 33 -23 3 4 -3 13 -14 20 -10 7 -19 8 -19 3z"/>
<path d="M4557 2744 c-8 -8 4 -44 15 -44 6 0 7 -11 4 -25 -8 -30 12 -65 36
-65 22 0 24 33 2 51 -10 8 -14 25 -12 47 2 29 -1 36 -18 38 -12 2 -24 1 -27
-2z"/>
<path d="M3880 2720 c0 -5 5 -10 10 -10 6 0 10 5 10 10 0 6 -4 10 -10 10 -5 0
-10 -4 -10 -10z"/>
<path d="M3940 2711 c0 -10 -23 -43 -51 -72 -29 -30 -46 -55 -39 -57 16 -6 90
68 90 89 0 10 5 21 10 24 6 3 10 13 10 21 0 8 -4 14 -10 14 -5 0 -10 -8 -10
-19z"/>
<path d="M4291 2694 c0 -11 3 -14 6 -6 3 7 2 16 -1 19 -3 4 -6 -2 -5 -13z"/>
<path d="M4451 2654 c0 -11 3 -14 6 -6 3 7 2 16 -1 19 -3 4 -6 -2 -5 -13z"/>
<path d="M3593 2623 c-15 -5 -18 -53 -3 -53 9 0 26 48 19 54 -2 2 -10 1 -16
-1z"/>
<path d="M3510 2610 c0 -5 5 -10 11 -10 5 0 7 5 4 10 -3 6 -8 10 -11 10 -2 0
-4 -4 -4 -10z"/>
<path d="M4400 2586 c0 -8 5 -18 10 -21 6 -3 10 3 10 14 0 12 -4 21 -10 21 -5
0 -10 -6 -10 -14z"/>
<path d="M4576 2591 c-3 -4 1 -34 9 -65 8 -31 15 -59 15 -62 0 -3 -13 4 -30
16 -32 23 -40 57 -15 66 8 4 15 11 15 16 0 6 -6 6 -14 -1 -8 -7 -23 -11 -33
-9 -15 2 -18 -4 -18 -32 0 -28 -4 -35 -20 -35 -13 0 -21 8 -23 22 -2 12 -10
27 -18 33 -12 10 -14 8 -14 -14 0 -14 -5 -26 -11 -26 -8 0 -8 -4 1 -14 6 -8
18 -12 26 -9 8 3 14 0 14 -7 0 -6 -4 -8 -10 -5 -5 3 -10 -1 -10 -9 0 -9 -7
-16 -15 -16 -8 0 -15 9 -15 19 0 23 -25 35 -38 18 -19 -25 -22 -48 -6 -54 8
-3 21 -21 29 -39 8 -19 19 -34 24 -34 6 0 11 -12 11 -26 0 -23 52 -84 72 -84
4 0 17 -20 28 -45 23 -50 23 -50 49 -33 15 9 16 15 7 40 -6 15 -14 28 -18 28
-5 0 -6 11 -2 25 3 14 2 31 -4 38 -5 6 -13 27 -17 46 -4 19 -15 43 -25 53 -15
16 -19 17 -29 4 -7 -8 -9 -26 -5 -43 l6 -28 -27 27 c-18 17 -26 32 -21 43 3 9
10 14 15 11 9 -6 21 14 27 42 3 17 34 52 45 52 14 0 42 -69 35 -86 -7 -19 41
-97 54 -89 4 3 15 -6 24 -20 20 -30 42 -35 26 -6 -5 11 -10 35 -10 53 0 18 -5
40 -10 48 -6 10 -8 2 -3 -25 l5 -40 -20 20 c-27 26 -41 95 -19 95 8 0 18 8 22
18 6 16 7 16 16 0 12 -22 29 -23 29 -2 0 8 5 12 10 9 6 -4 5 6 -2 22 -18 43
-23 45 -38 18 -7 -14 -19 -25 -27 -25 -16 0 -17 12 0 29 10 10 7 16 -11 29
-15 12 -21 24 -16 35 6 17 -10 24 -20 8z m-46 -271 c0 -5 -4 -10 -10 -10 -5 0
-10 5 -10 10 0 6 5 10 10 10 6 0 10 -4 10 -10z m20 -44 c0 -8 -4 -18 -10 -21
-5 -3 -10 3 -10 14 0 12 5 21 10 21 6 0 10 -6 10 -14z m0 -71 c0 -8 -2 -15 -4
-15 -2 0 -6 7 -10 15 -3 8 -1 15 4 15 6 0 10 -7 10 -15z m20 -35 c0 -5 -2 -10
-4 -10 -3 0 -8 5 -11 10 -3 6 -1 10 4 10 6 0 11 -4 11 -10z"/>
<path d="M3680 2569 c0 -5 5 -7 10 -4 6 3 10 8 10 11 0 2 -4 4 -10 4 -5 0 -10
-5 -10 -11z"/>
<path d="M4120 2545 c0 -10 29 -24 34 -17 3 6 -3 12 -14 15 -11 3 -20 4 -20 2z"/>
<path d="M4150 2500 c0 -5 5 -10 10 -10 6 0 10 5 10 10 0 6 -4 10 -10 10 -5 0
-10 -4 -10 -10z"/>
<path d="M3625 2480 c-3 -5 -1 -10 4 -10 6 0 11 5 11 10 0 6 -2 10 -4 10 -3 0
-8 -4 -11 -10z"/>
<path d="M3690 2459 c-7 -11 -10 -22 -8 -25 6 -6 48 26 48 37 0 17 -29 9 -40
-12z"/>
<path d="M4210 2340 c0 -5 5 -10 10 -10 6 0 10 5 10 10 0 6 -4 10 -10 10 -5 0
-10 -4 -10 -10z"/>
<path d="M610 2250 c0 -5 5 -10 10 -10 6 0 10 5 10 10 0 6 -4 10 -10 10 -5 0
-10 -4 -10 -10z"/>
<path d="M56 2202 c-3 -6 -1 -14 5 -17 15 -10 25 3 12 16 -7 7 -13 7 -17 1z"/>
<path d="M65 2140 c-3 -5 -2 -10 4 -10 5 0 13 5 16 10 3 6 2 10 -4 10 -5 0
-13 -4 -16 -10z"/>
<path d="M4580 2095 c0 -8 5 -15 10 -15 6 0 10 7 10 15 0 8 -4 15 -10 15 -5 0
-10 -7 -10 -15z"/>
<path d="M4520 2020 c0 -5 4 -10 9 -10 6 0 13 5 16 10 3 6 -1 10 -9 10 -9 0
-16 -4 -16 -10z"/>
<path d="M4536 1899 c-14 -17 -26 -36 -26 -42 0 -9 2 -9 8 -1 4 6 19 14 35 18
20 5 27 12 27 31 0 33 -13 31 -44 -6z"/>
<path d="M4335 1830 c3 -5 11 -10 16 -10 6 0 7 5 4 10 -3 6 -11 10 -16 10 -6
0 -7 -4 -4 -10z"/>
<path d="M4476 1814 c-18 -18 -20 -24 -6 -24 5 0 14 9 20 20 13 24 7 26 -14 4z"/>
<path d="M4430 1769 c0 -5 5 -7 10 -4 6 3 10 8 10 11 0 2 -4 4 -10 4 -5 0 -10
-5 -10 -11z"/>
<path d="M790 1680 c0 -5 10 -10 23 -10 18 0 19 2 7 10 -19 13 -30 13 -30 0z"/>
<path d="M4376 1674 c-5 -14 -4 -15 9 -4 17 14 19 20 6 20 -5 0 -12 -7 -15
-16z"/>
<path d="M4330 1639 c0 -9 7 -22 15 -29 19 -16 19 0 0 26 -12 16 -14 16 -15 3z"/>
<path d="M4439 1618 c-12 -23 -12 -23 10 -4 23 21 26 26 11 26 -5 0 -15 -10
-21 -22z"/>
<path d="M830 1584 c0 -9 9 -18 20 -21 11 -3 19 -10 18 -17 -1 -6 30 -44 70
-84 72 -73 94 -114 73 -135 -9 -9 -14 -8 -21 3 -5 8 -12 11 -16 7 -4 -4 5 -16
19 -28 27 -20 36 -49 17 -49 -5 0 -10 -4 -10 -10 0 -5 8 -6 17 -3 12 5 15 2
10 -10 -3 -9 -2 -19 2 -21 14 -9 21 6 11 24 -7 13 -5 20 7 24 14 6 14 8 -2 26
-20 22 -13 55 10 46 23 -9 18 19 -10 53 -19 22 -24 37 -20 58 l5 28 -11 -28
-11 -28 -39 43 c-21 24 -38 49 -39 56 0 6 -6 12 -13 12 -6 0 -25 16 -41 35
-32 38 -46 44 -46 19z"/>
<path d="M4391 1554 c0 -11 3 -14 6 -6 3 7 2 16 -1 19 -3 4 -6 -2 -5 -13z"/>
<path d="M630 1520 c0 -5 5 -10 10 -10 6 0 10 5 10 10 0 6 -4 10 -10 10 -5 0
-10 -4 -10 -10z"/>
<path d="M3631 1362 c-15 -27 -14 -32 4 -32 20 0 31 28 17 42 -7 7 -14 4 -21
-10z"/>
<path d="M790 1334 c0 -8 5 -12 10 -9 6 3 10 10 10 16 0 5 -4 9 -10 9 -5 0
-10 -7 -10 -16z"/>
<path d="M4130 1330 c0 -5 5 -10 10 -10 6 0 10 5 10 10 0 6 -4 10 -10 10 -5 0
-10 -4 -10 -10z"/>
<path d="M844 1317 c3 -10 6 -30 6 -44 0 -18 5 -24 18 -21 22 5 17 36 -10 63
-19 18 -20 18 -14 2z"/>
<path d="M915 1320 c3 -5 8 -10 11 -10 2 0 4 5 4 10 0 6 -5 10 -11 10 -5 0 -7
-4 -4 -10z"/>
<path d="M1080 1320 c0 -5 7 -10 15 -10 8 0 15 5 15 10 0 6 -7 10 -15 10 -8 0
-15 -4 -15 -10z"/>
<path d="M3595 1320 c-3 -5 -1 -10 4 -10 6 0 11 5 11 10 0 6 -2 10 -4 10 -3 0
-8 -4 -11 -10z"/>
<path d="M735 1290 c-9 -27 23 -74 40 -60 15 13 30 -3 20 -21 -6 -9 21 -38 36
-39 3 0 6 13 7 29 0 21 -10 39 -43 70 -24 22 -45 41 -48 41 -3 0 -8 -9 -12
-20z"/>
<path d="M3567 1303 c-4 -3 -7 -13 -7 -22 1 -13 3 -13 11 2 11 19 8 33 -4 20z"/>
<path d="M3670 1295 c0 -8 5 -15 10 -15 6 0 10 7 10 15 0 8 -4 15 -10 15 -5 0
-10 -7 -10 -15z"/>
<path d="M1078 1253 c7 -3 16 -2 19 1 4 3 -2 6 -13 5 -11 0 -14 -3 -6 -6z"/>
<path d="M915 1220 c3 -5 11 -10 16 -10 6 0 7 5 4 10 -3 6 -11 10 -16 10 -6 0
-7 -4 -4 -10z"/>
<path d="M1090 1201 c0 -6 5 -13 10 -16 6 -3 10 1 10 9 0 9 -4 16 -10 16 -5 0
-10 -4 -10 -9z"/>
<path d="M3278 1168 c-2 -11 -13 -27 -26 -36 -21 -14 -22 -13 -16 4 5 12 -6 6
-28 -16 -36 -36 -43 -57 -9 -26 11 10 24 15 29 12 9 -5 82 56 82 68 0 2 -6 6
-14 9 -10 4 -16 -2 -18 -15z"/>
<path d="M970 1170 c0 -5 5 -10 10 -10 6 0 10 5 10 10 0 6 -4 10 -10 10 -5 0
-10 -4 -10 -10z"/>
<path d="M3657 1140 c-3 -11 -1 -23 4 -26 5 -3 9 -1 9 5 0 5 3 16 6 25 3 9 2
16 -4 16 -5 0 -12 -9 -15 -20z"/>
<path d="M1220 1130 c0 -5 5 -10 10 -10 6 0 10 5 10 10 0 6 -4 10 -10 10 -5 0
-10 -4 -10 -10z"/>
<path d="M3322 1120 c-17 -28 -15 -32 8 -20 11 6 20 17 20 25 0 21 -13 19 -28
-5z"/>
<path d="M3396 1113 c-4 -12 -13 -23 -20 -23 -8 0 -17 -7 -20 -16 -9 -24 -7
-31 5 -12 5 10 28 21 49 24 47 8 57 38 16 46 -19 4 -26 0 -30 -19z"/>
<path d="M1101 1079 c-21 -19 -24 -20 -40 -5 -17 16 -18 15 -14 -9 3 -14 11
-25 19 -25 7 0 25 -17 39 -37 21 -32 25 -34 25 -15 0 12 5 22 10 22 14 0 12
33 -3 64 l-14 25 -22 -20z"/>
<path d="M840 1047 c0 -9 9 -21 20 -27 11 -6 20 -7 20 -2 0 5 -9 17 -20 27
-18 16 -20 16 -20 2z"/>
<path d="M823 989 c-12 -12 -7 -39 8 -39 5 0 9 7 9 15 0 8 5 15 11 15 5 0 7 5
4 10 -8 13 -18 13 -32 -1z"/>
<path d="M1045 981 c-9 -15 12 -49 33 -55 11 -4 25 -17 32 -31 14 -26 36 -39
45 -25 3 5 -13 23 -35 41 -22 18 -40 38 -40 44 0 19 -27 38 -35 26z"/>
<path d="M910 970 c0 -5 4 -10 10 -10 5 0 19 -18 30 -40 11 -22 25 -40 30 -40
5 0 16 -13 24 -28 8 -16 40 -49 70 -73 30 -24 56 -50 58 -58 2 -8 16 -15 31
-17 l28 -3 -27 32 c-14 18 -37 38 -50 45 -13 7 -27 27 -32 45 -5 17 -15 31
-22 29 -19 -4 -40 18 -40 44 0 17 -6 24 -18 24 -10 0 -31 14 -47 30 -29 31
-45 38 -45 20z"/>
<path d="M1000 946 c0 -9 5 -16 10 -16 6 0 10 4 10 9 0 6 -4 13 -10 16 -5 3
-10 -1 -10 -9z"/>
<path d="M2820 940 c0 -5 5 -10 10 -10 6 0 10 5 10 10 0 6 -4 10 -10 10 -5 0
-10 -4 -10 -10z"/>
<path d="M2932 927 c-9 -11 -10 -17 -2 -22 15 -9 23 -1 18 21 -3 15 -4 16 -16
1z"/>
<path d="M3537 903 c-14 -13 -7 -41 11 -46 15 -3 19 1 18 24 -1 27 -14 37 -29
22z"/>
<path d="M1481 892 c-1 -18 18 -52 29 -52 6 0 10 7 10 15 0 8 -6 15 -14 15 -8
0 -17 8 -19 18 -3 9 -5 11 -6 4z"/>
<path d="M1524 881 c21 -23 26 -26 26 -11 0 5 -10 15 -22 21 -23 12 -23 12 -4
-10z"/>
<path d="M3780 866 c0 -8 4 -17 9 -20 5 -4 7 3 4 14 -6 23 -13 26 -13 6z"/>
<path d="M1710 860 c0 -5 5 -10 11 -10 5 0 7 5 4 10 -3 6 -8 10 -11 10 -2 0
-4 -4 -4 -10z"/>
<path d="M2870 835 c-7 -9 -11 -18 -8 -20 3 -3 11 1 18 10 7 9 11 18 8 20 -3
3 -11 -1 -18 -10z"/>
<path d="M3080 819 c0 -11 5 -17 10 -14 6 3 10 13 10 21 0 8 -4 14 -10 14 -5
0 -10 -9 -10 -21z"/>
<path d="M1550 822 c0 -5 14 -21 30 -37 32 -30 40 -24 15 11 -8 12 -11 24 -8
28 3 3 -3 6 -15 6 -12 0 -22 -4 -22 -8z"/>
<path d="M1810 821 c0 -5 5 -13 10 -16 6 -3 10 -2 10 4 0 5 -4 13 -10 16 -5 3
-10 2 -10 -4z"/>
<path d="M3446 814 c-4 -10 -1 -14 6 -12 15 5 23 28 10 28 -5 0 -13 -7 -16
-16z"/>
<path d="M1485 768 c-9 -12 -20 -38 -22 -59 -4 -24 -12 -40 -22 -42 -11 -3 -9
-5 6 -6 16 -1 20 -6 16 -21 -6 -23 -14 -25 -31 -8 -9 9 -12 9 -12 -1 0 -11 -3
-11 -16 0 -9 7 -2 -9 15 -36 29 -46 30 -51 15 -62 -14 -10 -15 -15 -4 -28 11
-13 15 -13 31 6 11 12 25 19 34 15 12 -4 15 2 15 29 0 18 -4 37 -10 40 -5 3
-10 26 -10 51 0 38 3 44 20 44 18 0 19 3 10 20 -6 11 -8 20 -4 20 11 0 74 -64
74 -75 0 -19 67 -78 74 -66 10 15 -2 31 -21 31 -9 0 -13 6 -9 15 3 8 -6 26
-20 40 -14 14 -24 31 -22 37 5 14 -30 49 -64 65 -21 10 -28 8 -43 -9z"/>
<path d="M1778 784 c-14 -13 -9 -54 6 -54 8 0 18 5 21 10 3 6 2 10 -4 10 -5 0
-11 9 -13 21 -2 11 -6 17 -10 13z"/>
<path d="M2926 765 c-3 -8 -1 -15 4 -15 6 0 10 7 10 15 0 8 -2 15 -4 15 -2 0
-6 -7 -10 -15z"/>
<path d="M3702 771 c4 -13 18 -16 19 -4 0 4 -5 9 -11 12 -7 2 -11 -2 -8 -8z"/>
<path d="M1228 666 c-17 -12 -17 -14 2 -31 23 -21 39 -13 21 9 -7 8 -10 20 -6
26 8 13 4 12 -17 -4z"/>
<path d="M1767 652 c3 -12 2 -30 -2 -39 -5 -16 -10 -13 -35 17 -16 19 -32 32
-35 28 -8 -8 82 -101 107 -110 9 -4 18 -17 20 -29 2 -12 11 -23 21 -25 25 -3
21 30 -5 45 -13 7 -31 23 -41 37 -15 20 -16 28 -6 40 10 12 9 19 -9 36 l-21
21 6 -21z"/>
<path d="M1301 643 c20 -26 41 -47 64 -63 11 -8 2 6 -19 33 -21 26 -43 47 -48
47 -6 0 -4 -8 3 -17z"/>
<path d="M2461 633 c7 -10 15 -20 16 -22 2 -2 3 3 3 11 0 9 -7 19 -16 22 -15
6 -15 4 -3 -11z"/>
<path d="M910 590 c0 -5 5 -10 11 -10 5 0 7 5 4 10 -3 6 -8 10 -11 10 -2 0 -4
-4 -4 -10z"/>
<path d="M1233 553 c9 -9 19 -14 23 -11 10 10 -6 28 -24 28 -15 0 -15 -1 1
-17z"/>
<path d="M1680 566 c0 -10 63 -66 68 -61 3 3 -9 19 -27 35 -31 29 -41 35 -41
26z"/>
<path d="M1265 507 l-20 -20 28 7 c18 4 27 2 28 -6 1 -7 2 -19 3 -27 0 -8 16
-21 34 -28 27 -11 32 -11 26 -1 -4 7 -16 19 -26 26 -10 7 -18 19 -18 26 0 7
-8 20 -17 28 -16 14 -20 14 -38 -5z"/>
<path d="M1620 505 c0 -17 2 -18 24 -9 18 7 12 24 -10 24 -8 0 -14 -7 -14 -15z"/>
<path d="M1650 480 c-12 -7 -7 -17 28 -50 40 -39 62 -44 62 -15 0 7 -7 15 -15
19 -8 3 -20 17 -25 31 -10 26 -25 31 -50 15z"/>
<path d="M1395 460 c10 -11 20 -18 23 -15 7 6 -18 35 -31 35 -5 0 -2 -9 8 -20z"/>
<path d="M1531 471 l-24 -6 27 -25 c14 -14 26 -29 26 -35 1 -19 50 -46 70 -40
15 5 18 3 14 -9 -3 -9 -1 -16 5 -16 6 0 11 4 11 9 0 5 2 16 5 23 7 17 -77 108
-97 107 -7 -1 -24 -4 -37 -8z"/>
<path d="M1192 458 c4 -13 128 -102 128 -93 0 12 -65 65 -80 65 -10 0 -20 9
-23 20 -3 11 -10 20 -17 20 -6 0 -10 -6 -8 -12z"/>
<path d="M1460 462 c0 -4 9 -15 20 -25 24 -20 27 -6 4 17 -17 18 -24 20 -24 8z"/>
<path d="M1800 400 c0 -5 5 -10 10 -10 6 0 10 5 10 10 0 6 -4 10 -10 10 -5 0
-10 -4 -10 -10z"/>
</g>
</svg>
