<?xml version="1.0" encoding="UTF-8"?>
<!DOCTYPE svg PUBLIC "-//W3C//DTD SVG 1.1//EN" "http://www.w3.org/Graphics/SVG/1.1/DTD/svg11.dtd">
<svg version="1.1" xmlns="http://www.w3.org/2000/svg" xmlns:xlink="http://www.w3.org/1999/xlink" x="0" y="0" width="24" height="24" viewBox="0, 0, 24, 24">
  <g id="Layer_1">
    <g>
      <path d="M12.625,23.688 C6.55,23.688 1.625,18.763 1.625,12.688 C1.625,6.612 6.55,1.688 12.625,1.688 C18.7,1.688 23.625,6.612 23.625,12.688 C23.625,18.763 18.7,23.688 12.625,23.688 z" fill="#FFFFFF"/>
      <path d="M12.625,23.688 C6.55,23.688 1.625,18.763 1.625,12.688 C1.625,6.612 6.55,1.688 12.625,1.688 C18.7,1.688 23.625,6.612 23.625,12.688 C23.625,18.763 18.7,23.688 12.625,23.688 z" fill-opacity="0" stroke="#000000" stroke-width="1"/>
    </g>
    <g>
      <path d="M12.625,21.688 C7.654,21.688 3.625,17.658 3.625,12.688 C3.625,7.717 7.654,3.688 12.625,3.688 C17.596,3.688 21.625,7.717 21.625,12.688 C21.625,17.658 17.596,21.688 12.625,21.688 z" fill="#EE0000"/>
      <g>
        <path d="M12.625,21.688 C7.654,21.688 3.625,17.658 3.625,12.688 C3.625,7.717 7.654,3.688 12.625,3.688 C17.596,3.688 21.625,7.717 21.625,12.688 C21.625,17.658 17.596,21.688 12.625,21.688 z" fill="#EE0000"/>
        <path d="M12.625,21.688 C7.654,21.688 3.625,17.658 3.625,12.688 C3.625,7.717 7.654,3.688 12.625,3.688 C17.596,3.688 21.625,7.717 21.625,12.688 C21.625,17.658 17.596,21.688 12.625,21.688 z" fill-opacity="0" stroke="#38C400" stroke-width="1"/>
      </g>
    </g>
  </g>
</svg>
