<?xml version="1.0" encoding="UTF-8"?>
<svg xmlns="http://www.w3.org/2000/svg" xmlns:xlink="http://www.w3.org/1999/xlink" width="50px" height="18px" viewBox="0 0 49 18" version="1.1">
<defs>
<linearGradient id="linear0" gradientUnits="userSpaceOnUse" x1="0" y1="0" x2="220" y2="0" gradientTransform="matrix(0.222727,0,0,0.225,0,0)">
<stop offset="0" style="stop-color:rgb(0%,27.843137%,65.882353%);stop-opacity:1;"/>
<stop offset="1" style="stop-color:rgb(16.862745%,73.72549%,100%);stop-opacity:1;"/>
</linearGradient>
</defs>
<g id="surface1">
<path style=" stroke:none;fill-rule:nonzero;fill:url(#linear0);" d="M 2.226562 0 L 46.773438 0 C 48.003906 0 49 1.007812 49 2.25 L 49 15.75 C 49 16.992188 48.003906 18 46.773438 18 L 2.226562 18 C 0.996094 18 0 16.992188 0 15.75 L 0 2.25 C 0 1.007812 0.996094 0 2.226562 0 Z M 2.226562 0 "/>
<path style=" stroke:none;fill-rule:nonzero;fill:rgb(100%,100%,100%);fill-opacity:1;" d="M 40.492188 6.496094 C 40.335938 6.136719 40.125 5.824219 39.859375 5.554688 C 39.59375 5.285156 39.28125 5.074219 38.925781 4.921875 C 38.566406 4.769531 38.1875 4.695312 37.789062 4.695312 C 37.378906 4.695312 36.996094 4.769531 36.644531 4.921875 C 36.46875 5 36.304688 5.089844 36.148438 5.195312 C 35.992188 5.300781 35.847656 5.417969 35.710938 5.554688 C 35.625 5.636719 35.550781 5.726562 35.476562 5.816406 C 35.394531 5.921875 35.304688 6.058594 35.253906 6.140625 C 35.191406 6.242188 35.042969 6.558594 34.976562 6.777344 C 34.984375 6.40625 35.039062 5.855469 35.253906 5.546875 L 35.253906 2.871094 C 35.253906 2.699219 35.195312 2.550781 35.070312 2.429688 C 34.945312 2.308594 34.800781 2.25 34.640625 2.25 C 34.464844 2.25 34.320312 2.308594 34.199219 2.429688 C 34.082031 2.550781 34.023438 2.699219 34.023438 2.871094 L 34.023438 5.25 C 33.773438 5.074219 33.503906 4.9375 33.21875 4.839844 C 32.933594 4.742188 32.632812 4.691406 32.316406 4.691406 C 31.917969 4.691406 31.539062 4.769531 31.183594 4.921875 C 30.824219 5.074219 30.515625 5.285156 30.246094 5.554688 C 29.984375 5.824219 29.769531 6.136719 29.617188 6.496094 C 29.605469 6.523438 29.59375 6.550781 29.582031 6.578125 C 29.570312 6.550781 29.5625 6.523438 29.550781 6.496094 C 29.394531 6.136719 29.179688 5.824219 28.917969 5.554688 C 28.652344 5.285156 28.339844 5.074219 27.984375 4.921875 C 27.625 4.769531 27.246094 4.691406 26.847656 4.691406 C 26.433594 4.691406 26.054688 4.769531 25.703125 4.921875 C 25.351562 5.074219 25.039062 5.285156 24.769531 5.554688 C 24.5 5.824219 24.285156 6.136719 24.136719 6.496094 C 24.125 6.523438 24.117188 6.546875 24.105469 6.574219 C 24.09375 6.546875 24.085938 6.523438 24.074219 6.496094 C 23.917969 6.136719 23.707031 5.824219 23.441406 5.554688 C 23.175781 5.285156 22.863281 5.074219 22.507812 4.921875 C 22.152344 4.769531 21.773438 4.691406 21.371094 4.691406 C 20.960938 4.691406 20.578125 4.769531 20.226562 4.921875 C 19.875 5.074219 19.5625 5.285156 19.292969 5.554688 C 19.023438 5.824219 18.8125 6.136719 18.660156 6.496094 C 18.652344 6.519531 18.640625 6.542969 18.632812 6.570312 C 18.621094 6.542969 18.613281 6.519531 18.601562 6.496094 C 18.445312 6.136719 18.234375 5.824219 17.96875 5.554688 C 17.703125 5.285156 17.394531 5.074219 17.035156 4.921875 C 16.679688 4.769531 16.300781 4.691406 15.898438 4.691406 C 15.488281 4.691406 15.105469 4.769531 14.757812 4.921875 C 14.429688 5.0625 14.140625 5.257812 13.886719 5.496094 L 13.886719 5.398438 C 13.886719 5.046875 13.605469 4.761719 13.257812 4.761719 L 8.851562 4.761719 C 8.503906 4.761719 8.222656 5.046875 8.222656 5.398438 C 8.222656 5.75 8.507812 6.03125 8.851562 6.03125 L 12.3125 6.03125 L 8.253906 11.554688 C 8.171875 11.664062 8.128906 11.796875 8.128906 11.933594 L 8.128906 12.347656 C 8.128906 12.699219 8.410156 12.984375 8.757812 12.984375 L 13.445312 12.984375 C 13.777344 12.984375 14.046875 12.722656 14.070312 12.394531 C 14.28125 12.5625 14.511719 12.703125 14.765625 12.808594 C 15.121094 12.964844 15.5 13.039062 15.902344 13.039062 C 16.507812 13.039062 17.046875 12.875 17.523438 12.546875 C 17.910156 12.285156 18.210938 11.953125 18.433594 11.558594 L 18.433594 12.417969 C 18.433594 12.589844 18.492188 12.738281 18.613281 12.859375 C 18.730469 12.980469 18.878906 13.039062 19.050781 13.039062 C 19.214844 13.039062 19.355469 12.980469 19.480469 12.859375 C 19.605469 12.738281 19.667969 12.59375 19.667969 12.417969 L 19.667969 10.195312 L 19.664062 10.195312 C 19.664062 10.195312 19.667969 10.191406 19.667969 10.191406 C 19.667969 10.191406 18.300781 10.191406 18.128906 10.191406 C 18 10.191406 17.882812 10.226562 17.777344 10.296875 C 17.675781 10.367188 17.601562 10.464844 17.558594 10.585938 L 17.460938 10.792969 C 17.320312 11.101562 17.109375 11.34375 16.832031 11.523438 C 16.558594 11.703125 16.246094 11.792969 15.902344 11.792969 C 15.671875 11.792969 15.453125 11.75 15.242188 11.664062 C 15.035156 11.574219 14.851562 11.453125 14.699219 11.292969 C 14.546875 11.136719 14.425781 10.953125 14.335938 10.746094 C 14.242188 10.535156 14.195312 10.320312 14.195312 10.089844 L 14.195312 9.53125 L 19.667969 9.53125 L 19.667969 7.644531 C 19.667969 7.417969 19.710938 7.195312 19.796875 6.988281 C 19.882812 6.78125 20.003906 6.597656 20.164062 6.441406 C 20.320312 6.28125 20.5 6.160156 20.707031 6.070312 C 20.910156 5.984375 21.136719 5.941406 21.371094 5.941406 C 21.597656 5.941406 21.820312 5.984375 22.03125 6.070312 C 22.238281 6.160156 22.421875 6.28125 22.574219 6.441406 C 22.726562 6.597656 22.847656 6.78125 22.9375 6.988281 C 23.03125 7.195312 23.078125 7.414062 23.078125 7.644531 L 23.078125 12.417969 C 23.078125 12.589844 23.136719 12.738281 23.253906 12.859375 C 23.375 12.980469 23.519531 13.039062 23.695312 13.039062 C 23.855469 13.039062 24 12.980469 24.125 12.859375 C 24.246094 12.738281 24.308594 12.589844 24.308594 12.417969 L 24.308594 11.5625 C 24.441406 11.789062 24.597656 11.996094 24.777344 12.179688 C 25.042969 12.445312 25.355469 12.65625 25.710938 12.808594 C 26.066406 12.964844 26.445312 13.039062 26.847656 13.039062 C 27.246094 13.039062 27.625 12.964844 27.984375 12.808594 C 28.339844 12.65625 28.65625 12.445312 28.925781 12.179688 C 29.195312 11.910156 29.40625 11.597656 29.558594 11.238281 C 29.566406 11.214844 29.574219 11.195312 29.582031 11.171875 C 29.589844 11.195312 29.597656 11.214844 29.609375 11.238281 C 29.757812 11.597656 29.96875 11.910156 30.242188 12.179688 C 30.511719 12.445312 30.820312 12.65625 31.175781 12.808594 C 31.523438 12.964844 31.90625 13.039062 32.320312 13.039062 C 32.71875 13.039062 33.097656 12.964844 33.457031 12.808594 C 33.8125 12.65625 34.121094 12.445312 34.386719 12.179688 C 34.652344 11.910156 34.863281 11.597656 35.023438 11.238281 C 35.035156 11.210938 35.042969 11.183594 35.054688 11.15625 C 35.066406 11.183594 35.074219 11.210938 35.085938 11.238281 C 35.242188 11.597656 35.453125 11.910156 35.71875 12.179688 C 35.984375 12.445312 36.296875 12.65625 36.652344 12.808594 C 37.011719 12.964844 37.390625 13.039062 37.789062 13.039062 C 38.191406 13.039062 38.570312 12.964844 38.925781 12.808594 C 39.285156 12.65625 39.597656 12.445312 39.867188 12.179688 C 40.136719 11.910156 40.347656 11.597656 40.5 11.238281 C 40.652344 10.875 40.726562 10.492188 40.726562 10.089844 L 40.726562 7.644531 C 40.726562 7.242188 40.648438 6.859375 40.492188 6.496094 Z M 9.703125 11.714844 L 12.988281 7.242188 C 12.972656 7.375 12.964844 7.507812 12.964844 7.644531 L 12.964844 10.089844 C 12.964844 10.492188 13.039062 10.875 13.199219 11.238281 C 13.273438 11.40625 13.359375 11.566406 13.457031 11.714844 C 13.453125 11.714844 13.449219 11.714844 13.445312 11.714844 Z M 17.605469 8.285156 L 14.195312 8.285156 L 14.195312 7.644531 C 14.195312 7.417969 14.238281 7.195312 14.324219 6.988281 C 14.414062 6.78125 14.535156 6.597656 14.691406 6.441406 C 14.847656 6.28125 15.03125 6.160156 15.234375 6.070312 C 15.441406 5.984375 15.664062 5.941406 15.902344 5.941406 C 16.128906 5.941406 16.347656 5.984375 16.558594 6.070312 C 16.769531 6.160156 16.949219 6.28125 17.101562 6.441406 C 17.253906 6.597656 17.375 6.78125 17.46875 6.988281 C 17.558594 7.195312 17.605469 7.414062 17.605469 7.644531 Z M 28.550781 10.089844 C 28.550781 10.320312 28.507812 10.535156 28.421875 10.746094 C 28.335938 10.953125 28.210938 11.136719 28.058594 11.292969 C 27.898438 11.453125 27.71875 11.574219 27.511719 11.664062 C 27.308594 11.75 27.085938 11.792969 26.847656 11.792969 C 26.621094 11.792969 26.402344 11.75 26.1875 11.664062 C 25.980469 11.574219 25.796875 11.453125 25.644531 11.292969 C 25.496094 11.136719 25.371094 10.953125 25.28125 10.746094 C 25.1875 10.535156 25.144531 10.320312 25.144531 10.089844 L 25.144531 7.644531 C 25.144531 7.417969 25.1875 7.195312 25.273438 6.988281 C 25.359375 6.78125 25.480469 6.597656 25.636719 6.441406 C 25.792969 6.28125 25.976562 6.160156 26.179688 6.070312 C 26.386719 5.984375 26.609375 5.941406 26.847656 5.941406 C 27.074219 5.941406 27.292969 5.984375 27.503906 6.070312 C 27.714844 6.160156 27.898438 6.28125 28.046875 6.441406 C 28.199219 6.597656 28.320312 6.78125 28.414062 6.988281 C 28.503906 7.195312 28.550781 7.417969 28.550781 7.644531 Z M 34.023438 10.089844 C 34.023438 10.320312 33.976562 10.535156 33.882812 10.746094 C 33.792969 10.953125 33.671875 11.136719 33.519531 11.292969 C 33.367188 11.453125 33.1875 11.574219 32.976562 11.664062 C 32.765625 11.75 32.546875 11.792969 32.316406 11.792969 C 32.078125 11.792969 31.859375 11.75 31.652344 11.664062 C 31.445312 11.574219 31.265625 11.453125 31.109375 11.292969 C 30.953125 11.136719 30.832031 10.953125 30.742188 10.746094 C 30.65625 10.535156 30.613281 10.320312 30.613281 10.089844 L 30.613281 7.644531 C 30.613281 7.417969 30.660156 7.195312 30.75 6.988281 C 30.84375 6.78125 30.964844 6.597656 31.117188 6.441406 C 31.269531 6.28125 31.449219 6.160156 31.660156 6.070312 C 31.871094 5.984375 32.089844 5.941406 32.316406 5.941406 C 32.554688 5.941406 32.777344 5.984375 32.984375 6.070312 C 33.191406 6.160156 33.371094 6.28125 33.527344 6.441406 C 33.683594 6.597656 33.804688 6.78125 33.894531 6.988281 C 33.980469 7.195312 34.023438 7.417969 34.023438 7.644531 Z M 39.492188 10.089844 C 39.492188 10.320312 39.449219 10.535156 39.363281 10.746094 C 39.277344 10.953125 39.15625 11.136719 39 11.292969 C 38.839844 11.453125 38.660156 11.574219 38.453125 11.664062 C 38.25 11.75 38.027344 11.792969 37.789062 11.792969 C 37.5625 11.792969 37.34375 11.75 37.132812 11.664062 C 36.921875 11.574219 36.738281 11.453125 36.589844 11.292969 C 36.4375 11.136719 36.3125 10.953125 36.222656 10.746094 C 36.128906 10.535156 36.085938 10.320312 36.085938 10.089844 L 36.085938 7.644531 C 36.085938 7.417969 36.128906 7.195312 36.214844 6.988281 C 36.300781 6.78125 36.421875 6.597656 36.578125 6.441406 C 36.734375 6.28125 36.917969 6.160156 37.125 6.070312 C 37.328125 5.984375 37.550781 5.941406 37.789062 5.941406 C 38.015625 5.941406 38.234375 5.984375 38.445312 6.070312 C 38.65625 6.160156 38.839844 6.28125 38.988281 6.441406 C 39.140625 6.597656 39.261719 6.78125 39.355469 6.988281 C 39.445312 7.195312 39.492188 7.417969 39.492188 7.644531 Z M 39.492188 10.089844 "/>
</g>
</svg>
